M48
; DRILL file {KiCad 5.1.5-1.fc31} date Tue 14 Apr 2020 16:18:02 BST
; FORMAT={-:-/ absolute / inch / decimal}
; #@! TF.CreationDate,2020-04-14T16:18:02+01:00
; #@! TF.GenerationSoftware,Kicad,Pcbnew,5.1.5-1.fc31
; #@! TF.FileFunction,Plated,1,2,PTH
FMAT,2
INCH
T1C0.0157
T2C0.0197
T3C0.0217
T4C0.0295
T5C0.0315
T6C0.0433
T7C0.0472
T8C0.0512
T9C0.0591
%
G90
G05
T1
X3.55Y-2.339
X3.55Y-2.489
X3.55Y-2.639
X3.55Y-2.789
X3.55Y-2.98
X3.55Y-3.1784
X3.55Y-3.3769
X3.55Y-3.5753
X3.55Y-3.7737
X3.55Y-3.9721
X3.55Y-4.1706
X3.55Y-4.369
X3.55Y-4.55
X3.55Y-4.7484
X3.55Y-4.9469
X3.55Y-5.1453
X3.7Y-2.95
X3.7Y-4.4
X3.85Y-5.5
X3.9Y-2.95
X3.9Y-4.4
X4.0484Y-5.5
X4.1Y-2.95
X4.1Y-4.4
X4.2469Y-5.5
X4.3Y-2.95
X4.3Y-4.4
X4.38Y-4.61
X4.4453Y-5.5
X4.45Y-2.65
X4.5Y-4.4
X4.6437Y-5.5
X4.7Y-3.0
X4.7Y-4.4
X4.75Y-2.05
X4.75Y-3.3
X4.75Y-3.7
X4.8Y-3.9
X4.8Y-4.85
X4.83Y-4.6
X4.8421Y-5.5
X4.9Y-2.45
X4.9Y-3.95
X4.9Y-4.4
X4.91Y-3.58
X4.94Y-2.95
X4.96Y-4.68
X5.0406Y-5.5
X5.05Y-3.85
X5.1Y-4.47
X5.2Y-2.05
X5.239Y-5.5
X5.25Y-4.3
X5.25Y-4.6
X5.35Y-2.15
X5.4374Y-5.5
X5.6Y-3.25
X5.6Y-4.3
X5.6Y-4.9
X5.6358Y-5.5
X5.65Y-2.2
X5.8343Y-5.5
X6.0327Y-5.5
X6.15Y-2.2
X6.2311Y-5.5
X6.3Y-2.7
X6.4295Y-5.5
X6.628Y-5.5
X6.75Y-2.4
X6.8Y-2.05
X6.8264Y-5.5
X6.83Y-4.86
X7.0248Y-5.5
X7.05Y-2.6
X7.05Y-4.6
X7.2232Y-5.5
X7.4217Y-5.5
X7.55Y-2.2
X7.55Y-4.85
X7.55Y-4.96
X7.6201Y-5.5
X7.8185Y-5.5
X7.95Y-4.8
X8.0Y-2.05
X8.0169Y-5.5
X8.2154Y-5.5
X8.45Y-4.4
X8.45Y-4.65
X8.5Y-3.139
X8.5Y-3.25
X8.5Y-3.389
X8.5Y-3.539
X8.5Y-3.689
X8.5Y-3.839
X8.5Y-3.989
T2
X7.85Y-3.0
T3
X4.85Y-3.1
X4.9Y-3.1
X4.95Y-3.1
X7.75Y-4.9
X7.75Y-4.95
X7.75Y-5.0
X4.65Y-4.6
X4.65Y-4.65
X4.65Y-4.7
X7.7Y-2.5
X7.7Y-2.55
X7.7Y-2.6
T4
X5.05Y-4.6
X5.05Y-4.65
X5.05Y-4.7
X6.55Y-2.35
X6.55Y-2.4
X6.55Y-2.45
X8.45Y-4.1
X8.45Y-4.15
X8.45Y-4.2
X4.85Y-3.4
X4.9Y-3.4
X4.95Y-3.4
X3.95Y-4.6
X3.95Y-4.65
X3.95Y-4.7
X4.85Y-3.7
X4.9Y-3.7
X4.95Y-3.7
X4.29Y-4.6
X4.29Y-4.65
X4.29Y-4.7
T5
X3.9Y-2.7
X4.0969Y-2.7
X6.5Y-2.2
X6.8Y-2.2
X4.35Y-4.05
X4.35Y-4.2469
X5.45Y-4.9
X5.45Y-5.4
X7.3Y-4.05
X7.8Y-4.05
X5.2Y-3.55
X5.7Y-3.55
X4.6Y-2.2
X4.6Y-2.7
X4.65Y-3.3
X4.65Y-3.8
X5.9Y-3.3
X6.4Y-3.3
X4.3Y-2.2
X4.3Y-2.7
X4.85Y-4.1016
X4.85Y-4.2
X4.2Y-3.3
X4.2Y-3.8
X4.4531Y-3.05
X4.65Y-3.05
X5.5Y-2.2
X5.5Y-2.7
X5.75Y-4.9
X5.75Y-5.4
X3.95Y-4.9
X3.95Y-5.4
X5.45Y-4.2
X5.5484Y-4.2
X5.9Y-3.05
X6.4Y-3.05
X7.3Y-4.3
X7.8Y-4.3
X4.9Y-5.05
X4.9Y-5.15
X4.9Y-5.25
X6.65Y-4.9
X6.65Y-5.4
X4.6Y-4.9
X4.6Y-5.4
X5.2Y-4.9
X5.2Y-5.2
X4.43Y-3.3
X4.43Y-3.8
X7.2Y-2.8
X7.7Y-2.8
X5.8Y-2.2
X5.8Y-2.7
X5.2Y-2.2
X5.2Y-2.7
X6.95Y-4.95
X7.45Y-4.95
X4.3Y-4.9
X4.3Y-5.4
X3.8Y-3.05
X4.3Y-3.05
X6.05Y-4.9
X6.05Y-5.4
X5.2Y-3.8
X5.7Y-3.8
X6.2Y-3.5016
X6.2Y-3.6
X5.2Y-3.05
X5.7Y-3.05
X7.2Y-3.0
X7.7Y-3.0
X4.9Y-2.2
X4.9Y-2.7
X6.35Y-4.9
X6.35Y-5.4
X3.9Y-2.2
X4.0969Y-2.2
X5.2Y-3.3
X5.7Y-3.3
X3.9Y-2.45
X4.0969Y-2.45
T6
X5.95Y-3.85
X6.35Y-3.85
X5.95Y-4.05
X6.35Y-4.05
X6.05Y-2.2
X6.05Y-2.6
X7.0Y-3.775
X7.8Y-3.775
X5.95Y-4.25
X6.35Y-4.25
X6.3Y-2.2
X6.3Y-2.6
T7
X6.75Y-2.7
X6.75Y-2.8969
X7.2594Y-4.6
X7.85Y-4.6
X8.1Y-2.5
X8.1Y-3.5
X8.1Y-4.05
X8.1Y-5.05
X3.7Y-4.25
X3.8Y-4.25
X3.9Y-4.25
X4.0Y-4.25
X5.8654Y-4.6
X6.456Y-4.6
X6.7031Y-4.3
X6.9Y-4.3
T8
X6.95Y-2.2016
X6.95Y-2.3984
X6.95Y-5.1516
X6.95Y-5.3484
X8.1Y-3.6766
X8.1Y-3.8734
X6.625Y-3.6766
X6.625Y-3.8734
T9
X7.25Y-5.35
X8.1398Y-5.35
X7.25Y-2.2
X8.1398Y-2.2
X8.4Y-2.55
X8.4Y-2.7656
X8.4Y-2.9811
X7.0102Y-3.35
X7.9Y-3.35
X8.4Y-4.55
X8.4Y-4.7656
X8.4Y-4.9811
T0
M30
