<?xml version="1.0" standalone="no"?>
 <!DOCTYPE svg PUBLIC "-//W3C//DTD SVG 1.1//EN" 
 "http://www.w3.org/Graphics/SVG/1.1/DTD/svg11.dtd"> 
<svg xmlns="http://www.w3.org/2000/svg" version="1.1" 
    width="29.7002cm" height="21.0007cm" viewBox="0 0 116930 82680 ">
<title>SVG Picture created as AR_A60_PA_25502_Issue8_v8.01_Stereo_Compact-Dwgs_User.svg date 2020/04/28 13:01:34 </title>
  <desc>Picture generated by PCBNEW </desc>
<g style="fill:#000000; fill-opacity:1;stroke:#000000; stroke-opacity:1;
stroke-linecap:round; stroke-linejoin:round; "
 transform="translate(0 0) scale(1 1)">
</g>
<g style="fill:#000000; fill-opacity:0.0; 
stroke:#000000; stroke-width:-0.000393701; stroke-opacity:1; 
stroke-linecap:round; stroke-linejoin:round;">
</g>
<g style="fill:#000000; fill-opacity:0.0; 
stroke:#000000; stroke-width:39.3701; stroke-opacity:1; 
stroke-linecap:round; stroke-linejoin:round;">
</g>
<g style="fill:#000000; fill-opacity:0.0; 
stroke:#000000; stroke-width:59.0551; stroke-opacity:1; 
stroke-linecap:round; stroke-linejoin:round;">
<rect x="69685.9" y="65357.2" width="42519.7" height="12598.4" rx="0" />
</g>
<g style="fill:#000000; fill-opacity:0.0; 
stroke:#000000; stroke-width:39.3701; stroke-opacity:1; 
stroke-linecap:round; stroke-linejoin:round;">
</g>
<g style="fill:#000000; fill-opacity:0.0; 
stroke:#000000; stroke-width:59.0551; stroke-opacity:1; 
stroke-linecap:round; stroke-linejoin:round;">
<rect x="3937.01" y="3937.01" width="109056" height="74806" rx="0" />
</g>
<g style="fill:#000000; fill-opacity:0.0; 
stroke:#000000; stroke-width:39.3701; stroke-opacity:1; 
stroke-linecap:round; stroke-linejoin:round;">
</g>
<g style="fill:#000000; fill-opacity:0.0; 
stroke:#000000; stroke-width:59.0551; stroke-opacity:1; 
stroke-linecap:round; stroke-linejoin:round;">
<rect x="4724.41" y="4724.41" width="107481" height="73231.2" rx="0" />
</g>
<g style="fill:#000000; fill-opacity:0.0; 
stroke:#000000; stroke-width:39.3701; stroke-opacity:1; 
stroke-linecap:round; stroke-linejoin:round;">
</g>
<g style="fill:#000000; fill-opacity:0.0; 
stroke:#000000; stroke-width:59.0551; stroke-opacity:1; 
stroke-linecap:round; stroke-linejoin:round;">
<path d="M23622 4724
L23622 3937
" />
</g>
<g style="fill:#000000; fill-opacity:0.0; 
stroke:#000000; stroke-width:39.3701; stroke-opacity:1; 
stroke-linecap:round; stroke-linejoin:round;">
</g>
<g style="fill:#000000; fill-opacity:0.0; 
stroke:#000000; stroke-width:59.0551; stroke-opacity:1; 
stroke-linecap:round; stroke-linejoin:round;">
<path d="M43307 4724
L43307 3937
" />
</g>
<g style="fill:#000000; fill-opacity:0.0; 
stroke:#000000; stroke-width:39.3701; stroke-opacity:1; 
stroke-linecap:round; stroke-linejoin:round;">
</g>
<g style="fill:#000000; fill-opacity:0.0; 
stroke:#000000; stroke-width:59.0551; stroke-opacity:1; 
stroke-linecap:round; stroke-linejoin:round;">
<path d="M62992 4724
L62992 3937
" />
</g>
<g style="fill:#000000; fill-opacity:0.0; 
stroke:#000000; stroke-width:39.3701; stroke-opacity:1; 
stroke-linecap:round; stroke-linejoin:round;">
</g>
<g style="fill:#000000; fill-opacity:0.0; 
stroke:#000000; stroke-width:59.0551; stroke-opacity:1; 
stroke-linecap:round; stroke-linejoin:round;">
<path d="M82677 4724
L82677 3937
" />
</g>
<g style="fill:#000000; fill-opacity:0.0; 
stroke:#000000; stroke-width:39.3701; stroke-opacity:1; 
stroke-linecap:round; stroke-linejoin:round;">
</g>
<g style="fill:#000000; fill-opacity:0.0; 
stroke:#000000; stroke-width:59.0551; stroke-opacity:1; 
stroke-linecap:round; stroke-linejoin:round;">
<path d="M102362 4724
L102362 3937
" />
</g>
<g style="fill:#000000; fill-opacity:0.0; 
stroke:#000000; stroke-width:39.3701; stroke-opacity:1; 
stroke-linecap:round; stroke-linejoin:round;">
</g>
<g style="fill:#000000; fill-opacity:0.0; 
stroke:#000000; stroke-width:59.0551; stroke-opacity:1; 
stroke-linecap:round; stroke-linejoin:round;">
<text x="13779.5" y="4586.61"
textLength="564.211" font-size="682.415" lengthAdjust="spacingAndGlyphs"
text-anchor="start" opacity="0">1</text>
<path d="M14199 4562
L13906 4562
" />
<path d="M14052 4562
L14052 4050
L14004 4123
L13955 4172
L13906 4196
" />
</g>
<g style="fill:#000000; fill-opacity:0.0; 
stroke:#000000; stroke-width:39.3701; stroke-opacity:1; 
stroke-linecap:round; stroke-linejoin:round;">
</g>
<g style="fill:#000000; fill-opacity:0.0; 
stroke:#000000; stroke-width:59.0551; stroke-opacity:1; 
stroke-linecap:round; stroke-linejoin:round;">
<text x="33464.6" y="4586.61"
textLength="546.494" font-size="682.415" lengthAdjust="spacingAndGlyphs"
text-anchor="start" opacity="0">2</text>
<path d="M33591 4099
L33615 4074
L33664 4050
L33786 4050
L33835 4074
L33859 4099
L33884 4147
L33884 4196
L33859 4269
L33567 4562
L33884 4562
" />
</g>
<g style="fill:#000000; fill-opacity:0.0; 
stroke:#000000; stroke-width:39.3701; stroke-opacity:1; 
stroke-linecap:round; stroke-linejoin:round;">
</g>
<g style="fill:#000000; fill-opacity:0.0; 
stroke:#000000; stroke-width:59.0551; stroke-opacity:1; 
stroke-linecap:round; stroke-linejoin:round;">
<text x="53149.6" y="4586.61"
textLength="546.494" font-size="682.415" lengthAdjust="spacingAndGlyphs"
text-anchor="start" opacity="0">3</text>
<path d="M53252 4050
L53569 4050
L53398 4245
L53471 4245
L53520 4269
L53544 4294
L53569 4342
L53569 4464
L53544 4513
L53520 4537
L53471 4562
L53325 4562
L53276 4537
L53252 4513
" />
</g>
<g style="fill:#000000; fill-opacity:0.0; 
stroke:#000000; stroke-width:39.3701; stroke-opacity:1; 
stroke-linecap:round; stroke-linejoin:round;">
</g>
<g style="fill:#000000; fill-opacity:0.0; 
stroke:#000000; stroke-width:59.0551; stroke-opacity:1; 
stroke-linecap:round; stroke-linejoin:round;">
<text x="72834.6" y="4586.61"
textLength="546.494" font-size="682.415" lengthAdjust="spacingAndGlyphs"
text-anchor="start" opacity="0">4</text>
<path d="M73205 4221
L73205 4562
" />
<path d="M73083 4026
L72961 4391
L73278 4391
" />
</g>
<g style="fill:#000000; fill-opacity:0.0; 
stroke:#000000; stroke-width:39.3701; stroke-opacity:1; 
stroke-linecap:round; stroke-linejoin:round;">
</g>
<g style="fill:#000000; fill-opacity:0.0; 
stroke:#000000; stroke-width:59.0551; stroke-opacity:1; 
stroke-linecap:round; stroke-linejoin:round;">
<text x="92519.7" y="4586.61"
textLength="546.494" font-size="682.415" lengthAdjust="spacingAndGlyphs"
text-anchor="start" opacity="0">5</text>
<path d="M92914 4050
L92671 4050
L92646 4294
L92671 4269
L92719 4245
L92841 4245
L92890 4269
L92914 4294
L92939 4342
L92939 4464
L92914 4513
L92890 4537
L92841 4562
L92719 4562
L92671 4537
L92646 4513
" />
</g>
<g style="fill:#000000; fill-opacity:0.0; 
stroke:#000000; stroke-width:39.3701; stroke-opacity:1; 
stroke-linecap:round; stroke-linejoin:round;">
</g>
<g style="fill:#000000; fill-opacity:0.0; 
stroke:#000000; stroke-width:59.0551; stroke-opacity:1; 
stroke-linecap:round; stroke-linejoin:round;">
<text x="112205" y="4586.61"
textLength="546.494" font-size="682.415" lengthAdjust="spacingAndGlyphs"
text-anchor="start" opacity="0">6</text>
<path d="M112575 4050
L112477 4050
L112429 4074
L112404 4099
L112356 4172
L112331 4269
L112331 4464
L112356 4513
L112380 4537
L112429 4562
L112526 4562
L112575 4537
L112599 4513
L112624 4464
L112624 4342
L112599 4294
L112575 4269
L112526 4245
L112429 4245
L112380 4269
L112356 4294
L112331 4342
" />
</g>
<g style="fill:#000000; fill-opacity:0.0; 
stroke:#000000; stroke-width:39.3701; stroke-opacity:1; 
stroke-linecap:round; stroke-linejoin:round;">
</g>
<g style="fill:#000000; fill-opacity:0.0; 
stroke:#000000; stroke-width:59.0551; stroke-opacity:1; 
stroke-linecap:round; stroke-linejoin:round;">
<path d="M23622 77955
L23622 78742
" />
</g>
<g style="fill:#000000; fill-opacity:0.0; 
stroke:#000000; stroke-width:39.3701; stroke-opacity:1; 
stroke-linecap:round; stroke-linejoin:round;">
</g>
<g style="fill:#000000; fill-opacity:0.0; 
stroke:#000000; stroke-width:59.0551; stroke-opacity:1; 
stroke-linecap:round; stroke-linejoin:round;">
<path d="M43307 77955
L43307 78742
" />
</g>
<g style="fill:#000000; fill-opacity:0.0; 
stroke:#000000; stroke-width:39.3701; stroke-opacity:1; 
stroke-linecap:round; stroke-linejoin:round;">
</g>
<g style="fill:#000000; fill-opacity:0.0; 
stroke:#000000; stroke-width:59.0551; stroke-opacity:1; 
stroke-linecap:round; stroke-linejoin:round;">
<path d="M62992 77955
L62992 78742
" />
</g>
<g style="fill:#000000; fill-opacity:0.0; 
stroke:#000000; stroke-width:39.3701; stroke-opacity:1; 
stroke-linecap:round; stroke-linejoin:round;">
</g>
<g style="fill:#000000; fill-opacity:0.0; 
stroke:#000000; stroke-width:59.0551; stroke-opacity:1; 
stroke-linecap:round; stroke-linejoin:round;">
<path d="M82677 77955
L82677 78742
" />
</g>
<g style="fill:#000000; fill-opacity:0.0; 
stroke:#000000; stroke-width:39.3701; stroke-opacity:1; 
stroke-linecap:round; stroke-linejoin:round;">
</g>
<g style="fill:#000000; fill-opacity:0.0; 
stroke:#000000; stroke-width:59.0551; stroke-opacity:1; 
stroke-linecap:round; stroke-linejoin:round;">
<path d="M102362 77955
L102362 78742
" />
</g>
<g style="fill:#000000; fill-opacity:0.0; 
stroke:#000000; stroke-width:39.3701; stroke-opacity:1; 
stroke-linecap:round; stroke-linejoin:round;">
</g>
<g style="fill:#000000; fill-opacity:0.0; 
stroke:#000000; stroke-width:59.0551; stroke-opacity:1; 
stroke-linecap:round; stroke-linejoin:round;">
<text x="13779.5" y="78605.2"
textLength="546.494" font-size="682.415" lengthAdjust="spacingAndGlyphs"
text-anchor="start" opacity="0">1</text>
<path d="M14199 78580
L13906 78580
" />
<path d="M14052 78580
L14052 78069
L14004 78142
L13955 78190
L13906 78215
" />
</g>
<g style="fill:#000000; fill-opacity:0.0; 
stroke:#000000; stroke-width:39.3701; stroke-opacity:1; 
stroke-linecap:round; stroke-linejoin:round;">
</g>
<g style="fill:#000000; fill-opacity:0.0; 
stroke:#000000; stroke-width:59.0551; stroke-opacity:1; 
stroke-linecap:round; stroke-linejoin:round;">
<text x="33464.6" y="78605.2"
textLength="546.494" font-size="682.415" lengthAdjust="spacingAndGlyphs"
text-anchor="start" opacity="0">2</text>
<path d="M33591 78117
L33615 78093
L33664 78069
L33786 78069
L33835 78093
L33859 78117
L33884 78166
L33884 78215
L33859 78288
L33567 78580
L33884 78580
" />
</g>
<g style="fill:#000000; fill-opacity:0.0; 
stroke:#000000; stroke-width:39.3701; stroke-opacity:1; 
stroke-linecap:round; stroke-linejoin:round;">
</g>
<g style="fill:#000000; fill-opacity:0.0; 
stroke:#000000; stroke-width:59.0551; stroke-opacity:1; 
stroke-linecap:round; stroke-linejoin:round;">
<text x="53149.6" y="78605.2"
textLength="546.494" font-size="682.415" lengthAdjust="spacingAndGlyphs"
text-anchor="start" opacity="0">3</text>
<path d="M53252 78069
L53569 78069
L53398 78263
L53471 78263
L53520 78288
L53544 78312
L53569 78361
L53569 78483
L53544 78532
L53520 78556
L53471 78580
L53325 78580
L53276 78556
L53252 78532
" />
</g>
<g style="fill:#000000; fill-opacity:0.0; 
stroke:#000000; stroke-width:39.3701; stroke-opacity:1; 
stroke-linecap:round; stroke-linejoin:round;">
</g>
<g style="fill:#000000; fill-opacity:0.0; 
stroke:#000000; stroke-width:59.0551; stroke-opacity:1; 
stroke-linecap:round; stroke-linejoin:round;">
<text x="72834.6" y="78605.2"
textLength="546.494" font-size="682.415" lengthAdjust="spacingAndGlyphs"
text-anchor="start" opacity="0">4</text>
<path d="M73205 78239
L73205 78580
" />
<path d="M73083 78044
L72961 78410
L73278 78410
" />
</g>
<g style="fill:#000000; fill-opacity:0.0; 
stroke:#000000; stroke-width:39.3701; stroke-opacity:1; 
stroke-linecap:round; stroke-linejoin:round;">
</g>
<g style="fill:#000000; fill-opacity:0.0; 
stroke:#000000; stroke-width:59.0551; stroke-opacity:1; 
stroke-linecap:round; stroke-linejoin:round;">
<text x="92519.7" y="78605.2"
textLength="546.494" font-size="682.415" lengthAdjust="spacingAndGlyphs"
text-anchor="start" opacity="0">5</text>
<path d="M92914 78069
L92671 78069
L92646 78312
L92671 78288
L92719 78263
L92841 78263
L92890 78288
L92914 78312
L92939 78361
L92939 78483
L92914 78532
L92890 78556
L92841 78580
L92719 78580
L92671 78556
L92646 78532
" />
</g>
<g style="fill:#000000; fill-opacity:0.0; 
stroke:#000000; stroke-width:39.3701; stroke-opacity:1; 
stroke-linecap:round; stroke-linejoin:round;">
</g>
<g style="fill:#000000; fill-opacity:0.0; 
stroke:#000000; stroke-width:59.0551; stroke-opacity:1; 
stroke-linecap:round; stroke-linejoin:round;">
<text x="112205" y="78605.2"
textLength="546.494" font-size="682.415" lengthAdjust="spacingAndGlyphs"
text-anchor="start" opacity="0">6</text>
<path d="M112575 78069
L112477 78069
L112429 78093
L112404 78117
L112356 78190
L112331 78288
L112331 78483
L112356 78532
L112380 78556
L112429 78580
L112526 78580
L112575 78556
L112599 78532
L112624 78483
L112624 78361
L112599 78312
L112575 78288
L112526 78263
L112429 78263
L112380 78288
L112356 78312
L112331 78361
" />
</g>
<g style="fill:#000000; fill-opacity:0.0; 
stroke:#000000; stroke-width:39.3701; stroke-opacity:1; 
stroke-linecap:round; stroke-linejoin:round;">
</g>
<g style="fill:#000000; fill-opacity:0.0; 
stroke:#000000; stroke-width:59.0551; stroke-opacity:1; 
stroke-linecap:round; stroke-linejoin:round;">
<path d="M3937 23622
L4724 23622
" />
</g>
<g style="fill:#000000; fill-opacity:0.0; 
stroke:#000000; stroke-width:39.3701; stroke-opacity:1; 
stroke-linecap:round; stroke-linejoin:round;">
</g>
<g style="fill:#000000; fill-opacity:0.0; 
stroke:#000000; stroke-width:59.0551; stroke-opacity:1; 
stroke-linecap:round; stroke-linejoin:round;">
<path d="M3937 43307
L4724 43307
" />
</g>
<g style="fill:#000000; fill-opacity:0.0; 
stroke:#000000; stroke-width:39.3701; stroke-opacity:1; 
stroke-linecap:round; stroke-linejoin:round;">
</g>
<g style="fill:#000000; fill-opacity:0.0; 
stroke:#000000; stroke-width:59.0551; stroke-opacity:1; 
stroke-linecap:round; stroke-linejoin:round;">
<path d="M3937 62992
L4724 62992
" />
</g>
<g style="fill:#000000; fill-opacity:0.0; 
stroke:#000000; stroke-width:39.3701; stroke-opacity:1; 
stroke-linecap:round; stroke-linejoin:round;">
</g>
<g style="fill:#000000; fill-opacity:0.0; 
stroke:#000000; stroke-width:59.0551; stroke-opacity:1; 
stroke-linecap:round; stroke-linejoin:round;">
<text x="4330.71" y="14035.4"
textLength="497.75" font-size="682.415" lengthAdjust="spacingAndGlyphs"
text-anchor="middle" opacity="0">A</text>
<path d="M4208 13864
L4452 13864
" />
<path d="M4160 14011
L4330 13499
L4501 14011
" />
</g>
<g style="fill:#000000; fill-opacity:0.0; 
stroke:#000000; stroke-width:39.3701; stroke-opacity:1; 
stroke-linecap:round; stroke-linejoin:round;">
</g>
<g style="fill:#000000; fill-opacity:0.0; 
stroke:#000000; stroke-width:59.0551; stroke-opacity:1; 
stroke-linecap:round; stroke-linejoin:round;">
<text x="4330.71" y="33720.5"
textLength="570.866" font-size="682.415" lengthAdjust="spacingAndGlyphs"
text-anchor="middle" opacity="0">B</text>
<path d="M4367 33428
L4440 33452
L4464 33476
L4489 33525
L4489 33598
L4464 33647
L4440 33671
L4391 33696
L4196 33696
L4196 33184
L4367 33184
L4416 33208
L4440 33233
L4464 33281
L4464 33330
L4440 33379
L4416 33403
L4367 33428
L4196 33428
" />
</g>
<g style="fill:#000000; fill-opacity:0.0; 
stroke:#000000; stroke-width:39.3701; stroke-opacity:1; 
stroke-linecap:round; stroke-linejoin:round;">
</g>
<g style="fill:#000000; fill-opacity:0.0; 
stroke:#000000; stroke-width:59.0551; stroke-opacity:1; 
stroke-linecap:round; stroke-linejoin:round;">
<text x="4330.71" y="53405.5"
textLength="570.866" font-size="682.415" lengthAdjust="spacingAndGlyphs"
text-anchor="middle" opacity="0">C</text>
<path d="M4489 53332
L4464 53356
L4391 53381
L4342 53381
L4269 53356
L4221 53308
L4196 53259
L4172 53161
L4172 53088
L4196 52991
L4221 52942
L4269 52893
L4342 52869
L4391 52869
L4464 52893
L4489 52918
" />
</g>
<g style="fill:#000000; fill-opacity:0.0; 
stroke:#000000; stroke-width:39.3701; stroke-opacity:1; 
stroke-linecap:round; stroke-linejoin:round;">
</g>
<g style="fill:#000000; fill-opacity:0.0; 
stroke:#000000; stroke-width:59.0551; stroke-opacity:1; 
stroke-linecap:round; stroke-linejoin:round;">
<text x="4330.71" y="73090.6"
textLength="570.866" font-size="682.415" lengthAdjust="spacingAndGlyphs"
text-anchor="middle" opacity="0">D</text>
<path d="M4196 73066
L4196 72554
L4318 72554
L4391 72578
L4440 72627
L4464 72676
L4489 72773
L4489 72846
L4464 72944
L4440 72993
L4391 73041
L4318 73066
L4196 73066
" />
</g>
<g style="fill:#000000; fill-opacity:0.0; 
stroke:#000000; stroke-width:39.3701; stroke-opacity:1; 
stroke-linecap:round; stroke-linejoin:round;">
</g>
<g style="fill:#000000; fill-opacity:0.0; 
stroke:#000000; stroke-width:59.0551; stroke-opacity:1; 
stroke-linecap:round; stroke-linejoin:round;">
<path d="M112992 23622
L112205 23622
" />
</g>
<g style="fill:#000000; fill-opacity:0.0; 
stroke:#000000; stroke-width:39.3701; stroke-opacity:1; 
stroke-linecap:round; stroke-linejoin:round;">
</g>
<g style="fill:#000000; fill-opacity:0.0; 
stroke:#000000; stroke-width:59.0551; stroke-opacity:1; 
stroke-linecap:round; stroke-linejoin:round;">
<path d="M112992 43307
L112205 43307
" />
</g>
<g style="fill:#000000; fill-opacity:0.0; 
stroke:#000000; stroke-width:39.3701; stroke-opacity:1; 
stroke-linecap:round; stroke-linejoin:round;">
</g>
<g style="fill:#000000; fill-opacity:0.0; 
stroke:#000000; stroke-width:59.0551; stroke-opacity:1; 
stroke-linecap:round; stroke-linejoin:round;">
<path d="M112992 62992
L112205 62992
" />
</g>
<g style="fill:#000000; fill-opacity:0.0; 
stroke:#000000; stroke-width:39.3701; stroke-opacity:1; 
stroke-linecap:round; stroke-linejoin:round;">
</g>
<g style="fill:#000000; fill-opacity:0.0; 
stroke:#000000; stroke-width:59.0551; stroke-opacity:1; 
stroke-linecap:round; stroke-linejoin:round;">
<text x="112599" y="14035.4"
textLength="497.75" font-size="682.415" lengthAdjust="spacingAndGlyphs"
text-anchor="middle" opacity="0">A</text>
<path d="M112477 13864
L112721 13864
" />
<path d="M112428 14011
L112599 13499
L112769 14011
" />
</g>
<g style="fill:#000000; fill-opacity:0.0; 
stroke:#000000; stroke-width:39.3701; stroke-opacity:1; 
stroke-linecap:round; stroke-linejoin:round;">
</g>
<g style="fill:#000000; fill-opacity:0.0; 
stroke:#000000; stroke-width:59.0551; stroke-opacity:1; 
stroke-linecap:round; stroke-linejoin:round;">
<text x="112599" y="33720.5"
textLength="570.866" font-size="682.415" lengthAdjust="spacingAndGlyphs"
text-anchor="middle" opacity="0">B</text>
<path d="M112635 33428
L112708 33452
L112733 33476
L112757 33525
L112757 33598
L112733 33647
L112708 33671
L112660 33696
L112465 33696
L112465 33184
L112635 33184
L112684 33208
L112708 33233
L112733 33281
L112733 33330
L112708 33379
L112684 33403
L112635 33428
L112465 33428
" />
</g>
<g style="fill:#000000; fill-opacity:0.0; 
stroke:#000000; stroke-width:39.3701; stroke-opacity:1; 
stroke-linecap:round; stroke-linejoin:round;">
</g>
<g style="fill:#000000; fill-opacity:0.0; 
stroke:#000000; stroke-width:59.0551; stroke-opacity:1; 
stroke-linecap:round; stroke-linejoin:round;">
<text x="112599" y="53405.5"
textLength="570.866" font-size="682.415" lengthAdjust="spacingAndGlyphs"
text-anchor="middle" opacity="0">C</text>
<path d="M112757 53332
L112733 53356
L112660 53381
L112611 53381
L112538 53356
L112489 53308
L112465 53259
L112440 53161
L112440 53088
L112465 52991
L112489 52942
L112538 52893
L112611 52869
L112660 52869
L112733 52893
L112757 52918
" />
</g>
<g style="fill:#000000; fill-opacity:0.0; 
stroke:#000000; stroke-width:39.3701; stroke-opacity:1; 
stroke-linecap:round; stroke-linejoin:round;">
</g>
<g style="fill:#000000; fill-opacity:0.0; 
stroke:#000000; stroke-width:59.0551; stroke-opacity:1; 
stroke-linecap:round; stroke-linejoin:round;">
<text x="112599" y="73090.6"
textLength="570.866" font-size="682.415" lengthAdjust="spacingAndGlyphs"
text-anchor="middle" opacity="0">D</text>
<path d="M112465 73066
L112465 72554
L112587 72554
L112660 72578
L112708 72627
L112733 72676
L112757 72773
L112757 72846
L112733 72944
L112708 72993
L112660 73041
L112587 73066
L112465 73066
" />
</g>
<g style="fill:#000000; fill-opacity:0.0; 
stroke:#000000; stroke-width:39.3701; stroke-opacity:1; 
stroke-linecap:round; stroke-linejoin:round;">
</g>
<g style="fill:#000000; fill-opacity:0.0; 
stroke:#000000; stroke-width:59.0551; stroke-opacity:1; 
stroke-linecap:round; stroke-linejoin:round;">
<text x="78741" y="76321.7"
textLength="2758.72" font-size="787.402" lengthAdjust="spacingAndGlyphs"
text-anchor="start" opacity="0">Date: </text>
<path d="M78911 76293
L78911 75703
L79051 75703
L79136 75731
L79192 75787
L79220 75843
L79248 75956
L79248 76040
L79220 76153
L79192 76209
L79136 76265
L79051 76293
L78911 76293
" />
<path d="M79754 76293
L79754 75984
L79726 75928
L79670 75899
L79557 75899
L79501 75928
" />
<path d="M79754 76265
L79698 76293
L79557 76293
L79501 76265
L79473 76209
L79473 76153
L79501 76096
L79557 76068
L79698 76068
L79754 76040
" />
<path d="M79951 75899
L80176 75899
" />
<path d="M80036 75703
L80036 76209
L80064 76265
L80120 76293
L80176 76293
" />
<path d="M80598 76265
L80542 76293
L80429 76293
L80373 76265
L80345 76209
L80345 75984
L80373 75928
L80429 75899
L80542 75899
L80598 75928
L80626 75984
L80626 76040
L80345 76096
" />
<path d="M80879 76237
L80907 76265
L80879 76293
L80851 76265
L80879 76237
L80879 76293
" />
<path d="M80879 75928
L80907 75956
L80879 75984
L80851 75956
L80879 75928
L80879 75984
" />
</g>
<g style="fill:#000000; fill-opacity:0.0; 
stroke:#000000; stroke-width:39.3701; stroke-opacity:1; 
stroke-linecap:round; stroke-linejoin:round;">
</g>
<g style="fill:#000000; fill-opacity:0.0; 
stroke:#000000; stroke-width:59.0551; stroke-opacity:1; 
stroke-linecap:round; stroke-linejoin:round;">
<path d="M69685 76577
L112205 76577
" />
</g>
<g style="fill:#000000; fill-opacity:0.0; 
stroke:#000000; stroke-width:39.3701; stroke-opacity:1; 
stroke-linecap:round; stroke-linejoin:round;">
</g>
<g style="fill:#000000; fill-opacity:0.0; 
stroke:#000000; stroke-width:59.0551; stroke-opacity:1; 
stroke-linecap:round; stroke-linejoin:round;">
<text x="70079.6" y="77424.1"
textLength="14991.6" font-size="787.402" lengthAdjust="spacingAndGlyphs"
text-anchor="start" opacity="0">KiCad E.D.A.  kicad 5.1.5-1.fc31</text>
<path d="M70249 77395
L70249 76805
" />
<path d="M70587 77395
L70334 77058
" />
<path d="M70587 76805
L70249 77142
" />
<path d="M70840 77395
L70840 77002
" />
<path d="M70840 76805
L70812 76833
L70840 76861
L70868 76833
L70840 76805
L70840 76861
" />
<path d="M71458 77339
L71430 77367
L71346 77395
L71290 77395
L71205 77367
L71149 77311
L71121 77255
L71093 77142
L71093 77058
L71121 76946
L71149 76889
L71205 76833
L71290 76805
L71346 76805
L71430 76833
L71458 76861
" />
<path d="M71965 77395
L71965 77086
L71937 77030
L71880 77002
L71768 77002
L71712 77030
" />
<path d="M71965 77367
L71908 77395
L71768 77395
L71712 77367
L71683 77311
L71683 77255
L71712 77199
L71768 77171
L71908 77171
L71965 77142
" />
<path d="M72499 77395
L72499 76805
" />
<path d="M72499 77367
L72443 77395
L72330 77395
L72274 77367
L72246 77339
L72218 77283
L72218 77114
L72246 77058
L72274 77030
L72330 77002
L72443 77002
L72499 77030
" />
<path d="M73230 77086
L73427 77086
" />
<path d="M73511 77395
L73230 77395
L73230 76805
L73511 76805
" />
<path d="M73764 77339
L73793 77367
L73764 77395
L73736 77367
L73764 77339
L73764 77395
" />
<path d="M74046 77395
L74046 76805
L74186 76805
L74271 76833
L74327 76889
L74355 76946
L74383 77058
L74383 77142
L74355 77255
L74327 77311
L74271 77367
L74186 77395
L74046 77395
" />
<path d="M74636 77339
L74664 77367
L74636 77395
L74608 77367
L74636 77339
L74636 77395
" />
<path d="M74889 77227
L75171 77227
" />
<path d="M74833 77395
L75030 76805
L75227 77395
" />
<path d="M75424 77339
L75452 77367
L75424 77395
L75395 77367
L75424 77339
L75424 77395
" />
<path d="M76605 77395
L76605 76805
" />
<path d="M76661 77171
L76830 77395
" />
<path d="M76830 77002
L76605 77227
" />
<path d="M77083 77395
L77083 77002
" />
<path d="M77083 76805
L77055 76833
L77083 76861
L77111 76833
L77083 76805
L77083 76861
" />
<path d="M77617 77367
L77561 77395
L77448 77395
L77392 77367
L77364 77339
L77336 77283
L77336 77114
L77364 77058
L77392 77030
L77448 77002
L77561 77002
L77617 77030
" />
<path d="M78123 77395
L78123 77086
L78095 77030
L78039 77002
L77926 77002
L77870 77030
" />
<path d="M78123 77367
L78067 77395
L77926 77395
L77870 77367
L77842 77311
L77842 77255
L77870 77199
L77926 77171
L78067 77171
L78123 77142
" />
<path d="M78658 77395
L78658 76805
" />
<path d="M78658 77367
L78601 77395
L78489 77395
L78433 77367
L78404 77339
L78376 77283
L78376 77114
L78404 77058
L78433 77030
L78489 77002
L78601 77002
L78658 77030
" />
<path d="M79670 76805
L79389 76805
L79361 77086
L79389 77058
L79445 77030
L79586 77030
L79642 77058
L79670 77086
L79698 77142
L79698 77283
L79670 77339
L79642 77367
L79586 77395
L79445 77395
L79389 77367
L79361 77339
" />
<path d="M79951 77339
L79979 77367
L79951 77395
L79923 77367
L79951 77339
L79951 77395
" />
<path d="M80542 77395
L80204 77395
" />
<path d="M80373 77395
L80373 76805
L80317 76889
L80260 76946
L80204 76974
" />
<path d="M80795 77339
L80823 77367
L80795 77395
L80767 77367
L80795 77339
L80795 77395
" />
<path d="M81357 76805
L81076 76805
L81048 77086
L81076 77058
L81132 77030
L81273 77030
L81329 77058
L81357 77086
L81385 77142
L81385 77283
L81357 77339
L81329 77367
L81273 77395
L81132 77395
L81076 77367
L81048 77339
" />
<path d="M81638 77171
L82088 77171
" />
<path d="M82679 77395
L82341 77395
" />
<path d="M82510 77395
L82510 76805
L82454 76889
L82398 76946
L82341 76974
" />
<path d="M82932 77339
L82960 77367
L82932 77395
L82904 77367
L82932 77339
L82932 77395
" />
<path d="M83129 77002
L83354 77002
" />
<path d="M83213 77395
L83213 76889
L83241 76833
L83298 76805
L83354 76805
" />
<path d="M83804 77367
L83748 77395
L83635 77395
L83579 77367
L83551 77339
L83523 77283
L83523 77114
L83551 77058
L83579 77030
L83635 77002
L83748 77002
L83804 77030
" />
<path d="M84001 76805
L84366 76805
L84169 77030
L84254 77030
L84310 77058
L84338 77086
L84366 77142
L84366 77283
L84338 77339
L84310 77367
L84254 77395
L84085 77395
L84029 77367
L84001 77339
" />
<path d="M84929 77395
L84591 77395
" />
<path d="M84760 77395
L84760 76805
L84704 76889
L84647 76946
L84591 76974
" />
</g>
<g style="fill:#000000; fill-opacity:0.0; 
stroke:#000000; stroke-width:39.3701; stroke-opacity:1; 
stroke-linecap:round; stroke-linejoin:round;">
</g>
<g style="fill:#000000; fill-opacity:0.0; 
stroke:#000000; stroke-width:59.0551; stroke-opacity:1; 
stroke-linecap:round; stroke-linejoin:round;">
<path d="M69685 75396
L112205 75396
" />
</g>
<g style="fill:#000000; fill-opacity:0.0; 
stroke:#000000; stroke-width:39.3701; stroke-opacity:1; 
stroke-linecap:round; stroke-linejoin:round;">
</g>
<g style="fill:#000000; fill-opacity:0.0; 
stroke:#000000; stroke-width:118.11; stroke-opacity:1; 
stroke-linecap:round; stroke-linejoin:round;">
<text x="103544" y="76321.7"
textLength="2336.9" font-size="787.402" lengthAdjust="spacingAndGlyphs"
text-anchor="start" opacity="0">Rev: </text>
<path d="M104099 76293
L103902 76012
" />
<path d="M103761 76293
L103761 75703
L103986 75703
L104042 75731
L104070 75759
L104099 75815
L104099 75899
L104070 75956
L104042 75984
L103986 76012
L103761 76012
" />
<path d="M104577 76265
L104520 76293
L104408 76293
L104352 76265
L104323 76209
L104323 75984
L104352 75928
L104408 75899
L104520 75899
L104577 75928
L104605 75984
L104605 76040
L104323 76096
" />
<path d="M104802 75899
L104942 76293
L105083 75899
" />
<path d="M105308 76237
L105336 76265
L105308 76293
L105280 76265
L105308 76237
L105308 76293
" />
<path d="M105308 75928
L105336 75956
L105308 75984
L105280 75956
L105308 75928
L105308 75984
" />
</g>
<g style="fill:#000000; fill-opacity:0.0; 
stroke:#000000; stroke-width:39.3701; stroke-opacity:1; 
stroke-linecap:round; stroke-linejoin:round;">
</g>
<g style="fill:#000000; fill-opacity:0.0; 
stroke:#000000; stroke-width:59.0551; stroke-opacity:1; 
stroke-linecap:round; stroke-linejoin:round;">
<text x="70079.6" y="76321.7"
textLength="3781.21" font-size="787.402" lengthAdjust="spacingAndGlyphs"
text-anchor="start" opacity="0">Size: A4</text>
<path d="M70221 76265
L70305 76293
L70446 76293
L70502 76265
L70530 76237
L70559 76181
L70559 76124
L70530 76068
L70502 76040
L70446 76012
L70334 75984
L70277 75956
L70249 75928
L70221 75871
L70221 75815
L70249 75759
L70277 75731
L70334 75703
L70474 75703
L70559 75731
" />
<path d="M70812 76293
L70812 75899
" />
<path d="M70812 75703
L70784 75731
L70812 75759
L70840 75731
L70812 75703
L70812 75759
" />
<path d="M71037 75899
L71346 75899
L71037 76293
L71346 76293
" />
<path d="M71796 76265
L71740 76293
L71627 76293
L71571 76265
L71543 76209
L71543 75984
L71571 75928
L71627 75899
L71740 75899
L71796 75928
L71824 75984
L71824 76040
L71543 76096
" />
<path d="M72077 76237
L72105 76265
L72077 76293
L72049 76265
L72077 76237
L72077 76293
" />
<path d="M72077 75928
L72105 75956
L72077 75984
L72049 75956
L72077 75928
L72077 75984
" />
<path d="M72780 76124
L73061 76124
" />
<path d="M72724 76293
L72921 75703
L73118 76293
" />
<path d="M73568 75899
L73568 76293
" />
<path d="M73427 75674
L73286 76096
L73652 76096
" />
</g>
<g style="fill:#000000; fill-opacity:0.0; 
stroke:#000000; stroke-width:39.3701; stroke-opacity:1; 
stroke-linecap:round; stroke-linejoin:round;">
</g>
<g style="fill:#000000; fill-opacity:0.0; 
stroke:#000000; stroke-width:59.0551; stroke-opacity:1; 
stroke-linecap:round; stroke-linejoin:round;">
<text x="103544" y="77424.1"
textLength="3349.27" font-size="787.402" lengthAdjust="spacingAndGlyphs"
text-anchor="start" opacity="0">Id: 1/1</text>
<path d="M103714 77395
L103714 76805
" />
<path d="M104248 77395
L104248 76805
" />
<path d="M104248 77367
L104192 77395
L104079 77395
L104023 77367
L103995 77339
L103967 77283
L103967 77114
L103995 77058
L104023 77030
L104079 77002
L104192 77002
L104248 77030
" />
<path d="M104529 77339
L104557 77367
L104529 77395
L104501 77367
L104529 77339
L104529 77395
" />
<path d="M104529 77030
L104557 77058
L104529 77086
L104501 77058
L104529 77030
L104529 77086
" />
<path d="M105570 77395
L105232 77395
" />
<path d="M105401 77395
L105401 76805
L105345 76889
L105289 76946
L105232 76974
" />
<path d="M106245 76777
L105739 77536
" />
<path d="M106751 77395
L106413 77395
" />
<path d="M106582 77395
L106582 76805
L106526 76889
L106470 76946
L106413 76974
" />
</g>
<g style="fill:#000000; fill-opacity:0.0; 
stroke:#000000; stroke-width:39.3701; stroke-opacity:1; 
stroke-linecap:round; stroke-linejoin:round;">
</g>
<g style="fill:#000000; fill-opacity:0.0; 
stroke:#000000; stroke-width:59.0551; stroke-opacity:1; 
stroke-linecap:round; stroke-linejoin:round;">
<path d="M69685 73821
L112205 73821
" />
</g>
<g style="fill:#000000; fill-opacity:0.0; 
stroke:#000000; stroke-width:39.3701; stroke-opacity:1; 
stroke-linecap:round; stroke-linejoin:round;">
</g>
<g style="fill:#000000; fill-opacity:0.0; 
stroke:#000000; stroke-width:157.48; stroke-opacity:1; 
stroke-linecap:round; stroke-linejoin:round;">
<text x="70079.6" y="74924.1"
textLength="3701.14" font-size="1049.87" lengthAdjust="spacingAndGlyphs"
text-anchor="start" opacity="0">Title: </text>
<path d="M70360 74099
L70810 74099
" />
<path d="M70486 74886
L70585 74099
" />
<path d="M70974 74886
L71039 74361
" />
<path d="M71072 74099
L71030 74136
L71063 74174
L71105 74136
L71072 74099
L71063 74174
" />
<path d="M71302 74361
L71602 74361
" />
<path d="M71447 74099
L71363 74774
L71391 74849
L71461 74886
L71536 74886
" />
<path d="M71911 74886
L71841 74849
L71813 74774
L71897 74099
" />
<path d="M72516 74849
L72436 74886
L72286 74886
L72216 74849
L72187 74774
L72225 74474
L72272 74399
L72352 74361
L72501 74361
L72572 74399
L72600 74474
L72591 74549
L72206 74624
" />
<path d="M72895 74811
L72928 74849
L72886 74886
L72853 74849
L72895 74811
L72886 74886
" />
<path d="M72947 74399
L72980 74436
L72937 74474
L72905 74436
L72947 74399
L72937 74474
" />
</g>
<g style="fill:#000000; fill-opacity:0.0; 
stroke:#000000; stroke-width:39.3701; stroke-opacity:1; 
stroke-linecap:round; stroke-linejoin:round;">
</g>
<g style="fill:#000000; fill-opacity:0.0; 
stroke:#000000; stroke-width:59.0551; stroke-opacity:1; 
stroke-linecap:round; stroke-linejoin:round;">
<text x="70079.6" y="73408.3"
textLength="28860.5" font-size="787.402" lengthAdjust="spacingAndGlyphs"
text-anchor="start" opacity="0">File: AR_A60_PA_25502_Issue8_v8.01_Stereo_Compact.kicad_pcb</text>
<path d="M70446 73070
L70249 73070
" />
<path d="M70249 73380
L70249 72789
L70530 72789
" />
<path d="M70755 73380
L70755 72986
" />
<path d="M70755 72789
L70727 72817
L70755 72845
L70784 72817
L70755 72789
L70755 72845
" />
<path d="M71121 73380
L71065 73352
L71037 73295
L71037 72789
" />
<path d="M71571 73352
L71515 73380
L71402 73380
L71346 73352
L71318 73295
L71318 73070
L71346 73014
L71402 72986
L71515 72986
L71571 73014
L71599 73070
L71599 73127
L71318 73183
" />
<path d="M71852 73323
L71880 73352
L71852 73380
L71824 73352
L71852 73323
L71852 73380
" />
<path d="M71852 73014
L71880 73042
L71852 73070
L71824 73042
L71852 73014
L71852 73070
" />
<path d="M72555 73211
L72836 73211
" />
<path d="M72499 73380
L72696 72789
L72893 73380
" />
<path d="M73427 73380
L73230 73099
" />
<path d="M73090 73380
L73090 72789
L73314 72789
L73371 72817
L73399 72845
L73427 72902
L73427 72986
L73399 73042
L73371 73070
L73314 73099
L73090 73099
" />
<path d="M73539 73436
L73989 73436
" />
<path d="M74102 73211
L74383 73211
" />
<path d="M74046 73380
L74242 72789
L74439 73380
" />
<path d="M74889 72789
L74777 72789
L74721 72817
L74692 72845
L74636 72930
L74608 73042
L74608 73267
L74636 73323
L74664 73352
L74721 73380
L74833 73380
L74889 73352
L74917 73323
L74946 73267
L74946 73127
L74917 73070
L74889 73042
L74833 73014
L74721 73014
L74664 73042
L74636 73070
L74608 73127
" />
<path d="M75311 72789
L75367 72789
L75424 72817
L75452 72845
L75480 72902
L75508 73014
L75508 73155
L75480 73267
L75452 73323
L75424 73352
L75367 73380
L75311 73380
L75255 73352
L75227 73323
L75199 73267
L75171 73155
L75171 73014
L75199 72902
L75227 72845
L75255 72817
L75311 72789
" />
<path d="M75620 73436
L76070 73436
" />
<path d="M76211 73380
L76211 72789
L76436 72789
L76492 72817
L76520 72845
L76548 72902
L76548 72986
L76520 73042
L76492 73070
L76436 73099
L76211 73099
" />
<path d="M76773 73211
L77055 73211
" />
<path d="M76717 73380
L76914 72789
L77111 73380
" />
<path d="M77167 73436
L77617 73436
" />
<path d="M77730 72845
L77758 72817
L77814 72789
L77955 72789
L78011 72817
L78039 72845
L78067 72902
L78067 72958
L78039 73042
L77701 73380
L78067 73380
" />
<path d="M78601 72789
L78320 72789
L78292 73070
L78320 73042
L78376 73014
L78517 73014
L78573 73042
L78601 73070
L78629 73127
L78629 73267
L78601 73323
L78573 73352
L78517 73380
L78376 73380
L78320 73352
L78292 73323
" />
<path d="M79164 72789
L78883 72789
L78854 73070
L78883 73042
L78939 73014
L79079 73014
L79136 73042
L79164 73070
L79192 73127
L79192 73267
L79164 73323
L79136 73352
L79079 73380
L78939 73380
L78883 73352
L78854 73323
" />
<path d="M79557 72789
L79614 72789
L79670 72817
L79698 72845
L79726 72902
L79754 73014
L79754 73155
L79726 73267
L79698 73323
L79670 73352
L79614 73380
L79557 73380
L79501 73352
L79473 73323
L79445 73267
L79417 73155
L79417 73014
L79445 72902
L79473 72845
L79501 72817
L79557 72789
" />
<path d="M79979 72845
L80007 72817
L80064 72789
L80204 72789
L80260 72817
L80289 72845
L80317 72902
L80317 72958
L80289 73042
L79951 73380
L80317 73380
" />
<path d="M80429 73436
L80879 73436
" />
<path d="M81020 73380
L81020 72789
" />
<path d="M81273 73352
L81329 73380
L81442 73380
L81498 73352
L81526 73295
L81526 73267
L81498 73211
L81442 73183
L81357 73183
L81301 73155
L81273 73099
L81273 73070
L81301 73014
L81357 72986
L81442 72986
L81498 73014
" />
<path d="M81751 73352
L81807 73380
L81920 73380
L81976 73352
L82004 73295
L82004 73267
L81976 73211
L81920 73183
L81835 73183
L81779 73155
L81751 73099
L81751 73070
L81779 73014
L81835 72986
L81920 72986
L81976 73014
" />
<path d="M82510 72986
L82510 73380
" />
<path d="M82257 72986
L82257 73295
L82285 73352
L82341 73380
L82426 73380
L82482 73352
L82510 73323
" />
<path d="M83016 73352
L82960 73380
L82848 73380
L82791 73352
L82763 73295
L82763 73070
L82791 73014
L82848 72986
L82960 72986
L83016 73014
L83045 73070
L83045 73127
L82763 73183
" />
<path d="M83382 73042
L83326 73014
L83298 72986
L83269 72930
L83269 72902
L83298 72845
L83326 72817
L83382 72789
L83494 72789
L83551 72817
L83579 72845
L83607 72902
L83607 72930
L83579 72986
L83551 73014
L83494 73042
L83382 73042
L83326 73070
L83298 73099
L83269 73155
L83269 73267
L83298 73323
L83326 73352
L83382 73380
L83494 73380
L83551 73352
L83579 73323
L83607 73267
L83607 73155
L83579 73099
L83551 73070
L83494 73042
" />
<path d="M83719 73436
L84169 73436
" />
<path d="M84254 72986
L84394 73380
L84535 72986
" />
<path d="M84844 73042
L84788 73014
L84760 72986
L84732 72930
L84732 72902
L84760 72845
L84788 72817
L84844 72789
L84957 72789
L85013 72817
L85041 72845
L85069 72902
L85069 72930
L85041 72986
L85013 73014
L84957 73042
L84844 73042
L84788 73070
L84760 73099
L84732 73155
L84732 73267
L84760 73323
L84788 73352
L84844 73380
L84957 73380
L85013 73352
L85041 73323
L85069 73267
L85069 73155
L85041 73099
L85013 73070
L84957 73042
" />
<path d="M85322 73323
L85350 73352
L85322 73380
L85294 73352
L85322 73323
L85322 73380
" />
<path d="M85716 72789
L85772 72789
L85829 72817
L85857 72845
L85885 72902
L85913 73014
L85913 73155
L85885 73267
L85857 73323
L85829 73352
L85772 73380
L85716 73380
L85660 73352
L85632 73323
L85604 73267
L85575 73155
L85575 73014
L85604 72902
L85632 72845
L85660 72817
L85716 72789
" />
<path d="M86475 73380
L86138 73380
" />
<path d="M86307 73380
L86307 72789
L86250 72874
L86194 72930
L86138 72958
" />
<path d="M86588 73436
L87038 73436
" />
<path d="M87150 73352
L87235 73380
L87375 73380
L87431 73352
L87460 73323
L87488 73267
L87488 73211
L87460 73155
L87431 73127
L87375 73099
L87263 73070
L87206 73042
L87178 73014
L87150 72958
L87150 72902
L87178 72845
L87206 72817
L87263 72789
L87403 72789
L87488 72817
" />
<path d="M87656 72986
L87881 72986
" />
<path d="M87741 72789
L87741 73295
L87769 73352
L87825 73380
L87881 73380
" />
<path d="M88303 73352
L88247 73380
L88135 73380
L88078 73352
L88050 73295
L88050 73070
L88078 73014
L88135 72986
L88247 72986
L88303 73014
L88331 73070
L88331 73127
L88050 73183
" />
<path d="M88584 73380
L88584 72986
" />
<path d="M88584 73099
L88613 73042
L88641 73014
L88697 72986
L88753 72986
" />
<path d="M89175 73352
L89119 73380
L89006 73380
L88950 73352
L88922 73295
L88922 73070
L88950 73014
L89006 72986
L89119 72986
L89175 73014
L89203 73070
L89203 73127
L88922 73183
" />
<path d="M89541 73380
L89484 73352
L89456 73323
L89428 73267
L89428 73099
L89456 73042
L89484 73014
L89541 72986
L89625 72986
L89681 73014
L89709 73042
L89737 73099
L89737 73267
L89709 73323
L89681 73352
L89625 73380
L89541 73380
" />
<path d="M89850 73436
L90300 73436
" />
<path d="M90778 73323
L90750 73352
L90665 73380
L90609 73380
L90525 73352
L90469 73295
L90440 73239
L90412 73127
L90412 73042
L90440 72930
L90469 72874
L90525 72817
L90609 72789
L90665 72789
L90750 72817
L90778 72845
" />
<path d="M91115 73380
L91059 73352
L91031 73323
L91003 73267
L91003 73099
L91031 73042
L91059 73014
L91115 72986
L91200 72986
L91256 73014
L91284 73042
L91312 73099
L91312 73267
L91284 73323
L91256 73352
L91200 73380
L91115 73380
" />
<path d="M91565 73380
L91565 72986
" />
<path d="M91565 73042
L91593 73014
L91650 72986
L91734 72986
L91790 73014
L91818 73070
L91818 73380
" />
<path d="M91818 73070
L91847 73014
L91903 72986
L91987 72986
L92043 73014
L92072 73070
L92072 73380
" />
<path d="M92353 72986
L92353 73577
" />
<path d="M92353 73014
L92409 72986
L92521 72986
L92578 73014
L92606 73042
L92634 73099
L92634 73267
L92606 73323
L92578 73352
L92521 73380
L92409 73380
L92353 73352
" />
<path d="M93140 73380
L93140 73070
L93112 73014
L93056 72986
L92943 72986
L92887 73014
" />
<path d="M93140 73352
L93084 73380
L92943 73380
L92887 73352
L92859 73295
L92859 73239
L92887 73183
L92943 73155
L93084 73155
L93140 73127
" />
<path d="M93674 73352
L93618 73380
L93506 73380
L93449 73352
L93421 73323
L93393 73267
L93393 73099
L93421 73042
L93449 73014
L93506 72986
L93618 72986
L93674 73014
" />
<path d="M93843 72986
L94068 72986
" />
<path d="M93928 72789
L93928 73295
L93956 73352
L94012 73380
L94068 73380
" />
<path d="M94265 73323
L94293 73352
L94265 73380
L94237 73352
L94265 73323
L94265 73380
" />
<path d="M94546 73380
L94546 72789
" />
<path d="M94602 73155
L94771 73380
" />
<path d="M94771 72986
L94546 73211
" />
<path d="M95024 73380
L95024 72986
" />
<path d="M95024 72789
L94996 72817
L95024 72845
L95052 72817
L95024 72789
L95024 72845
" />
<path d="M95559 73352
L95502 73380
L95390 73380
L95334 73352
L95305 73323
L95277 73267
L95277 73099
L95305 73042
L95334 73014
L95390 72986
L95502 72986
L95559 73014
" />
<path d="M96065 73380
L96065 73070
L96037 73014
L95980 72986
L95868 72986
L95812 73014
" />
<path d="M96065 73352
L96009 73380
L95868 73380
L95812 73352
L95784 73295
L95784 73239
L95812 73183
L95868 73155
L96009 73155
L96065 73127
" />
<path d="M96599 73380
L96599 72789
" />
<path d="M96599 73352
L96543 73380
L96430 73380
L96374 73352
L96346 73323
L96318 73267
L96318 73099
L96346 73042
L96374 73014
L96430 72986
L96543 72986
L96599 73014
" />
<path d="M96740 73436
L97190 73436
" />
<path d="M97330 72986
L97330 73577
" />
<path d="M97330 73014
L97386 72986
L97499 72986
L97555 73014
L97583 73042
L97611 73099
L97611 73267
L97583 73323
L97555 73352
L97499 73380
L97386 73380
L97330 73352
" />
<path d="M98118 73352
L98061 73380
L97949 73380
L97893 73352
L97865 73323
L97836 73267
L97836 73099
L97865 73042
L97893 73014
L97949 72986
L98061 72986
L98118 73014
" />
<path d="M98371 73380
L98371 72789
" />
<path d="M98371 73014
L98427 72986
L98539 72986
L98596 73014
L98624 73042
L98652 73099
L98652 73267
L98624 73323
L98596 73352
L98539 73380
L98427 73380
L98371 73352
" />
</g>
<g style="fill:#000000; fill-opacity:0.0; 
stroke:#000000; stroke-width:39.3701; stroke-opacity:1; 
stroke-linecap:round; stroke-linejoin:round;">
</g>
<g style="fill:#000000; fill-opacity:0.0; 
stroke:#000000; stroke-width:59.0551; stroke-opacity:1; 
stroke-linecap:round; stroke-linejoin:round;">
<path d="M69685 71459
L112205 71459
" />
</g>
<g style="fill:#000000; fill-opacity:0.0; 
stroke:#000000; stroke-width:39.3701; stroke-opacity:1; 
stroke-linecap:round; stroke-linejoin:round;">
</g>
<g style="fill:#000000; fill-opacity:0.0; 
stroke:#000000; stroke-width:59.0551; stroke-opacity:1; 
stroke-linecap:round; stroke-linejoin:round;">
<text x="70079.6" y="72345.4"
textLength="3236.78" font-size="787.402" lengthAdjust="spacingAndGlyphs"
text-anchor="start" opacity="0">Sheet: </text>
<path d="M70221 72289
L70305 72317
L70446 72317
L70502 72289
L70530 72260
L70559 72204
L70559 72148
L70530 72092
L70502 72064
L70446 72036
L70334 72007
L70277 71979
L70249 71951
L70221 71895
L70221 71839
L70249 71782
L70277 71754
L70334 71726
L70474 71726
L70559 71754
" />
<path d="M70812 72317
L70812 71726
" />
<path d="M71065 72317
L71065 72007
L71037 71951
L70980 71923
L70896 71923
L70840 71951
L70812 71979
" />
<path d="M71571 72289
L71515 72317
L71402 72317
L71346 72289
L71318 72232
L71318 72007
L71346 71951
L71402 71923
L71515 71923
L71571 71951
L71599 72007
L71599 72064
L71318 72120
" />
<path d="M72077 72289
L72021 72317
L71908 72317
L71852 72289
L71824 72232
L71824 72007
L71852 71951
L71908 71923
L72021 71923
L72077 71951
L72105 72007
L72105 72064
L71824 72120
" />
<path d="M72274 71923
L72499 71923
" />
<path d="M72358 71726
L72358 72232
L72386 72289
L72443 72317
L72499 72317
" />
<path d="M72696 72260
L72724 72289
L72696 72317
L72668 72289
L72696 72260
L72696 72317
" />
<path d="M72696 71951
L72724 71979
L72696 72007
L72668 71979
L72696 71951
L72696 72007
" />
</g>
<g style="fill:#000000; fill-opacity:0.0; 
stroke:#000000; stroke-width:39.3701; stroke-opacity:1; 
stroke-linecap:round; stroke-linejoin:round;">
</g>
<g style="fill:#000000; fill-opacity:0.0; 
stroke:#000000; stroke-width:59.0551; stroke-opacity:1; 
stroke-linecap:round; stroke-linejoin:round;">
<path d="M77559 75396
L77559 76577
" />
</g>
<g style="fill:#000000; fill-opacity:0.0; 
stroke:#000000; stroke-width:39.3701; stroke-opacity:1; 
stroke-linecap:round; stroke-linejoin:round;">
</g>
<g style="fill:#000000; fill-opacity:0.0; 
stroke:#000000; stroke-width:59.0551; stroke-opacity:1; 
stroke-linecap:round; stroke-linejoin:round;">
<path d="M102756 75396
L102756 77955
" />
</g>
<g style="fill:#C2C2C2; fill-opacity:0.0; 
stroke:#C2C2C2; stroke-width:59.0551; stroke-opacity:1; 
stroke-linecap:round; stroke-linejoin:round;">
<text x="43685" y="60378.7"
textLength="3471.13" font-size="524.934" lengthAdjust="spacingAndGlyphs"
text-anchor="middle" opacity="0">80.000 mm</text>
<path d="M42128 60135
L42091 60116
L42072 60097
L42053 60060
L42053 60041
L42072 60003
L42091 59985
L42128 59966
L42203 59966
L42241 59985
L42260 60003
L42278 60041
L42278 60060
L42260 60097
L42241 60116
L42203 60135
L42128 60135
L42091 60153
L42072 60172
L42053 60210
L42053 60285
L42072 60322
L42091 60341
L42128 60359
L42203 60359
L42241 60341
L42260 60322
L42278 60285
L42278 60210
L42260 60172
L42241 60153
L42203 60135
" />
<path d="M42522 59966
L42560 59966
L42597 59985
L42616 60003
L42635 60041
L42653 60116
L42653 60210
L42635 60285
L42616 60322
L42597 60341
L42560 60359
L42522 60359
L42485 60341
L42466 60322
L42447 60285
L42428 60210
L42428 60116
L42447 60041
L42466 60003
L42485 59985
L42522 59966
" />
<path d="M42822 60322
L42841 60341
L42822 60359
L42803 60341
L42822 60322
L42822 60359
" />
<path d="M43085 59966
L43122 59966
L43160 59985
L43178 60003
L43197 60041
L43216 60116
L43216 60210
L43197 60285
L43178 60322
L43160 60341
L43122 60359
L43085 60359
L43047 60341
L43028 60322
L43010 60285
L42991 60210
L42991 60116
L43010 60041
L43028 60003
L43047 59985
L43085 59966
" />
<path d="M43460 59966
L43497 59966
L43535 59985
L43553 60003
L43572 60041
L43591 60116
L43591 60210
L43572 60285
L43553 60322
L43535 60341
L43497 60359
L43460 60359
L43422 60341
L43403 60322
L43385 60285
L43366 60210
L43366 60116
L43385 60041
L43403 60003
L43422 59985
L43460 59966
" />
<path d="M43835 59966
L43872 59966
L43910 59985
L43928 60003
L43947 60041
L43966 60116
L43966 60210
L43947 60285
L43928 60322
L43910 60341
L43872 60359
L43835 60359
L43797 60341
L43778 60322
L43760 60285
L43741 60210
L43741 60116
L43760 60041
L43778 60003
L43797 59985
L43835 59966
" />
<path d="M44434 60359
L44434 60097
" />
<path d="M44434 60135
L44453 60116
L44491 60097
L44547 60097
L44584 60116
L44603 60153
L44603 60359
" />
<path d="M44603 60153
L44622 60116
L44659 60097
L44716 60097
L44753 60116
L44772 60153
L44772 60359
" />
<path d="M44959 60359
L44959 60097
" />
<path d="M44959 60135
L44978 60116
L45016 60097
L45072 60097
L45109 60116
L45128 60153
L45128 60359
" />
<path d="M45128 60153
L45147 60116
L45184 60097
L45241 60097
L45278 60116
L45297 60153
L45297 60359
" />
<path d="M27937 59670
L59433 59670
" />
<path d="M27937 55733
L27937 59900
" />
<path d="M59433 55733
L59433 59900
" />
<path d="M59433 59670
L58989 59900
" />
<path d="M59433 59670
L58989 59439
" />
<path d="M27937 59670
L28380 59900
" />
<path d="M27937 59670
L28380 59439
" />
<g transform="rotate(-359.945 58639.5 62120.9)">
<text x="58639.5" y="62317.7"
textLength="3863.8" font-size="524.934" lengthAdjust="spacingAndGlyphs"
text-anchor="middle" opacity="0">156.000 mm</text>
</g>
<path d="M57045 62297
L56820 62297
" />
<path d="M56933 62297
L56933 61903
L56896 61959
L56858 61997
L56821 62015
" />
<path d="M57402 61904
L57214 61903
L57195 62091
L57214 62072
L57252 62053
L57345 62053
L57383 62072
L57402 62091
L57420 62129
L57420 62222
L57402 62260
L57383 62279
L57345 62297
L57252 62297
L57214 62278
L57195 62260
" />
<path d="M57758 61904
L57683 61904
L57646 61923
L57627 61941
L57589 61997
L57570 62072
L57570 62222
L57589 62260
L57608 62279
L57645 62298
L57720 62298
L57758 62279
L57776 62260
L57795 62223
L57795 62129
L57777 62091
L57758 62073
L57720 62054
L57645 62054
L57608 62072
L57589 62091
L57570 62129
" />
<path d="M57964 62260
L57983 62279
L57964 62298
L57945 62279
L57964 62260
L57964 62298
" />
<path d="M58227 61904
L58264 61904
L58302 61923
L58320 61942
L58339 61979
L58358 62054
L58358 62148
L58339 62223
L58320 62261
L58301 62279
L58264 62298
L58226 62298
L58189 62279
L58170 62261
L58151 62223
L58133 62148
L58133 62054
L58152 61979
L58170 61942
L58189 61923
L58227 61904
" />
<path d="M58602 61905
L58639 61905
L58677 61924
L58695 61942
L58714 61980
L58733 62055
L58733 62149
L58714 62224
L58695 62261
L58676 62280
L58639 62298
L58601 62298
L58564 62280
L58545 62261
L58526 62223
L58508 62148
L58508 62055
L58527 61980
L58545 61942
L58564 61923
L58602 61905
" />
<path d="M58977 61905
L59014 61905
L59052 61924
L59070 61943
L59089 61980
L59108 62055
L59108 62149
L59089 62224
L59070 62261
L59051 62280
L59014 62299
L58976 62299
L58939 62280
L58920 62261
L58901 62224
L58883 62149
L58883 62055
L58902 61980
L58920 61943
L58939 61924
L58977 61905
" />
<path d="M59576 62299
L59576 62037
" />
<path d="M59576 62074
L59595 62056
L59633 62037
L59689 62037
L59726 62056
L59745 62093
L59745 62300
" />
<path d="M59745 62093
L59764 62056
L59801 62037
L59858 62037
L59895 62056
L59914 62093
L59914 62300
" />
<path d="M60101 62300
L60101 62037
" />
<path d="M60101 62075
L60120 62056
L60158 62037
L60214 62038
L60251 62056
L60270 62094
L60270 62300
" />
<path d="M60270 62094
L60289 62056
L60326 62038
L60383 62038
L60420 62056
L60439 62094
L60439 62300
" />
<path d="M27931 61579
L89348 61638
" />
<path d="M27937 55674
L27931 61810
" />
<path d="M89354 55733
L89348 61869
" />
<path d="M89348 61638
L88904 61869
" />
<path d="M89348 61638
L88905 61407
" />
<path d="M27931 61579
L28374 61810
" />
<path d="M27931 61579
L28375 61349
" />
<text x="28724.4" y="58016.5"
textLength="3113.89" font-size="524.934" lengthAdjust="spacingAndGlyphs"
text-anchor="middle" opacity="0">4.000 mm</text>
<path d="M27468 57735
L27468 57997
" />
<path d="M27374 57585
L27280 57866
L27524 57866
" />
<path d="M27674 57960
L27693 57979
L27674 57997
L27655 57979
L27674 57960
L27674 57997
" />
<path d="M27937 57604
L27974 57604
L28011 57622
L28030 57641
L28049 57679
L28068 57754
L28068 57847
L28049 57922
L28030 57960
L28011 57979
L27974 57997
L27937 57997
L27899 57979
L27880 57960
L27862 57922
L27843 57847
L27843 57754
L27862 57679
L27880 57641
L27899 57622
L27937 57604
" />
<path d="M28311 57604
L28349 57604
L28386 57622
L28405 57641
L28424 57679
L28443 57754
L28443 57847
L28424 57922
L28405 57960
L28386 57979
L28349 57997
L28311 57997
L28274 57979
L28255 57960
L28236 57922
L28218 57847
L28218 57754
L28236 57679
L28255 57641
L28274 57622
L28311 57604
" />
<path d="M28686 57604
L28724 57604
L28761 57622
L28780 57641
L28799 57679
L28818 57754
L28818 57847
L28799 57922
L28780 57960
L28761 57979
L28724 57997
L28686 57997
L28649 57979
L28630 57960
L28611 57922
L28593 57847
L28593 57754
L28611 57679
L28630 57641
L28649 57622
L28686 57604
" />
<path d="M29286 57997
L29286 57735
" />
<path d="M29286 57772
L29305 57754
L29343 57735
L29399 57735
L29436 57754
L29455 57791
L29455 57997
" />
<path d="M29455 57791
L29474 57754
L29511 57735
L29568 57735
L29605 57754
L29624 57791
L29624 57997
" />
<path d="M29811 57997
L29811 57735
" />
<path d="M29811 57772
L29830 57754
L29868 57735
L29924 57735
L29961 57754
L29980 57791
L29980 57997
" />
<path d="M29980 57791
L29999 57754
L30036 57735
L30092 57735
L30130 57754
L30149 57791
L30149 57997
" />
<path d="M27937 57307
L29511 57307
" />
<path d="M27937 55733
L27937 57538
" />
<path d="M29511 55733
L29511 57538
" />
<path d="M29511 57307
L29068 57538
" />
<path d="M29511 57307
L29068 57076
" />
<path d="M27937 57307
L28380 57538
" />
<path d="M27937 57307
L28380 57076
" />
<g transform="rotate(-270 25850.4 35457.5)">
<text x="25850.4" y="35654.3"
textLength="3488.85" font-size="524.934" lengthAdjust="spacingAndGlyphs"
text-anchor="middle" opacity="0">97.000 mm</text>
</g>
<path d="M25672 33863
L25672 33938
L25691 33976
L25709 33995
L25766 34032
L25841 34051
L25991 34051
L26028 34032
L26047 34013
L26065 33976
L26065 33901
L26047 33863
L26028 33845
L25991 33826
L25897 33826
L25859 33845
L25841 33863
L25822 33901
L25822 33976
L25841 34013
L25859 34032
L25897 34051
" />
<path d="M26065 34182
L26065 34445
L25672 34276
" />
<path d="M25709 34595
L25691 34613
L25672 34595
L25691 34576
L25709 34595
L25672 34595
" />
<path d="M26065 34857
L26065 34895
L26047 34932
L26028 34951
L25991 34970
L25916 34988
L25822 34988
L25747 34970
L25709 34951
L25691 34932
L25672 34895
L25672 34857
L25691 34820
L25709 34801
L25747 34782
L25822 34763
L25916 34763
L25991 34782
L26028 34801
L26047 34820
L26065 34857
" />
<path d="M26065 35232
L26065 35270
L26047 35307
L26028 35326
L25991 35344
L25916 35363
L25822 35363
L25747 35344
L25709 35326
L25691 35307
L25672 35270
L25672 35232
L25691 35195
L25709 35176
L25747 35157
L25822 35138
L25916 35138
L25991 35157
L26028 35176
L26047 35195
L26065 35232
" />
<path d="M26065 35607
L26065 35644
L26047 35682
L26028 35701
L25991 35719
L25916 35738
L25822 35738
L25747 35719
L25709 35701
L25691 35682
L25672 35644
L25672 35607
L25691 35569
L25709 35551
L25747 35532
L25822 35513
L25916 35513
L25991 35532
L26028 35551
L26047 35569
L26065 35607
" />
<path d="M25672 36207
L25934 36207
" />
<path d="M25897 36207
L25916 36226
L25934 36263
L25934 36319
L25916 36357
L25878 36376
L25672 36376
" />
<path d="M25878 36376
L25916 36394
L25934 36432
L25934 36488
L25916 36526
L25878 36544
L25672 36544
" />
<path d="M25672 36732
L25934 36732
" />
<path d="M25897 36732
L25916 36751
L25934 36788
L25934 36844
L25916 36882
L25878 36901
L25672 36901
" />
<path d="M25878 36901
L25916 36919
L25934 36957
L25934 37013
L25916 37051
L25878 37069
L25672 37069
" />
<path d="M26362 16362
L26362 54551
" />
<path d="M27937 16362
L26131 16362
" />
<path d="M27937 54551
L26131 54551
" />
<path d="M26362 54551
L26131 54108
" />
<path d="M26362 54551
L26593 54108
" />
<path d="M26362 16362
L26131 16806
" />
<path d="M26362 16362
L26593 16806
" />
<g transform="rotate(-270 25850.4 17150.4)">
<text x="25850.4" y="17347.2"
textLength="3113.89" font-size="524.934" lengthAdjust="spacingAndGlyphs"
text-anchor="middle" opacity="0">4.000 mm</text>
</g>
<path d="M25934 15894
L25672 15894
" />
<path d="M26084 15800
L25803 15706
L25803 15950
" />
<path d="M25709 16100
L25691 16119
L25672 16100
L25691 16081
L25709 16100
L25672 16100
" />
<path d="M26065 16362
L26065 16400
L26047 16437
L26028 16456
L25991 16475
L25916 16494
L25822 16494
L25747 16475
L25709 16456
L25691 16437
L25672 16400
L25672 16362
L25691 16325
L25709 16306
L25747 16288
L25822 16269
L25916 16269
L25991 16288
L26028 16306
L26047 16325
L26065 16362
" />
<path d="M26065 16737
L26065 16775
L26047 16812
L26028 16831
L25991 16850
L25916 16869
L25822 16869
L25747 16850
L25709 16831
L25691 16812
L25672 16775
L25672 16737
L25691 16700
L25709 16681
L25747 16662
L25822 16644
L25916 16644
L25991 16662
L26028 16681
L26047 16700
L26065 16737
" />
<path d="M26065 17112
L26065 17150
L26047 17187
L26028 17206
L25991 17225
L25916 17244
L25822 17244
L25747 17225
L25709 17206
L25691 17187
L25672 17150
L25672 17112
L25691 17075
L25709 17056
L25747 17037
L25822 17019
L25916 17019
L25991 17037
L26028 17056
L26047 17075
L26065 17112
" />
<path d="M25672 17712
L25934 17712
" />
<path d="M25897 17712
L25916 17731
L25934 17769
L25934 17825
L25916 17862
L25878 17881
L25672 17881
" />
<path d="M25878 17881
L25916 17900
L25934 17937
L25934 17994
L25916 18031
L25878 18050
L25672 18050
" />
<path d="M25672 18237
L25934 18237
" />
<path d="M25897 18237
L25916 18256
L25934 18294
L25934 18350
L25916 18387
L25878 18406
L25672 18406
" />
<path d="M25878 18406
L25916 18425
L25934 18462
L25934 18518
L25916 18556
L25878 18575
L25672 18575
" />
<path d="M26362 16362
L26362 17937
" />
<path d="M27937 16362
L26131 16362
" />
<path d="M27937 17937
L26131 17937
" />
<path d="M26362 17937
L26131 17494
" />
<path d="M26362 17937
L26593 17494
" />
<path d="M26362 16362
L26131 16806
" />
<path d="M26362 16362
L26593 16806
" />
<text x="48606.3" y="11717.3"
textLength="3863.8" font-size="524.934" lengthAdjust="spacingAndGlyphs"
text-anchor="middle" opacity="0">105.000 mm</text>
<path d="M47012 11698
L46787 11698
" />
<path d="M46900 11698
L46900 11304
L46862 11361
L46825 11398
L46787 11417
" />
<path d="M47256 11304
L47293 11304
L47331 11323
L47350 11342
L47368 11379
L47387 11454
L47387 11548
L47368 11623
L47350 11661
L47331 11679
L47293 11698
L47256 11698
L47218 11679
L47200 11661
L47181 11623
L47162 11548
L47162 11454
L47181 11379
L47200 11342
L47218 11323
L47256 11304
" />
<path d="M47743 11304
L47556 11304
L47537 11492
L47556 11473
L47593 11454
L47687 11454
L47725 11473
L47743 11492
L47762 11529
L47762 11623
L47743 11661
L47725 11679
L47687 11698
L47593 11698
L47556 11679
L47537 11661
" />
<path d="M47931 11661
L47950 11679
L47931 11698
L47912 11679
L47931 11661
L47931 11698
" />
<path d="M48193 11304
L48231 11304
L48268 11323
L48287 11342
L48306 11379
L48325 11454
L48325 11548
L48306 11623
L48287 11661
L48268 11679
L48231 11698
L48193 11698
L48156 11679
L48137 11661
L48118 11623
L48100 11548
L48100 11454
L48118 11379
L48137 11342
L48156 11323
L48193 11304
" />
<path d="M48568 11304
L48606 11304
L48643 11323
L48662 11342
L48681 11379
L48700 11454
L48700 11548
L48681 11623
L48662 11661
L48643 11679
L48606 11698
L48568 11698
L48531 11679
L48512 11661
L48493 11623
L48475 11548
L48475 11454
L48493 11379
L48512 11342
L48531 11323
L48568 11304
" />
<path d="M48943 11304
L48981 11304
L49018 11323
L49037 11342
L49056 11379
L49074 11454
L49074 11548
L49056 11623
L49037 11661
L49018 11679
L48981 11698
L48943 11698
L48906 11679
L48887 11661
L48868 11623
L48850 11548
L48850 11454
L48868 11379
L48887 11342
L48906 11323
L48943 11304
" />
<path d="M49543 11698
L49543 11436
" />
<path d="M49543 11473
L49562 11454
L49599 11436
L49656 11436
L49693 11454
L49712 11492
L49712 11698
" />
<path d="M49712 11492
L49731 11454
L49768 11436
L49824 11436
L49862 11454
L49881 11492
L49881 11698
" />
<path d="M50068 11698
L50068 11436
" />
<path d="M50068 11473
L50087 11454
L50124 11436
L50181 11436
L50218 11454
L50237 11492
L50237 11698
" />
<path d="M50237 11492
L50256 11454
L50293 11436
L50349 11436
L50387 11454
L50406 11492
L50406 11698
" />
<path d="M27937 12032
L69275 12032
" />
<path d="M27937 16362
L27937 11801
" />
<path d="M69275 16362
L69275 11801
" />
<path d="M69275 12032
L68832 12263
" />
<path d="M69275 12032
L68832 11801
" />
<path d="M27937 12032
L28380 12263
" />
<path d="M27937 12032
L28380 11801
" />
<text x="51559.1" y="13292.1"
textLength="3863.8" font-size="524.934" lengthAdjust="spacingAndGlyphs"
text-anchor="middle" opacity="0">120.000 mm</text>
<path d="M49965 13273
L49740 13273
" />
<path d="M49853 13273
L49853 12879
L49815 12935
L49778 12973
L49740 12992
" />
<path d="M50115 12917
L50134 12898
L50171 12879
L50265 12879
L50302 12898
L50321 12917
L50340 12954
L50340 12992
L50321 13048
L50096 13273
L50340 13273
" />
<path d="M50584 12879
L50621 12879
L50659 12898
L50677 12917
L50696 12954
L50715 13029
L50715 13123
L50696 13198
L50677 13235
L50659 13254
L50621 13273
L50584 13273
L50546 13254
L50527 13235
L50509 13198
L50490 13123
L50490 13029
L50509 12954
L50527 12917
L50546 12898
L50584 12879
" />
<path d="M50884 13235
L50902 13254
L50884 13273
L50865 13254
L50884 13235
L50884 13273
" />
<path d="M51146 12879
L51184 12879
L51221 12898
L51240 12917
L51259 12954
L51277 13029
L51277 13123
L51259 13198
L51240 13235
L51221 13254
L51184 13273
L51146 13273
L51109 13254
L51090 13235
L51071 13198
L51052 13123
L51052 13029
L51071 12954
L51090 12917
L51109 12898
L51146 12879
" />
<path d="M51521 12879
L51559 12879
L51596 12898
L51615 12917
L51634 12954
L51652 13029
L51652 13123
L51634 13198
L51615 13235
L51596 13254
L51559 13273
L51521 13273
L51484 13254
L51465 13235
L51446 13198
L51427 13123
L51427 13029
L51446 12954
L51465 12917
L51484 12898
L51521 12879
" />
<path d="M51896 12879
L51934 12879
L51971 12898
L51990 12917
L52008 12954
L52027 13029
L52027 13123
L52008 13198
L51990 13235
L51971 13254
L51934 13273
L51896 13273
L51859 13254
L51840 13235
L51821 13198
L51802 13123
L51802 13029
L51821 12954
L51840 12917
L51859 12898
L51896 12879
" />
<path d="M52496 13273
L52496 13010
" />
<path d="M52496 13048
L52515 13029
L52552 13010
L52608 13010
L52646 13029
L52665 13067
L52665 13273
" />
<path d="M52665 13067
L52683 13029
L52721 13010
L52777 13010
L52815 13029
L52833 13067
L52833 13273
" />
<path d="M53021 13273
L53021 13010
" />
<path d="M53021 13048
L53040 13029
L53077 13010
L53133 13010
L53171 13029
L53190 13067
L53190 13273
" />
<path d="M53190 13067
L53208 13029
L53246 13010
L53302 13010
L53340 13029
L53358 13067
L53358 13273
" />
<path d="M27937 13607
L75181 13607
" />
<path d="M27937 16362
L27937 13376
" />
<path d="M75181 16362
L75181 13376
" />
<path d="M75181 13607
L74737 13837
" />
<path d="M75181 13607
L74737 13376
" />
<path d="M27937 13607
L28380 13837
" />
<path d="M27937 13607
L28380 13376
" />
<text x="56480.3" y="14866.9"
textLength="3863.8" font-size="524.934" lengthAdjust="spacingAndGlyphs"
text-anchor="middle" opacity="0">145.000 mm</text>
<path d="M54886 14848
L54661 14848
" />
<path d="M54774 14848
L54774 14454
L54736 14510
L54699 14548
L54661 14566
" />
<path d="M55224 14585
L55224 14848
" />
<path d="M55130 14435
L55036 14716
L55280 14716
" />
<path d="M55617 14454
L55430 14454
L55411 14641
L55430 14623
L55467 14604
L55561 14604
L55599 14623
L55617 14641
L55636 14679
L55636 14773
L55617 14810
L55599 14829
L55561 14848
L55467 14848
L55430 14829
L55411 14810
" />
<path d="M55805 14810
L55824 14829
L55805 14848
L55786 14829
L55805 14810
L55805 14848
" />
<path d="M56067 14454
L56105 14454
L56142 14473
L56161 14491
L56180 14529
L56199 14604
L56199 14698
L56180 14773
L56161 14810
L56142 14829
L56105 14848
L56067 14848
L56030 14829
L56011 14810
L55992 14773
L55974 14698
L55974 14604
L55992 14529
L56011 14491
L56030 14473
L56067 14454
" />
<path d="M56442 14454
L56480 14454
L56517 14473
L56536 14491
L56555 14529
L56574 14604
L56574 14698
L56555 14773
L56536 14810
L56517 14829
L56480 14848
L56442 14848
L56405 14829
L56386 14810
L56367 14773
L56349 14698
L56349 14604
L56367 14529
L56386 14491
L56405 14473
L56442 14454
" />
<path d="M56817 14454
L56855 14454
L56892 14473
L56911 14491
L56930 14529
L56949 14604
L56949 14698
L56930 14773
L56911 14810
L56892 14829
L56855 14848
L56817 14848
L56780 14829
L56761 14810
L56742 14773
L56724 14698
L56724 14604
L56742 14529
L56761 14491
L56780 14473
L56817 14454
" />
<path d="M57417 14848
L57417 14585
" />
<path d="M57417 14623
L57436 14604
L57473 14585
L57530 14585
L57567 14604
L57586 14641
L57586 14848
" />
<path d="M57586 14641
L57605 14604
L57642 14585
L57698 14585
L57736 14604
L57755 14641
L57755 14848
" />
<path d="M57942 14848
L57942 14585
" />
<path d="M57942 14623
L57961 14604
L57998 14585
L58055 14585
L58092 14604
L58111 14641
L58111 14848
" />
<path d="M58111 14641
L58130 14604
L58167 14585
L58223 14585
L58261 14604
L58280 14641
L58280 14848
" />
<path d="M27937 15181
L85023 15181
" />
<path d="M27937 16362
L27937 14951
" />
<path d="M85023 16362
L85023 14951
" />
<path d="M85023 15181
L84580 15412
" />
<path d="M85023 15181
L84580 14951
" />
<path d="M27937 15181
L28380 15412
" />
<path d="M27937 15181
L28380 14951
" />
<text x="40732.3" y="11717.3"
textLength="3488.85" font-size="524.934" lengthAdjust="spacingAndGlyphs"
text-anchor="middle" opacity="0">65.000 mm</text>
<path d="M39288 11304
L39213 11304
L39176 11323
L39157 11342
L39119 11398
L39101 11473
L39101 11623
L39119 11661
L39138 11679
L39176 11698
L39251 11698
L39288 11679
L39307 11661
L39326 11623
L39326 11529
L39307 11492
L39288 11473
L39251 11454
L39176 11454
L39138 11473
L39119 11492
L39101 11529
" />
<path d="M39682 11304
L39494 11304
L39476 11492
L39494 11473
L39532 11454
L39626 11454
L39663 11473
L39682 11492
L39701 11529
L39701 11623
L39682 11661
L39663 11679
L39626 11698
L39532 11698
L39494 11679
L39476 11661
" />
<path d="M39869 11661
L39888 11679
L39869 11698
L39851 11679
L39869 11661
L39869 11698
" />
<path d="M40132 11304
L40169 11304
L40207 11323
L40226 11342
L40244 11379
L40263 11454
L40263 11548
L40244 11623
L40226 11661
L40207 11679
L40169 11698
L40132 11698
L40094 11679
L40076 11661
L40057 11623
L40038 11548
L40038 11454
L40057 11379
L40076 11342
L40094 11323
L40132 11304
" />
<path d="M40507 11304
L40544 11304
L40582 11323
L40601 11342
L40619 11379
L40638 11454
L40638 11548
L40619 11623
L40601 11661
L40582 11679
L40544 11698
L40507 11698
L40469 11679
L40451 11661
L40432 11623
L40413 11548
L40413 11454
L40432 11379
L40451 11342
L40469 11323
L40507 11304
" />
<path d="M40882 11304
L40919 11304
L40957 11323
L40976 11342
L40994 11379
L41013 11454
L41013 11548
L40994 11623
L40976 11661
L40957 11679
L40919 11698
L40882 11698
L40844 11679
L40826 11661
L40807 11623
L40788 11548
L40788 11454
L40807 11379
L40826 11342
L40844 11323
L40882 11304
" />
<path d="M41482 11698
L41482 11436
" />
<path d="M41482 11473
L41500 11454
L41538 11436
L41594 11436
L41632 11454
L41650 11492
L41650 11698
" />
<path d="M41650 11492
L41669 11454
L41707 11436
L41763 11436
L41800 11454
L41819 11492
L41819 11698
" />
<path d="M42007 11698
L42007 11436
" />
<path d="M42007 11473
L42025 11454
L42063 11436
L42119 11436
L42157 11454
L42175 11492
L42175 11698
" />
<path d="M42175 11492
L42194 11454
L42232 11436
L42288 11436
L42325 11454
L42344 11492
L42344 11698
" />
<path d="M27937 12032
L53527 12032
" />
<path d="M27937 16362
L27937 11801
" />
<path d="M53527 16362
L53527 11801
" />
<path d="M53527 12032
L53084 12263
" />
<path d="M53527 12032
L53084 11801
" />
<path d="M27937 12032
L28380 12263
" />
<path d="M27937 12032
L28380 11801
" />
<text x="35811" y="13292.1"
textLength="3488.85" font-size="524.934" lengthAdjust="spacingAndGlyphs"
text-anchor="middle" opacity="0">40.000 mm</text>
<path d="M34367 13010
L34367 13273
" />
<path d="M34273 12860
L34179 13142
L34423 13142
" />
<path d="M34648 12879
L34686 12879
L34723 12898
L34742 12917
L34761 12954
L34779 13029
L34779 13123
L34761 13198
L34742 13235
L34723 13254
L34686 13273
L34648 13273
L34611 13254
L34592 13235
L34573 13198
L34554 13123
L34554 13029
L34573 12954
L34592 12917
L34611 12898
L34648 12879
" />
<path d="M34948 13235
L34967 13254
L34948 13273
L34929 13254
L34948 13235
L34948 13273
" />
<path d="M35211 12879
L35248 12879
L35286 12898
L35304 12917
L35323 12954
L35342 13029
L35342 13123
L35323 13198
L35304 13235
L35286 13254
L35248 13273
L35211 13273
L35173 13254
L35154 13235
L35136 13198
L35117 13123
L35117 13029
L35136 12954
L35154 12917
L35173 12898
L35211 12879
" />
<path d="M35586 12879
L35623 12879
L35661 12898
L35679 12917
L35698 12954
L35717 13029
L35717 13123
L35698 13198
L35679 13235
L35661 13254
L35623 13273
L35586 13273
L35548 13254
L35529 13235
L35511 13198
L35492 13123
L35492 13029
L35511 12954
L35529 12917
L35548 12898
L35586 12879
" />
<path d="M35961 12879
L35998 12879
L36035 12898
L36054 12917
L36073 12954
L36092 13029
L36092 13123
L36073 13198
L36054 13235
L36035 13254
L35998 13273
L35961 13273
L35923 13254
L35904 13235
L35886 13198
L35867 13123
L35867 13029
L35886 12954
L35904 12917
L35923 12898
L35961 12879
" />
<path d="M36560 13273
L36560 13010
" />
<path d="M36560 13048
L36579 13029
L36617 13010
L36673 13010
L36710 13029
L36729 13067
L36729 13273
" />
<path d="M36729 13067
L36748 13029
L36785 13010
L36842 13010
L36879 13029
L36898 13067
L36898 13273
" />
<path d="M37085 13273
L37085 13010
" />
<path d="M37085 13048
L37104 13029
L37142 13010
L37198 13010
L37235 13029
L37254 13067
L37254 13273
" />
<path d="M37254 13067
L37273 13029
L37310 13010
L37367 13010
L37404 13029
L37423 13067
L37423 13273
" />
<path d="M27937 13607
L43685 13607
" />
<path d="M27937 16362
L27937 13376
" />
<path d="M43685 16362
L43685 13376
" />
<path d="M43685 13607
L43241 13837
" />
<path d="M43685 13607
L43241 13376
" />
<path d="M27937 13607
L28380 13837
" />
<path d="M27937 13607
L28380 13376
" />
<text x="30889.8" y="14866.9"
textLength="3488.85" font-size="524.934" lengthAdjust="spacingAndGlyphs"
text-anchor="middle" opacity="0">15.000 mm</text>
<path d="M29483 14848
L29258 14848
" />
<path d="M29371 14848
L29371 14454
L29333 14510
L29296 14548
L29258 14566
" />
<path d="M29839 14454
L29652 14454
L29633 14641
L29652 14623
L29689 14604
L29783 14604
L29821 14623
L29839 14641
L29858 14679
L29858 14773
L29839 14810
L29821 14829
L29783 14848
L29689 14848
L29652 14829
L29633 14810
" />
<path d="M30027 14810
L30046 14829
L30027 14848
L30008 14829
L30027 14810
L30027 14848
" />
<path d="M30289 14454
L30327 14454
L30364 14473
L30383 14491
L30402 14529
L30421 14604
L30421 14698
L30402 14773
L30383 14810
L30364 14829
L30327 14848
L30289 14848
L30252 14829
L30233 14810
L30214 14773
L30196 14698
L30196 14604
L30214 14529
L30233 14491
L30252 14473
L30289 14454
" />
<path d="M30664 14454
L30702 14454
L30739 14473
L30758 14491
L30777 14529
L30796 14604
L30796 14698
L30777 14773
L30758 14810
L30739 14829
L30702 14848
L30664 14848
L30627 14829
L30608 14810
L30589 14773
L30571 14698
L30571 14604
L30589 14529
L30608 14491
L30627 14473
L30664 14454
" />
<path d="M31039 14454
L31077 14454
L31114 14473
L31133 14491
L31152 14529
L31170 14604
L31170 14698
L31152 14773
L31133 14810
L31114 14829
L31077 14848
L31039 14848
L31002 14829
L30983 14810
L30964 14773
L30946 14698
L30946 14604
L30964 14529
L30983 14491
L31002 14473
L31039 14454
" />
<path d="M31639 14848
L31639 14585
" />
<path d="M31639 14623
L31658 14604
L31695 14585
L31752 14585
L31789 14604
L31808 14641
L31808 14848
" />
<path d="M31808 14641
L31827 14604
L31864 14585
L31920 14585
L31958 14604
L31977 14641
L31977 14848
" />
<path d="M32164 14848
L32164 14585
" />
<path d="M32164 14623
L32183 14604
L32220 14585
L32277 14585
L32314 14604
L32333 14641
L32333 14848
" />
<path d="M32333 14641
L32352 14604
L32389 14585
L32445 14585
L32483 14604
L32502 14641
L32502 14848
" />
<path d="M27937 15181
L33842 15181
" />
<path d="M27937 16362
L27937 14951
" />
<path d="M33842 16362
L33842 14951
" />
<path d="M33842 15181
L33399 15412
" />
<path d="M33842 15181
L33399 14951
" />
<path d="M27937 15181
L28380 15412
" />
<path d="M27937 15181
L28380 14951
" />
<g transform="rotate(-90 19551.2 36018.5)">
<text x="19551.2" y="36215.4"
textLength="3488.85" font-size="524.934" lengthAdjust="spacingAndGlyphs"
text-anchor="middle" opacity="0">100.00 mm</text>
</g>
<path d="M19729 37424
L19729 37649
" />
<path d="M19729 37537
L19335 37537
L19391 37574
L19429 37612
L19448 37649
" />
<path d="M19335 37180
L19335 37143
L19354 37105
L19373 37087
L19410 37068
L19485 37049
L19579 37049
L19654 37068
L19691 37087
L19710 37105
L19729 37143
L19729 37180
L19710 37218
L19691 37237
L19654 37255
L19579 37274
L19485 37274
L19410 37255
L19373 37237
L19354 37218
L19335 37180
" />
<path d="M19335 36805
L19335 36768
L19354 36730
L19373 36712
L19410 36693
L19485 36674
L19579 36674
L19654 36693
L19691 36712
L19710 36730
L19729 36768
L19729 36805
L19710 36843
L19691 36862
L19654 36880
L19579 36899
L19485 36899
L19410 36880
L19373 36862
L19354 36843
L19335 36805
" />
<path d="M19691 36505
L19710 36487
L19729 36505
L19710 36524
L19691 36505
L19729 36505
" />
<path d="M19335 36243
L19335 36205
L19354 36168
L19373 36149
L19410 36130
L19485 36112
L19579 36112
L19654 36130
L19691 36149
L19710 36168
L19729 36205
L19729 36243
L19710 36280
L19691 36299
L19654 36318
L19579 36337
L19485 36337
L19410 36318
L19373 36299
L19354 36280
L19335 36243
" />
<path d="M19335 35868
L19335 35831
L19354 35793
L19373 35774
L19410 35756
L19485 35737
L19579 35737
L19654 35756
L19691 35774
L19710 35793
L19729 35831
L19729 35868
L19710 35906
L19691 35924
L19654 35943
L19579 35962
L19485 35962
L19410 35943
L19373 35924
L19354 35906
L19335 35868
" />
<path d="M19729 35268
L19466 35268
" />
<path d="M19504 35268
L19485 35249
L19466 35212
L19466 35156
L19485 35118
L19523 35099
L19729 35099
" />
<path d="M19523 35099
L19485 35081
L19466 35043
L19466 34987
L19485 34949
L19523 34931
L19729 34931
" />
<path d="M19729 34743
L19466 34743
" />
<path d="M19504 34743
L19485 34724
L19466 34687
L19466 34631
L19485 34593
L19523 34574
L19729 34574
" />
<path d="M19523 34574
L19485 34556
L19466 34518
L19466 34462
L19485 34424
L19523 34406
L19729 34406
" />
<path d="M20062 55674
L20062 16362
" />
<path d="M27937 55674
L19832 55674
" />
<path d="M27937 16362
L19832 16362
" />
<path d="M20062 16362
L20293 16806
" />
<path d="M20062 16362
L19832 16806
" />
<path d="M20062 55674
L20293 55230
" />
<path d="M20062 55674
L19832 55230
" />
<text x="59401.6" y="64315.7"
textLength="3488.85" font-size="524.934" lengthAdjust="spacingAndGlyphs"
text-anchor="middle" opacity="0">160.00 mm</text>
<path d="M57995 64297
L57770 64297
" />
<path d="M57883 64297
L57883 63903
L57845 63959
L57808 63997
L57770 64015
" />
<path d="M58332 63903
L58257 63903
L58220 63922
L58201 63940
L58164 63997
L58145 64072
L58145 64222
L58164 64259
L58182 64278
L58220 64297
L58295 64297
L58332 64278
L58351 64259
L58370 64222
L58370 64128
L58351 64090
L58332 64072
L58295 64053
L58220 64053
L58182 64072
L58164 64090
L58145 64128
" />
<path d="M58614 63903
L58651 63903
L58689 63922
L58707 63940
L58726 63978
L58745 64053
L58745 64147
L58726 64222
L58707 64259
L58689 64278
L58651 64297
L58614 64297
L58576 64278
L58557 64259
L58539 64222
L58520 64147
L58520 64053
L58539 63978
L58557 63940
L58576 63922
L58614 63903
" />
<path d="M58914 64259
L58932 64278
L58914 64297
L58895 64278
L58914 64259
L58914 64297
" />
<path d="M59176 63903
L59214 63903
L59251 63922
L59270 63940
L59289 63978
L59307 64053
L59307 64147
L59289 64222
L59270 64259
L59251 64278
L59214 64297
L59176 64297
L59139 64278
L59120 64259
L59101 64222
L59082 64147
L59082 64053
L59101 63978
L59120 63940
L59139 63922
L59176 63903
" />
<path d="M59551 63903
L59589 63903
L59626 63922
L59645 63940
L59664 63978
L59682 64053
L59682 64147
L59664 64222
L59645 64259
L59626 64278
L59589 64297
L59551 64297
L59514 64278
L59495 64259
L59476 64222
L59457 64147
L59457 64053
L59476 63978
L59495 63940
L59514 63922
L59551 63903
" />
<path d="M60151 64297
L60151 64034
" />
<path d="M60151 64072
L60170 64053
L60207 64034
L60263 64034
L60301 64053
L60320 64090
L60320 64297
" />
<path d="M60320 64090
L60338 64053
L60376 64034
L60432 64034
L60470 64053
L60488 64090
L60488 64297
" />
<path d="M60676 64297
L60676 64034
" />
<path d="M60676 64072
L60695 64053
L60732 64034
L60788 64034
L60826 64053
L60845 64090
L60845 64297
" />
<path d="M60845 64090
L60863 64053
L60901 64034
L60957 64034
L60995 64053
L61013 64090
L61013 64297
" />
<path d="M27937 63607
L90866 63607
" />
<path d="M27937 55674
L27937 63837
" />
<path d="M90866 55674
L90866 63837
" />
<path d="M90866 63607
L90422 63837
" />
<path d="M90866 63607
L90422 63376
" />
<path d="M27937 63607
L28380 63837
" />
<path d="M27937 63607
L28380 63376
" />
<g >
</g>
<g >
</g>
<g >
</g>
<g >
</g>
<g >
</g>
<g >
</g>
<g >
</g>
<g >
</g>
<g >
</g>
<g >
</g>
<g >
</g>
<g >
</g>
<g >
</g>
<g >
</g>
<g >
</g>
<g >
</g>
<g >
</g>
<g >
</g>
<g >
</g>
<g >
</g>
<g >
</g>
<g >
</g>
<g >
</g>
<g >
</g>
<g >
</g>
<g >
</g>
<g >
</g>
<g >
</g>
<g >
</g>
<g >
</g>
<g >
</g>
<g >
</g>
<g >
</g>
<g >
</g>
<g >
</g>
<g >
</g>
<g >
</g>
<g >
</g>
<g >
</g>
<g >
</g>
<g >
</g>
<g >
</g>
<g >
</g>
<g >
</g>
<g >
</g>
<g >
</g>
<g >
</g>
<g >
</g>
<g >
</g>
<g >
</g>
<g >
</g>
<g >
</g>
<g >
</g>
<g >
</g>
<g >
</g>
<g >
</g>
<g >
</g>
<g >
</g>
<g >
</g>
<g >
</g>
<g >
</g>
<g >
</g>
<g >
</g>
<g >
</g>
<g >
</g>
<g >
</g>
<g >
</g>
<g >
</g>
<g >
</g>
<g >
</g>
<g >
</g>
<g >
</g>
<g >
</g>
<g >
</g>
<g >
</g>
<g >
</g>
<g >
</g>
<g >
</g>
<g >
</g>
<g >
</g>
<g >
</g>
<g >
</g>
<g >
</g>
<g >
</g>
<g >
</g>
<g >
</g>
<g >
</g>
<g >
</g>
<g >
</g>
<g >
</g>
<g >
</g>
<g >
</g>
<g >
</g>
<g >
</g>
<g >
</g>
<g >
</g>
<g >
</g>
<g >
</g>
<g >
</g>
<g >
</g>
<g >
</g>
<g >
</g>
<g >
</g>
<g >
</g>
<g >
</g>
<g >
</g>
<g >
</g>
<g >
</g>
<g >
</g>
<g >
</g>
<g >
</g>
<g >
</g>
<g >
</g>
<g >
</g>
<g >
</g>
<g >
</g>
<g >
</g>
<g >
</g>
<g >
</g>
<g >
</g>
<g >
</g>
<g >
</g>
<g >
</g>
<g >
</g>
<g >
</g>
<g >
</g>
<g >
</g>
<g >
</g>
<g >
</g>
<g >
</g>
<g >
</g>
<g >
</g>
<g >
</g>
<g >
</g>
<g >
</g>
<g >
</g>
<g >
</g>
<g >
</g>
<g >
</g>
<g >
</g>
<g >
</g>
<g >
</g>
<g >
</g>
<g >
</g>
<g >
</g>
<g >
</g>
<g >
</g>
<g >
</g>
<g >
</g>
<g >
</g>
<g >
</g>
<g >
</g>
<g >
</g>
</g>
<g style="fill:#000000; fill-opacity:0.0; 
stroke:#000000; stroke-width:59.0551; stroke-opacity:1; 
stroke-linecap:round; stroke-linejoin:round;">
</g>
<g style="fill:#C2C200; fill-opacity:0.0; 
stroke:#C2C200; stroke-width:59.0551; stroke-opacity:1; 
stroke-linecap:round; stroke-linejoin:round;">
</g>
<g style="fill:#C2C200; fill-opacity:0.0; 
stroke:#C2C200; stroke-width:19.685; stroke-opacity:1; 
stroke-linecap:round; stroke-linejoin:round;">
<circle cx="36204.7" cy="20693.7" r="656.168" /> 
<path d="M35220 20693
L37188 20693
" />
<path d="M36204 19709
L36204 21677
" />
</g>
<g style="fill:#C2C200; fill-opacity:0.0; 
stroke:#C2C200; stroke-width:59.0551; stroke-opacity:1; 
stroke-linecap:round; stroke-linejoin:round;">
<path d="M27937 16362
L27937 55674
" />
<path d="M90870 16362
L27937 16362
" />
<path d="M90866 55674
L90870 16362
" />
<path d="M27937 55674
L90866 55674
" />
<g >
</g>
<g >
</g>
<g >
</g>
<g >
</g>
<g >
</g>
<g >
</g>
<g >
</g>
<g >
</g>
<g >
</g>
<g >
</g>
<g >
</g>
<g >
</g>
<g >
</g>
<g >
</g>
<g >
</g>
<g >
</g>
<g >
</g>
<g >
</g>
<g >
</g>
<g >
</g>
<g >
</g>
<g >
</g>
<g >
</g>
<g >
</g>
<g >
</g>
<g >
</g>
<g >
</g>
<g >
</g>
<g >
</g>
<g >
</g>
<g >
</g>
<g >
</g>
<g >
</g>
<g >
</g>
<g >
</g>
<g >
</g>
<g >
</g>
<g >
</g>
<g >
</g>
<g >
</g>
<g >
</g>
<g >
</g>
<g >
</g>
<g >
</g>
<g >
</g>
<g >
</g>
<g >
</g>
<g >
</g>
<g >
</g>
<g >
</g>
<g >
</g>
<g >
</g>
<g >
</g>
<g >
</g>
<g >
</g>
<g >
</g>
<g >
</g>
<g >
</g>
<g >
</g>
<g >
</g>
<g >
</g>
<g >
</g>
<g >
</g>
<g >
</g>
<g >
</g>
<g >
</g>
<g >
</g>
<g >
</g>
<g >
</g>
<g >
</g>
<g >
</g>
<g >
</g>
<g >
</g>
<g >
</g>
<g >
</g>
<g >
</g>
<g >
</g>
<g >
</g>
<g >
</g>
<g >
</g>
<g >
</g>
<g >
</g>
<g >
</g>
<g >
</g>
<g >
</g>
<g >
</g>
<g >
</g>
<g >
</g>
<g >
</g>
<g >
</g>
<g >
</g>
<g >
</g>
<g >
</g>
<g >
</g>
<g >
</g>
<g >
</g>
<g >
</g>
<g >
</g>
<g >
</g>
<g >
</g>
<g >
</g>
<g >
</g>
<g >
</g>
<g >
</g>
<g >
</g>
<g >
</g>
<g >
</g>
<g >
</g>
<g >
</g>
<g >
</g>
<g >
</g>
<g >
</g>
<g >
</g>
<g >
</g>
<g >
</g>
<g >
</g>
<g >
</g>
<g >
</g>
<g >
</g>
<g >
</g>
<g >
</g>
<g >
</g>
<g >
</g>
<g >
</g>
<g >
</g>
<g >
</g>
<g >
</g>
<g >
</g>
<g >
</g>
<g >
</g>
<g >
</g>
<g >
</g>
<g >
</g>
<g >
</g>
<g >
</g>
<g >
</g>
<g >
</g>
<g >
</g>
<g >
</g>
<g >
</g>
<g >
</g>
<g >
</g>
<g >
</g>
<g >
</g>
<g >
</g>
<g >
</g>
<g >
</g>
<g >
</g>
<g >
</g>
<g >
</g>
<g >
</g>
<g >
</g>
<g >
</g>
</g> 
</svg>
