G04 #@! TF.GenerationSoftware,KiCad,Pcbnew,5.1.5-1.fc31*
G04 #@! TF.CreationDate,2020-04-24T19:34:05+01:00*
G04 #@! TF.ProjectId,AR_A60_PA_25502_Issue8_v8.0_Stereo,41525f41-3630-45f5-9041-5f3235353032,rev?*
G04 #@! TF.SameCoordinates,Original*
G04 #@! TF.FileFunction,Legend,Bot*
G04 #@! TF.FilePolarity,Positive*
%FSLAX46Y46*%
G04 Gerber Fmt 4.6, Leading zero omitted, Abs format (unit mm)*
G04 Created by KiCad (PCBNEW 5.1.5-1.fc31) date 2020-04-24 19:34:05*
%MOMM*%
%LPD*%
G04 APERTURE LIST*
%ADD10C,0.150000*%
G04 APERTURE END LIST*
D10*
X142047523Y-71160666D02*
X141571333Y-71160666D01*
X142142761Y-71446380D02*
X141809428Y-70446380D01*
X141476095Y-71446380D01*
X140333238Y-71446380D02*
X140380857Y-71446380D01*
X140476095Y-71398761D01*
X140618952Y-71255904D01*
X140857047Y-70970190D01*
X140952285Y-70827333D01*
X140999904Y-70684476D01*
X140999904Y-70589238D01*
X140952285Y-70494000D01*
X140857047Y-70446380D01*
X140809428Y-70446380D01*
X140714190Y-70494000D01*
X140666571Y-70589238D01*
X140666571Y-70636857D01*
X140714190Y-70732095D01*
X140761809Y-70779714D01*
X141047523Y-70970190D01*
X141095142Y-71017809D01*
X141142761Y-71113047D01*
X141142761Y-71255904D01*
X141095142Y-71351142D01*
X141047523Y-71398761D01*
X140952285Y-71446380D01*
X140809428Y-71446380D01*
X140714190Y-71398761D01*
X140666571Y-71351142D01*
X140523714Y-71160666D01*
X140476095Y-71017809D01*
X140476095Y-70922571D01*
X139333238Y-71446380D02*
X139666571Y-70970190D01*
X139904666Y-71446380D02*
X139904666Y-70446380D01*
X139523714Y-70446380D01*
X139428476Y-70494000D01*
X139380857Y-70541619D01*
X139333238Y-70636857D01*
X139333238Y-70779714D01*
X139380857Y-70874952D01*
X139428476Y-70922571D01*
X139523714Y-70970190D01*
X139904666Y-70970190D01*
X137571333Y-71351142D02*
X137618952Y-71398761D01*
X137761809Y-71446380D01*
X137857047Y-71446380D01*
X137999904Y-71398761D01*
X138095142Y-71303523D01*
X138142761Y-71208285D01*
X138190380Y-71017809D01*
X138190380Y-70874952D01*
X138142761Y-70684476D01*
X138095142Y-70589238D01*
X137999904Y-70494000D01*
X137857047Y-70446380D01*
X137761809Y-70446380D01*
X137618952Y-70494000D01*
X137571333Y-70541619D01*
X136714190Y-71446380D02*
X136714190Y-70922571D01*
X136761809Y-70827333D01*
X136857047Y-70779714D01*
X137047523Y-70779714D01*
X137142761Y-70827333D01*
X136714190Y-71398761D02*
X136809428Y-71446380D01*
X137047523Y-71446380D01*
X137142761Y-71398761D01*
X137190380Y-71303523D01*
X137190380Y-71208285D01*
X137142761Y-71113047D01*
X137047523Y-71065428D01*
X136809428Y-71065428D01*
X136714190Y-71017809D01*
X136238000Y-71446380D02*
X136238000Y-70779714D01*
X136238000Y-70874952D02*
X136190380Y-70827333D01*
X136095142Y-70779714D01*
X135952285Y-70779714D01*
X135857047Y-70827333D01*
X135809428Y-70922571D01*
X135809428Y-71446380D01*
X135809428Y-70922571D02*
X135761809Y-70827333D01*
X135666571Y-70779714D01*
X135523714Y-70779714D01*
X135428476Y-70827333D01*
X135380857Y-70922571D01*
X135380857Y-71446380D01*
X134904666Y-71446380D02*
X134904666Y-70446380D01*
X134904666Y-70827333D02*
X134809428Y-70779714D01*
X134618952Y-70779714D01*
X134523714Y-70827333D01*
X134476095Y-70874952D01*
X134428476Y-70970190D01*
X134428476Y-71255904D01*
X134476095Y-71351142D01*
X134523714Y-71398761D01*
X134618952Y-71446380D01*
X134809428Y-71446380D01*
X134904666Y-71398761D01*
X133999904Y-71446380D02*
X133999904Y-70779714D01*
X133999904Y-70970190D02*
X133952285Y-70874952D01*
X133904666Y-70827333D01*
X133809428Y-70779714D01*
X133714190Y-70779714D01*
X133380857Y-71446380D02*
X133380857Y-70779714D01*
X133380857Y-70446380D02*
X133428476Y-70494000D01*
X133380857Y-70541619D01*
X133333238Y-70494000D01*
X133380857Y-70446380D01*
X133380857Y-70541619D01*
X132476095Y-71446380D02*
X132476095Y-70446380D01*
X132476095Y-71398761D02*
X132571333Y-71446380D01*
X132761809Y-71446380D01*
X132857047Y-71398761D01*
X132904666Y-71351142D01*
X132952285Y-71255904D01*
X132952285Y-70970190D01*
X132904666Y-70874952D01*
X132857047Y-70827333D01*
X132761809Y-70779714D01*
X132571333Y-70779714D01*
X132476095Y-70827333D01*
X131571333Y-70779714D02*
X131571333Y-71589238D01*
X131618952Y-71684476D01*
X131666571Y-71732095D01*
X131761809Y-71779714D01*
X131904666Y-71779714D01*
X131999904Y-71732095D01*
X131571333Y-71398761D02*
X131666571Y-71446380D01*
X131857047Y-71446380D01*
X131952285Y-71398761D01*
X131999904Y-71351142D01*
X132047523Y-71255904D01*
X132047523Y-70970190D01*
X131999904Y-70874952D01*
X131952285Y-70827333D01*
X131857047Y-70779714D01*
X131666571Y-70779714D01*
X131571333Y-70827333D01*
X130714190Y-71398761D02*
X130809428Y-71446380D01*
X130999904Y-71446380D01*
X131095142Y-71398761D01*
X131142761Y-71303523D01*
X131142761Y-70922571D01*
X131095142Y-70827333D01*
X130999904Y-70779714D01*
X130809428Y-70779714D01*
X130714190Y-70827333D01*
X130666571Y-70922571D01*
X130666571Y-71017809D01*
X131142761Y-71113047D01*
X129523714Y-71160666D02*
X129047523Y-71160666D01*
X129618952Y-71446380D02*
X129285619Y-70446380D01*
X128952285Y-71446380D01*
X128190380Y-70446380D02*
X128380857Y-70446380D01*
X128476095Y-70494000D01*
X128523714Y-70541619D01*
X128618952Y-70684476D01*
X128666571Y-70874952D01*
X128666571Y-71255904D01*
X128618952Y-71351142D01*
X128571333Y-71398761D01*
X128476095Y-71446380D01*
X128285619Y-71446380D01*
X128190380Y-71398761D01*
X128142761Y-71351142D01*
X128095142Y-71255904D01*
X128095142Y-71017809D01*
X128142761Y-70922571D01*
X128190380Y-70874952D01*
X128285619Y-70827333D01*
X128476095Y-70827333D01*
X128571333Y-70874952D01*
X128618952Y-70922571D01*
X128666571Y-71017809D01*
X127476095Y-70446380D02*
X127380857Y-70446380D01*
X127285619Y-70494000D01*
X127238000Y-70541619D01*
X127190380Y-70636857D01*
X127142761Y-70827333D01*
X127142761Y-71065428D01*
X127190380Y-71255904D01*
X127238000Y-71351142D01*
X127285619Y-71398761D01*
X127380857Y-71446380D01*
X127476095Y-71446380D01*
X127571333Y-71398761D01*
X127618952Y-71351142D01*
X127666571Y-71255904D01*
X127714190Y-71065428D01*
X127714190Y-70827333D01*
X127666571Y-70636857D01*
X127618952Y-70541619D01*
X127571333Y-70494000D01*
X127476095Y-70446380D01*
X125666571Y-71827333D02*
X125714190Y-71779714D01*
X125809428Y-71636857D01*
X125857047Y-71541619D01*
X125904666Y-71398761D01*
X125952285Y-71160666D01*
X125952285Y-70970190D01*
X125904666Y-70732095D01*
X125857047Y-70589238D01*
X125809428Y-70494000D01*
X125714190Y-70351142D01*
X125666571Y-70303523D01*
X125285619Y-71446380D02*
X125285619Y-70779714D01*
X125285619Y-70446380D02*
X125333238Y-70494000D01*
X125285619Y-70541619D01*
X125238000Y-70494000D01*
X125285619Y-70446380D01*
X125285619Y-70541619D01*
X124857047Y-71398761D02*
X124761809Y-71446380D01*
X124571333Y-71446380D01*
X124476095Y-71398761D01*
X124428476Y-71303523D01*
X124428476Y-71255904D01*
X124476095Y-71160666D01*
X124571333Y-71113047D01*
X124714190Y-71113047D01*
X124809428Y-71065428D01*
X124857047Y-70970190D01*
X124857047Y-70922571D01*
X124809428Y-70827333D01*
X124714190Y-70779714D01*
X124571333Y-70779714D01*
X124476095Y-70827333D01*
X124047523Y-71398761D02*
X123952285Y-71446380D01*
X123761809Y-71446380D01*
X123666571Y-71398761D01*
X123618952Y-71303523D01*
X123618952Y-71255904D01*
X123666571Y-71160666D01*
X123761809Y-71113047D01*
X123904666Y-71113047D01*
X123999904Y-71065428D01*
X124047523Y-70970190D01*
X124047523Y-70922571D01*
X123999904Y-70827333D01*
X123904666Y-70779714D01*
X123761809Y-70779714D01*
X123666571Y-70827333D01*
X122761809Y-70779714D02*
X122761809Y-71446380D01*
X123190380Y-70779714D02*
X123190380Y-71303523D01*
X123142761Y-71398761D01*
X123047523Y-71446380D01*
X122904666Y-71446380D01*
X122809428Y-71398761D01*
X122761809Y-71351142D01*
X121904666Y-71398761D02*
X121999904Y-71446380D01*
X122190380Y-71446380D01*
X122285619Y-71398761D01*
X122333238Y-71303523D01*
X122333238Y-70922571D01*
X122285619Y-70827333D01*
X122190380Y-70779714D01*
X121999904Y-70779714D01*
X121904666Y-70827333D01*
X121857047Y-70922571D01*
X121857047Y-71017809D01*
X122333238Y-71113047D01*
X120523714Y-70874952D02*
X120618952Y-70827333D01*
X120666571Y-70779714D01*
X120714190Y-70684476D01*
X120714190Y-70636857D01*
X120666571Y-70541619D01*
X120618952Y-70494000D01*
X120523714Y-70446380D01*
X120333238Y-70446380D01*
X120238000Y-70494000D01*
X120190380Y-70541619D01*
X120142761Y-70636857D01*
X120142761Y-70684476D01*
X120190380Y-70779714D01*
X120238000Y-70827333D01*
X120333238Y-70874952D01*
X120523714Y-70874952D01*
X120618952Y-70922571D01*
X120666571Y-70970190D01*
X120714190Y-71065428D01*
X120714190Y-71255904D01*
X120666571Y-71351142D01*
X120618952Y-71398761D01*
X120523714Y-71446380D01*
X120333238Y-71446380D01*
X120238000Y-71398761D01*
X120190380Y-71351142D01*
X120142761Y-71255904D01*
X120142761Y-71065428D01*
X120190380Y-70970190D01*
X120238000Y-70922571D01*
X120333238Y-70874952D01*
X119809428Y-71827333D02*
X119761809Y-71779714D01*
X119666571Y-71636857D01*
X119618952Y-71541619D01*
X119571333Y-71398761D01*
X119523714Y-71160666D01*
X119523714Y-70970190D01*
X119571333Y-70732095D01*
X119618952Y-70589238D01*
X119666571Y-70494000D01*
X119761809Y-70351142D01*
X119809428Y-70303523D01*
X118285619Y-71446380D02*
X118285619Y-70446380D01*
X117904666Y-70446380D01*
X117809428Y-70494000D01*
X117761809Y-70541619D01*
X117714190Y-70636857D01*
X117714190Y-70779714D01*
X117761809Y-70874952D01*
X117809428Y-70922571D01*
X117904666Y-70970190D01*
X118285619Y-70970190D01*
X117142761Y-71446380D02*
X117238000Y-71398761D01*
X117285619Y-71351142D01*
X117333238Y-71255904D01*
X117333238Y-70970190D01*
X117285619Y-70874952D01*
X117238000Y-70827333D01*
X117142761Y-70779714D01*
X116999904Y-70779714D01*
X116904666Y-70827333D01*
X116857047Y-70874952D01*
X116809428Y-70970190D01*
X116809428Y-71255904D01*
X116857047Y-71351142D01*
X116904666Y-71398761D01*
X116999904Y-71446380D01*
X117142761Y-71446380D01*
X116476095Y-70779714D02*
X116285619Y-71446380D01*
X116095142Y-70970190D01*
X115904666Y-71446380D01*
X115714190Y-70779714D01*
X114952285Y-71398761D02*
X115047523Y-71446380D01*
X115238000Y-71446380D01*
X115333238Y-71398761D01*
X115380857Y-71303523D01*
X115380857Y-70922571D01*
X115333238Y-70827333D01*
X115238000Y-70779714D01*
X115047523Y-70779714D01*
X114952285Y-70827333D01*
X114904666Y-70922571D01*
X114904666Y-71017809D01*
X115380857Y-71113047D01*
X114476095Y-71446380D02*
X114476095Y-70779714D01*
X114476095Y-70970190D02*
X114428476Y-70874952D01*
X114380857Y-70827333D01*
X114285619Y-70779714D01*
X114190380Y-70779714D01*
X113142761Y-71160666D02*
X112666571Y-71160666D01*
X113238000Y-71446380D02*
X112904666Y-70446380D01*
X112571333Y-71446380D01*
X112238000Y-71446380D02*
X112238000Y-70779714D01*
X112238000Y-70874952D02*
X112190380Y-70827333D01*
X112095142Y-70779714D01*
X111952285Y-70779714D01*
X111857047Y-70827333D01*
X111809428Y-70922571D01*
X111809428Y-71446380D01*
X111809428Y-70922571D02*
X111761809Y-70827333D01*
X111666571Y-70779714D01*
X111523714Y-70779714D01*
X111428476Y-70827333D01*
X111380857Y-70922571D01*
X111380857Y-71446380D01*
X110904666Y-70779714D02*
X110904666Y-71779714D01*
X110904666Y-70827333D02*
X110809428Y-70779714D01*
X110618952Y-70779714D01*
X110523714Y-70827333D01*
X110476095Y-70874952D01*
X110428476Y-70970190D01*
X110428476Y-71255904D01*
X110476095Y-71351142D01*
X110523714Y-71398761D01*
X110618952Y-71446380D01*
X110809428Y-71446380D01*
X110904666Y-71398761D01*
X142976095Y-73048761D02*
X142833238Y-73096380D01*
X142595142Y-73096380D01*
X142499904Y-73048761D01*
X142452285Y-73001142D01*
X142404666Y-72905904D01*
X142404666Y-72810666D01*
X142452285Y-72715428D01*
X142499904Y-72667809D01*
X142595142Y-72620190D01*
X142785619Y-72572571D01*
X142880857Y-72524952D01*
X142928476Y-72477333D01*
X142976095Y-72382095D01*
X142976095Y-72286857D01*
X142928476Y-72191619D01*
X142880857Y-72144000D01*
X142785619Y-72096380D01*
X142547523Y-72096380D01*
X142404666Y-72144000D01*
X141547523Y-73048761D02*
X141642761Y-73096380D01*
X141833238Y-73096380D01*
X141928476Y-73048761D01*
X141976095Y-73001142D01*
X142023714Y-72905904D01*
X142023714Y-72620190D01*
X141976095Y-72524952D01*
X141928476Y-72477333D01*
X141833238Y-72429714D01*
X141642761Y-72429714D01*
X141547523Y-72477333D01*
X141118952Y-73096380D02*
X141118952Y-72096380D01*
X140690380Y-73096380D02*
X140690380Y-72572571D01*
X140738000Y-72477333D01*
X140833238Y-72429714D01*
X140976095Y-72429714D01*
X141071333Y-72477333D01*
X141118952Y-72524952D01*
X139833238Y-73048761D02*
X139928476Y-73096380D01*
X140118952Y-73096380D01*
X140214190Y-73048761D01*
X140261809Y-72953523D01*
X140261809Y-72572571D01*
X140214190Y-72477333D01*
X140118952Y-72429714D01*
X139928476Y-72429714D01*
X139833238Y-72477333D01*
X139785619Y-72572571D01*
X139785619Y-72667809D01*
X140261809Y-72763047D01*
X139357047Y-73096380D02*
X139357047Y-72429714D01*
X139357047Y-72524952D02*
X139309428Y-72477333D01*
X139214190Y-72429714D01*
X139071333Y-72429714D01*
X138976095Y-72477333D01*
X138928476Y-72572571D01*
X138928476Y-73096380D01*
X138928476Y-72572571D02*
X138880857Y-72477333D01*
X138785619Y-72429714D01*
X138642761Y-72429714D01*
X138547523Y-72477333D01*
X138499904Y-72572571D01*
X138499904Y-73096380D01*
X137595142Y-73096380D02*
X137595142Y-72572571D01*
X137642761Y-72477333D01*
X137738000Y-72429714D01*
X137928476Y-72429714D01*
X138023714Y-72477333D01*
X137595142Y-73048761D02*
X137690380Y-73096380D01*
X137928476Y-73096380D01*
X138023714Y-73048761D01*
X138071333Y-72953523D01*
X138071333Y-72858285D01*
X138023714Y-72763047D01*
X137928476Y-72715428D01*
X137690380Y-72715428D01*
X137595142Y-72667809D01*
X137261809Y-72429714D02*
X136880857Y-72429714D01*
X137118952Y-72096380D02*
X137118952Y-72953523D01*
X137071333Y-73048761D01*
X136976095Y-73096380D01*
X136880857Y-73096380D01*
X136547523Y-73096380D02*
X136547523Y-72429714D01*
X136547523Y-72096380D02*
X136595142Y-72144000D01*
X136547523Y-72191619D01*
X136499904Y-72144000D01*
X136547523Y-72096380D01*
X136547523Y-72191619D01*
X135642761Y-73048761D02*
X135738000Y-73096380D01*
X135928476Y-73096380D01*
X136023714Y-73048761D01*
X136071333Y-73001142D01*
X136118952Y-72905904D01*
X136118952Y-72620190D01*
X136071333Y-72524952D01*
X136023714Y-72477333D01*
X135928476Y-72429714D01*
X135738000Y-72429714D01*
X135642761Y-72477333D01*
X133880857Y-73001142D02*
X133928476Y-73048761D01*
X134071333Y-73096380D01*
X134166571Y-73096380D01*
X134309428Y-73048761D01*
X134404666Y-72953523D01*
X134452285Y-72858285D01*
X134499904Y-72667809D01*
X134499904Y-72524952D01*
X134452285Y-72334476D01*
X134404666Y-72239238D01*
X134309428Y-72144000D01*
X134166571Y-72096380D01*
X134071333Y-72096380D01*
X133928476Y-72144000D01*
X133880857Y-72191619D01*
X133309428Y-73096380D02*
X133404666Y-73048761D01*
X133452285Y-73001142D01*
X133499904Y-72905904D01*
X133499904Y-72620190D01*
X133452285Y-72524952D01*
X133404666Y-72477333D01*
X133309428Y-72429714D01*
X133166571Y-72429714D01*
X133071333Y-72477333D01*
X133023714Y-72524952D01*
X132976095Y-72620190D01*
X132976095Y-72905904D01*
X133023714Y-73001142D01*
X133071333Y-73048761D01*
X133166571Y-73096380D01*
X133309428Y-73096380D01*
X132547523Y-72429714D02*
X132547523Y-73429714D01*
X132547523Y-72477333D02*
X132452285Y-72429714D01*
X132261809Y-72429714D01*
X132166571Y-72477333D01*
X132118952Y-72524952D01*
X132071333Y-72620190D01*
X132071333Y-72905904D01*
X132118952Y-73001142D01*
X132166571Y-73048761D01*
X132261809Y-73096380D01*
X132452285Y-73096380D01*
X132547523Y-73048761D01*
X131738000Y-72429714D02*
X131499904Y-73096380D01*
X131261809Y-72429714D02*
X131499904Y-73096380D01*
X131595142Y-73334476D01*
X131642761Y-73382095D01*
X131738000Y-73429714D01*
X130880857Y-73096380D02*
X130880857Y-72429714D01*
X130880857Y-72620190D02*
X130833238Y-72524952D01*
X130785619Y-72477333D01*
X130690380Y-72429714D01*
X130595142Y-72429714D01*
X130261809Y-73096380D02*
X130261809Y-72429714D01*
X130261809Y-72096380D02*
X130309428Y-72144000D01*
X130261809Y-72191619D01*
X130214190Y-72144000D01*
X130261809Y-72096380D01*
X130261809Y-72191619D01*
X129357047Y-72429714D02*
X129357047Y-73239238D01*
X129404666Y-73334476D01*
X129452285Y-73382095D01*
X129547523Y-73429714D01*
X129690380Y-73429714D01*
X129785619Y-73382095D01*
X129357047Y-73048761D02*
X129452285Y-73096380D01*
X129642761Y-73096380D01*
X129738000Y-73048761D01*
X129785619Y-73001142D01*
X129833238Y-72905904D01*
X129833238Y-72620190D01*
X129785619Y-72524952D01*
X129738000Y-72477333D01*
X129642761Y-72429714D01*
X129452285Y-72429714D01*
X129357047Y-72477333D01*
X128880857Y-73096380D02*
X128880857Y-72096380D01*
X128452285Y-73096380D02*
X128452285Y-72572571D01*
X128499904Y-72477333D01*
X128595142Y-72429714D01*
X128738000Y-72429714D01*
X128833238Y-72477333D01*
X128880857Y-72524952D01*
X128118952Y-72429714D02*
X127738000Y-72429714D01*
X127976095Y-72096380D02*
X127976095Y-72953523D01*
X127928476Y-73048761D01*
X127833238Y-73096380D01*
X127738000Y-73096380D01*
X126690380Y-72810666D02*
X126214190Y-72810666D01*
X126785619Y-73096380D02*
X126452285Y-72096380D01*
X126118952Y-73096380D01*
X125833238Y-73048761D02*
X125738000Y-73096380D01*
X125547523Y-73096380D01*
X125452285Y-73048761D01*
X125404666Y-72953523D01*
X125404666Y-72905904D01*
X125452285Y-72810666D01*
X125547523Y-72763047D01*
X125690380Y-72763047D01*
X125785619Y-72715428D01*
X125833238Y-72620190D01*
X125833238Y-72572571D01*
X125785619Y-72477333D01*
X125690380Y-72429714D01*
X125547523Y-72429714D01*
X125452285Y-72477333D01*
X124214190Y-73096380D02*
X124214190Y-72096380D01*
X123833238Y-72096380D01*
X123738000Y-72144000D01*
X123690380Y-72191619D01*
X123642761Y-72286857D01*
X123642761Y-72429714D01*
X123690380Y-72524952D01*
X123738000Y-72572571D01*
X123833238Y-72620190D01*
X124214190Y-72620190D01*
X122833238Y-73048761D02*
X122928476Y-73096380D01*
X123118952Y-73096380D01*
X123214190Y-73048761D01*
X123261809Y-72953523D01*
X123261809Y-72572571D01*
X123214190Y-72477333D01*
X123118952Y-72429714D01*
X122928476Y-72429714D01*
X122833238Y-72477333D01*
X122785619Y-72572571D01*
X122785619Y-72667809D01*
X123261809Y-72763047D01*
X122357047Y-73096380D02*
X122357047Y-72429714D01*
X122357047Y-72620190D02*
X122309428Y-72524952D01*
X122261809Y-72477333D01*
X122166571Y-72429714D01*
X122071333Y-72429714D01*
X120785619Y-72096380D02*
X120595142Y-72096380D01*
X120499904Y-72144000D01*
X120404666Y-72239238D01*
X120357047Y-72429714D01*
X120357047Y-72763047D01*
X120404666Y-72953523D01*
X120499904Y-73048761D01*
X120595142Y-73096380D01*
X120785619Y-73096380D01*
X120880857Y-73048761D01*
X120976095Y-72953523D01*
X121023714Y-72763047D01*
X121023714Y-72429714D01*
X120976095Y-72239238D01*
X120880857Y-72144000D01*
X120785619Y-72096380D01*
X119928476Y-73096380D02*
X119928476Y-72429714D01*
X119928476Y-72620190D02*
X119880857Y-72524952D01*
X119833238Y-72477333D01*
X119738000Y-72429714D01*
X119642761Y-72429714D01*
X119309428Y-73096380D02*
X119309428Y-72429714D01*
X119309428Y-72096380D02*
X119357047Y-72144000D01*
X119309428Y-72191619D01*
X119261809Y-72144000D01*
X119309428Y-72096380D01*
X119309428Y-72191619D01*
X118404666Y-72429714D02*
X118404666Y-73239238D01*
X118452285Y-73334476D01*
X118499904Y-73382095D01*
X118595142Y-73429714D01*
X118738000Y-73429714D01*
X118833238Y-73382095D01*
X118404666Y-73048761D02*
X118499904Y-73096380D01*
X118690380Y-73096380D01*
X118785619Y-73048761D01*
X118833238Y-73001142D01*
X118880857Y-72905904D01*
X118880857Y-72620190D01*
X118833238Y-72524952D01*
X118785619Y-72477333D01*
X118690380Y-72429714D01*
X118499904Y-72429714D01*
X118404666Y-72477333D01*
X117928476Y-73096380D02*
X117928476Y-72429714D01*
X117928476Y-72096380D02*
X117976095Y-72144000D01*
X117928476Y-72191619D01*
X117880857Y-72144000D01*
X117928476Y-72096380D01*
X117928476Y-72191619D01*
X117452285Y-72429714D02*
X117452285Y-73096380D01*
X117452285Y-72524952D02*
X117404666Y-72477333D01*
X117309428Y-72429714D01*
X117166571Y-72429714D01*
X117071333Y-72477333D01*
X117023714Y-72572571D01*
X117023714Y-73096380D01*
X116118952Y-73096380D02*
X116118952Y-72572571D01*
X116166571Y-72477333D01*
X116261809Y-72429714D01*
X116452285Y-72429714D01*
X116547523Y-72477333D01*
X116118952Y-73048761D02*
X116214190Y-73096380D01*
X116452285Y-73096380D01*
X116547523Y-73048761D01*
X116595142Y-72953523D01*
X116595142Y-72858285D01*
X116547523Y-72763047D01*
X116452285Y-72715428D01*
X116214190Y-72715428D01*
X116118952Y-72667809D01*
X115499904Y-73096380D02*
X115595142Y-73048761D01*
X115642761Y-72953523D01*
X115642761Y-72096380D01*
X114166571Y-72096380D02*
X113976095Y-72096380D01*
X113880857Y-72144000D01*
X113785619Y-72239238D01*
X113738000Y-72429714D01*
X113738000Y-72763047D01*
X113785619Y-72953523D01*
X113880857Y-73048761D01*
X113976095Y-73096380D01*
X114166571Y-73096380D01*
X114261809Y-73048761D01*
X114357047Y-72953523D01*
X114404666Y-72763047D01*
X114404666Y-72429714D01*
X114357047Y-72239238D01*
X114261809Y-72144000D01*
X114166571Y-72096380D01*
X113404666Y-72429714D02*
X113214190Y-73096380D01*
X113023714Y-72620190D01*
X112833238Y-73096380D01*
X112642761Y-72429714D01*
X112261809Y-72429714D02*
X112261809Y-73096380D01*
X112261809Y-72524952D02*
X112214190Y-72477333D01*
X112118952Y-72429714D01*
X111976095Y-72429714D01*
X111880857Y-72477333D01*
X111833238Y-72572571D01*
X111833238Y-73096380D01*
X110976095Y-73048761D02*
X111071333Y-73096380D01*
X111261809Y-73096380D01*
X111357047Y-73048761D01*
X111404666Y-72953523D01*
X111404666Y-72572571D01*
X111357047Y-72477333D01*
X111261809Y-72429714D01*
X111071333Y-72429714D01*
X110976095Y-72477333D01*
X110928476Y-72572571D01*
X110928476Y-72667809D01*
X111404666Y-72763047D01*
X110499904Y-73096380D02*
X110499904Y-72429714D01*
X110499904Y-72620190D02*
X110452285Y-72524952D01*
X110404666Y-72477333D01*
X110309428Y-72429714D01*
X110214190Y-72429714D01*
X109928476Y-73048761D02*
X109833238Y-73096380D01*
X109642761Y-73096380D01*
X109547523Y-73048761D01*
X109499904Y-72953523D01*
X109499904Y-72905904D01*
X109547523Y-72810666D01*
X109642761Y-72763047D01*
X109785619Y-72763047D01*
X109880857Y-72715428D01*
X109928476Y-72620190D01*
X109928476Y-72572571D01*
X109880857Y-72477333D01*
X109785619Y-72429714D01*
X109642761Y-72429714D01*
X109547523Y-72477333D01*
X143738000Y-73794000D02*
X143833238Y-73746380D01*
X143976095Y-73746380D01*
X144118952Y-73794000D01*
X144214190Y-73889238D01*
X144261809Y-73984476D01*
X144309428Y-74174952D01*
X144309428Y-74317809D01*
X144261809Y-74508285D01*
X144214190Y-74603523D01*
X144118952Y-74698761D01*
X143976095Y-74746380D01*
X143880857Y-74746380D01*
X143738000Y-74698761D01*
X143690380Y-74651142D01*
X143690380Y-74317809D01*
X143880857Y-74317809D01*
X143261809Y-74746380D02*
X143261809Y-74079714D01*
X143261809Y-74270190D02*
X143214190Y-74174952D01*
X143166571Y-74127333D01*
X143071333Y-74079714D01*
X142976095Y-74079714D01*
X142214190Y-74746380D02*
X142214190Y-74222571D01*
X142261809Y-74127333D01*
X142357047Y-74079714D01*
X142547523Y-74079714D01*
X142642761Y-74127333D01*
X142214190Y-74698761D02*
X142309428Y-74746380D01*
X142547523Y-74746380D01*
X142642761Y-74698761D01*
X142690380Y-74603523D01*
X142690380Y-74508285D01*
X142642761Y-74413047D01*
X142547523Y-74365428D01*
X142309428Y-74365428D01*
X142214190Y-74317809D01*
X141738000Y-74746380D02*
X141738000Y-73746380D01*
X141309428Y-74746380D02*
X141309428Y-74222571D01*
X141357047Y-74127333D01*
X141452285Y-74079714D01*
X141595142Y-74079714D01*
X141690380Y-74127333D01*
X141738000Y-74174952D01*
X140404666Y-74746380D02*
X140404666Y-74222571D01*
X140452285Y-74127333D01*
X140547523Y-74079714D01*
X140738000Y-74079714D01*
X140833238Y-74127333D01*
X140404666Y-74698761D02*
X140499904Y-74746380D01*
X140738000Y-74746380D01*
X140833238Y-74698761D01*
X140880857Y-74603523D01*
X140880857Y-74508285D01*
X140833238Y-74413047D01*
X140738000Y-74365428D01*
X140499904Y-74365428D01*
X140404666Y-74317809D01*
X139928476Y-74746380D02*
X139928476Y-74079714D01*
X139928476Y-74174952D02*
X139880857Y-74127333D01*
X139785619Y-74079714D01*
X139642761Y-74079714D01*
X139547523Y-74127333D01*
X139499904Y-74222571D01*
X139499904Y-74746380D01*
X139499904Y-74222571D02*
X139452285Y-74127333D01*
X139357047Y-74079714D01*
X139214190Y-74079714D01*
X139118952Y-74127333D01*
X139071333Y-74222571D01*
X139071333Y-74746380D01*
X138595142Y-74365428D02*
X137833238Y-74365428D01*
X136785619Y-74746380D02*
X137118952Y-74270190D01*
X137357047Y-74746380D02*
X137357047Y-73746380D01*
X136976095Y-73746380D01*
X136880857Y-73794000D01*
X136833238Y-73841619D01*
X136785619Y-73936857D01*
X136785619Y-74079714D01*
X136833238Y-74174952D01*
X136880857Y-74222571D01*
X136976095Y-74270190D01*
X137357047Y-74270190D01*
X135309428Y-75127333D02*
X135357047Y-75079714D01*
X135452285Y-74936857D01*
X135499904Y-74841619D01*
X135547523Y-74698761D01*
X135595142Y-74460666D01*
X135595142Y-74270190D01*
X135547523Y-74032095D01*
X135499904Y-73889238D01*
X135452285Y-73794000D01*
X135357047Y-73651142D01*
X135309428Y-73603523D01*
X134499904Y-74698761D02*
X134595142Y-74746380D01*
X134785619Y-74746380D01*
X134880857Y-74698761D01*
X134928476Y-74651142D01*
X134976095Y-74555904D01*
X134976095Y-74270190D01*
X134928476Y-74174952D01*
X134880857Y-74127333D01*
X134785619Y-74079714D01*
X134595142Y-74079714D01*
X134499904Y-74127333D01*
X133404666Y-75127333D02*
X133357047Y-75079714D01*
X133261809Y-74936857D01*
X133214190Y-74841619D01*
X133166571Y-74698761D01*
X133118952Y-74460666D01*
X133118952Y-74270190D01*
X133166571Y-74032095D01*
X133214190Y-73889238D01*
X133261809Y-73794000D01*
X133357047Y-73651142D01*
X133404666Y-73603523D01*
X131928476Y-73841619D02*
X131880857Y-73794000D01*
X131785619Y-73746380D01*
X131547523Y-73746380D01*
X131452285Y-73794000D01*
X131404666Y-73841619D01*
X131357047Y-73936857D01*
X131357047Y-74032095D01*
X131404666Y-74174952D01*
X131976095Y-74746380D01*
X131357047Y-74746380D01*
X130738000Y-73746380D02*
X130642761Y-73746380D01*
X130547523Y-73794000D01*
X130499904Y-73841619D01*
X130452285Y-73936857D01*
X130404666Y-74127333D01*
X130404666Y-74365428D01*
X130452285Y-74555904D01*
X130499904Y-74651142D01*
X130547523Y-74698761D01*
X130642761Y-74746380D01*
X130738000Y-74746380D01*
X130833238Y-74698761D01*
X130880857Y-74651142D01*
X130928476Y-74555904D01*
X130976095Y-74365428D01*
X130976095Y-74127333D01*
X130928476Y-73936857D01*
X130880857Y-73841619D01*
X130833238Y-73794000D01*
X130738000Y-73746380D01*
X130023714Y-73841619D02*
X129976095Y-73794000D01*
X129880857Y-73746380D01*
X129642761Y-73746380D01*
X129547523Y-73794000D01*
X129499904Y-73841619D01*
X129452285Y-73936857D01*
X129452285Y-74032095D01*
X129499904Y-74174952D01*
X130071333Y-74746380D01*
X129452285Y-74746380D01*
X128833238Y-73746380D02*
X128738000Y-73746380D01*
X128642761Y-73794000D01*
X128595142Y-73841619D01*
X128547523Y-73936857D01*
X128499904Y-74127333D01*
X128499904Y-74365428D01*
X128547523Y-74555904D01*
X128595142Y-74651142D01*
X128642761Y-74698761D01*
X128738000Y-74746380D01*
X128833238Y-74746380D01*
X128928476Y-74698761D01*
X128976095Y-74651142D01*
X129023714Y-74555904D01*
X129071333Y-74365428D01*
X129071333Y-74127333D01*
X129023714Y-73936857D01*
X128976095Y-73841619D01*
X128928476Y-73794000D01*
X128833238Y-73746380D01*
X127309428Y-74746380D02*
X127309428Y-73746380D01*
X126928476Y-73746380D01*
X126833238Y-73794000D01*
X126785619Y-73841619D01*
X126738000Y-73936857D01*
X126738000Y-74079714D01*
X126785619Y-74174952D01*
X126833238Y-74222571D01*
X126928476Y-74270190D01*
X127309428Y-74270190D01*
X126309428Y-74746380D02*
X126309428Y-74079714D01*
X126309428Y-73746380D02*
X126357047Y-73794000D01*
X126309428Y-73841619D01*
X126261809Y-73794000D01*
X126309428Y-73746380D01*
X126309428Y-73841619D01*
X125833238Y-74079714D02*
X125833238Y-74746380D01*
X125833238Y-74174952D02*
X125785619Y-74127333D01*
X125690380Y-74079714D01*
X125547523Y-74079714D01*
X125452285Y-74127333D01*
X125404666Y-74222571D01*
X125404666Y-74746380D01*
X124928476Y-74746380D02*
X124928476Y-73746380D01*
X124833238Y-74365428D02*
X124547523Y-74746380D01*
X124547523Y-74079714D02*
X124928476Y-74460666D01*
X123785619Y-74222571D02*
X124118952Y-74222571D01*
X124118952Y-74746380D02*
X124118952Y-73746380D01*
X123642761Y-73746380D01*
X123261809Y-74746380D02*
X123261809Y-74079714D01*
X123261809Y-73746380D02*
X123309428Y-73794000D01*
X123261809Y-73841619D01*
X123214190Y-73794000D01*
X123261809Y-73746380D01*
X123261809Y-73841619D01*
X122833238Y-74698761D02*
X122738000Y-74746380D01*
X122547523Y-74746380D01*
X122452285Y-74698761D01*
X122404666Y-74603523D01*
X122404666Y-74555904D01*
X122452285Y-74460666D01*
X122547523Y-74413047D01*
X122690380Y-74413047D01*
X122785619Y-74365428D01*
X122833238Y-74270190D01*
X122833238Y-74222571D01*
X122785619Y-74127333D01*
X122690380Y-74079714D01*
X122547523Y-74079714D01*
X122452285Y-74127333D01*
X121976095Y-74746380D02*
X121976095Y-73746380D01*
X121547523Y-74746380D02*
X121547523Y-74222571D01*
X121595142Y-74127333D01*
X121690380Y-74079714D01*
X121833238Y-74079714D01*
X121928476Y-74127333D01*
X121976095Y-74174952D01*
X120452285Y-74270190D02*
X120499904Y-74222571D01*
X120595142Y-74174952D01*
X120690380Y-74174952D01*
X120785619Y-74222571D01*
X120833238Y-74270190D01*
X120880857Y-74365428D01*
X120880857Y-74460666D01*
X120833238Y-74555904D01*
X120785619Y-74603523D01*
X120690380Y-74651142D01*
X120595142Y-74651142D01*
X120499904Y-74603523D01*
X120452285Y-74555904D01*
X120452285Y-74174952D02*
X120452285Y-74555904D01*
X120404666Y-74603523D01*
X120357047Y-74603523D01*
X120261809Y-74555904D01*
X120214190Y-74460666D01*
X120214190Y-74222571D01*
X120309428Y-74079714D01*
X120452285Y-73984476D01*
X120642761Y-73936857D01*
X120833238Y-73984476D01*
X120976095Y-74079714D01*
X121071333Y-74222571D01*
X121118952Y-74413047D01*
X121071333Y-74603523D01*
X120976095Y-74746380D01*
X120833238Y-74841619D01*
X120642761Y-74889238D01*
X120452285Y-74841619D01*
X120309428Y-74746380D01*
X119357047Y-74746380D02*
X119357047Y-74222571D01*
X119404666Y-74127333D01*
X119499904Y-74079714D01*
X119690380Y-74079714D01*
X119785619Y-74127333D01*
X119357047Y-74698761D02*
X119452285Y-74746380D01*
X119690380Y-74746380D01*
X119785619Y-74698761D01*
X119833238Y-74603523D01*
X119833238Y-74508285D01*
X119785619Y-74413047D01*
X119690380Y-74365428D01*
X119452285Y-74365428D01*
X119357047Y-74317809D01*
X118880857Y-74079714D02*
X118880857Y-75079714D01*
X118880857Y-74127333D02*
X118785619Y-74079714D01*
X118595142Y-74079714D01*
X118499904Y-74127333D01*
X118452285Y-74174952D01*
X118404666Y-74270190D01*
X118404666Y-74555904D01*
X118452285Y-74651142D01*
X118499904Y-74698761D01*
X118595142Y-74746380D01*
X118785619Y-74746380D01*
X118880857Y-74698761D01*
X117976095Y-74079714D02*
X117976095Y-75079714D01*
X117976095Y-74127333D02*
X117880857Y-74079714D01*
X117690380Y-74079714D01*
X117595142Y-74127333D01*
X117547523Y-74174952D01*
X117499904Y-74270190D01*
X117499904Y-74555904D01*
X117547523Y-74651142D01*
X117595142Y-74698761D01*
X117690380Y-74746380D01*
X117880857Y-74746380D01*
X117976095Y-74698761D01*
X116928476Y-74746380D02*
X117023714Y-74698761D01*
X117071333Y-74603523D01*
X117071333Y-73746380D01*
X116166571Y-74698761D02*
X116261809Y-74746380D01*
X116452285Y-74746380D01*
X116547523Y-74698761D01*
X116595142Y-74603523D01*
X116595142Y-74222571D01*
X116547523Y-74127333D01*
X116452285Y-74079714D01*
X116261809Y-74079714D01*
X116166571Y-74127333D01*
X116118952Y-74222571D01*
X116118952Y-74317809D01*
X116595142Y-74413047D01*
X115785619Y-74079714D02*
X115547523Y-74746380D01*
X115309428Y-74079714D02*
X115547523Y-74746380D01*
X115642761Y-74984476D01*
X115690380Y-75032095D01*
X115785619Y-75079714D01*
X114928476Y-74651142D02*
X114880857Y-74698761D01*
X114928476Y-74746380D01*
X114976095Y-74698761D01*
X114928476Y-74651142D01*
X114928476Y-74746380D01*
X114452285Y-74079714D02*
X114452285Y-75079714D01*
X114452285Y-74127333D02*
X114357047Y-74079714D01*
X114166571Y-74079714D01*
X114071333Y-74127333D01*
X114023714Y-74174952D01*
X113976095Y-74270190D01*
X113976095Y-74555904D01*
X114023714Y-74651142D01*
X114071333Y-74698761D01*
X114166571Y-74746380D01*
X114357047Y-74746380D01*
X114452285Y-74698761D01*
X113404666Y-74746380D02*
X113499904Y-74698761D01*
X113547523Y-74603523D01*
X113547523Y-73746380D01*
X112595142Y-74079714D02*
X112595142Y-74746380D01*
X113023714Y-74079714D02*
X113023714Y-74603523D01*
X112976095Y-74698761D01*
X112880857Y-74746380D01*
X112738000Y-74746380D01*
X112642761Y-74698761D01*
X112595142Y-74651142D01*
X112166571Y-74698761D02*
X112071333Y-74746380D01*
X111880857Y-74746380D01*
X111785619Y-74698761D01*
X111738000Y-74603523D01*
X111738000Y-74555904D01*
X111785619Y-74460666D01*
X111880857Y-74413047D01*
X112023714Y-74413047D01*
X112118952Y-74365428D01*
X112166571Y-74270190D01*
X112166571Y-74222571D01*
X112118952Y-74127333D01*
X112023714Y-74079714D01*
X111880857Y-74079714D01*
X111785619Y-74127333D01*
X111309428Y-74651142D02*
X111261809Y-74698761D01*
X111309428Y-74746380D01*
X111357047Y-74698761D01*
X111309428Y-74651142D01*
X111309428Y-74746380D01*
X110404666Y-74698761D02*
X110499904Y-74746380D01*
X110690380Y-74746380D01*
X110785619Y-74698761D01*
X110833238Y-74651142D01*
X110880857Y-74555904D01*
X110880857Y-74270190D01*
X110833238Y-74174952D01*
X110785619Y-74127333D01*
X110690380Y-74079714D01*
X110499904Y-74079714D01*
X110404666Y-74127333D01*
X109833238Y-74746380D02*
X109928476Y-74698761D01*
X109976095Y-74651142D01*
X110023714Y-74555904D01*
X110023714Y-74270190D01*
X109976095Y-74174952D01*
X109928476Y-74127333D01*
X109833238Y-74079714D01*
X109690380Y-74079714D01*
X109595142Y-74127333D01*
X109547523Y-74174952D01*
X109499904Y-74270190D01*
X109499904Y-74555904D01*
X109547523Y-74651142D01*
X109595142Y-74698761D01*
X109690380Y-74746380D01*
X109833238Y-74746380D01*
X109071333Y-74746380D02*
X109071333Y-74079714D01*
X109071333Y-74174952D02*
X109023714Y-74127333D01*
X108928476Y-74079714D01*
X108785619Y-74079714D01*
X108690380Y-74127333D01*
X108642761Y-74222571D01*
X108642761Y-74746380D01*
X108642761Y-74222571D02*
X108595142Y-74127333D01*
X108499904Y-74079714D01*
X108357047Y-74079714D01*
X108261809Y-74127333D01*
X108214190Y-74222571D01*
X108214190Y-74746380D01*
M02*
