M48
; DRILL file {KiCad 5.1.5-1.fc31} date Fri 24 Apr 2020 19:33:59 BST
; FORMAT={-:-/ absolute / inch / decimal}
; #@! TF.CreationDate,2020-04-24T19:33:59+01:00
; #@! TF.GenerationSoftware,Kicad,Pcbnew,5.1.5-1.fc31
; #@! TF.FileFunction,Plated,1,2,PTH
FMAT,2
INCH
T1C0.0157
T2C0.0217
T3C0.0295
T4C0.0315
T5C0.0433
T6C0.0472
T7C0.0512
T8C0.0591
%
G90
G05
T1
X2.45Y-1.4
X2.45Y-2.6
X2.45Y-4.2
X2.45Y-4.65
X2.45Y-5.86
X2.55Y-4.05
X2.6Y-1.85
X2.6Y-3.25
X2.6Y-3.75
X2.65Y-5.86
X2.8Y-2.65
X2.85Y-4.5
X2.85Y-5.86
X3.0Y-2.35
X3.05Y-4.95
X3.05Y-5.86
X3.1Y-3.1
X3.209Y-5.86
X3.31Y-4.3
X3.34Y-5.86
X3.345Y-4.47
X3.345Y-4.7
X3.345Y-4.9
X3.345Y-5.1
X3.345Y-5.3
X3.345Y-5.5
X3.345Y-5.7
X3.51Y-4.3
X3.539Y-0.9
X3.54Y-5.86
X3.65Y-0.9
X3.65Y-3.8
X3.7Y-4.65
X3.74Y-5.86
X3.789Y-0.9
X3.939Y-0.9
X3.94Y-5.86
X3.98Y-4.49
X4.089Y-0.9
X4.1Y-4.65
X4.14Y-5.86
X4.15Y-4.31
X4.23Y-4.4
X4.239Y-0.9
X4.3Y-4.6
X4.34Y-5.86
X4.35Y-4.31
X4.35Y-4.5
X4.389Y-0.9
X4.54Y-5.86
X4.55Y-4.31
X4.7Y-3.8
X4.7Y-4.15
X4.74Y-5.86
X4.75Y-4.31
X4.8Y-0.95
X4.8Y-4.5
X4.8Y-4.7
X4.8Y-4.9
X4.8Y-5.1
X4.8Y-5.3
X4.8Y-5.5
X4.8Y-5.7
X4.87Y-4.3
X4.94Y-5.86
X4.945Y-5.779
X5.0Y-2.35
X5.0Y-4.15
X5.0Y-4.57
X5.01Y-5.02
X5.05Y-0.95
X5.08Y-4.44
X5.14Y-5.86
X5.1434Y-5.779
X5.2Y-1.45
X5.25Y-1.85
X5.25Y-4.6
X5.26Y-2.57
X5.3Y-3.8
X5.34Y-5.86
X5.3419Y-5.779
X5.36Y-1.85
X5.54Y-5.86
X5.5403Y-5.779
X5.7333Y-5.776
X5.74Y-5.86
X5.94Y-5.86
X5.955Y-1.1646
X5.955Y-1.3631
X5.955Y-1.5615
X5.955Y-1.7599
X5.955Y-1.9583
X5.955Y-2.1568
X5.955Y-2.3552
X5.955Y-2.5536
X5.955Y-2.752
X5.955Y-2.9505
X5.955Y-3.1489
X5.955Y-3.3473
X5.955Y-3.5457
X5.955Y-3.7442
X5.955Y-3.9426
X5.955Y-4.141
X5.955Y-4.3394
X5.955Y-4.5379
X5.955Y-4.7363
X5.955Y-4.9347
X5.955Y-5.1331
X5.955Y-5.3316
X5.955Y-5.49
X6.14Y-5.86
X6.1403Y-5.779
X6.34Y-5.86
X6.3434Y-5.779
X6.54Y-5.86
X6.5419Y-5.779
X6.61Y-4.5
X6.74Y-5.86
X6.7403Y-5.779
X6.83Y-4.5
X6.88Y-4.15
X6.88Y-4.15
X6.8955Y-2.34
X6.94Y-5.86
X6.9403Y-5.779
X7.09Y-4.31
X7.095Y-4.375
X7.095Y-4.505
X7.095Y-4.705
X7.095Y-4.905
X7.095Y-5.105
X7.095Y-5.305
X7.095Y-5.505
X7.095Y-5.705
X7.14Y-5.86
X7.29Y-4.31
X7.34Y-5.86
X7.356Y-4.169
X7.49Y-4.31
X7.54Y-5.86
X7.69Y-4.31
X7.74Y-5.86
X7.89Y-4.31
X7.94Y-5.86
X7.99Y-4.54
X8.09Y-4.31
X8.14Y-5.86
X8.27Y-4.31
X8.34Y-5.86
X8.505Y-4.31
X8.54Y-5.86
X8.586Y-4.714
X8.613Y-4.449
X8.7Y-5.66
X8.7Y-5.86
X8.705Y-4.31
X8.705Y-4.45
X8.705Y-4.7
X8.705Y-4.9
X8.705Y-5.1
X8.705Y-5.3
X8.705Y-5.5
X8.9Y-5.86
X9.045Y-4.171
X9.1Y-5.86
X9.3Y-5.86
X9.459Y-5.86
T2
X5.0Y-4.75
X5.05Y-4.75
X5.1Y-4.75
X3.5Y-4.45
X3.5Y-4.5
X3.5Y-4.55
X6.8Y-4.75
X6.85Y-4.75
X6.9Y-4.75
X8.85Y-1.71
X8.9Y-1.71
X8.95Y-1.71
X8.4Y-4.45
X8.4Y-4.5
X8.4Y-4.55
X6.5Y-1.65
X6.55Y-1.65
X6.6Y-1.65
X2.9Y-1.7
X2.95Y-1.7
X3.0Y-1.7
X5.3Y-1.65
X5.35Y-1.65
X5.4Y-1.65
T3
X3.8Y-4.45
X3.8Y-4.5
X3.8Y-4.55
X7.28Y-0.96
X7.33Y-0.96
X7.38Y-0.96
X6.8Y-5.45
X6.85Y-5.45
X6.9Y-5.45
X5.0Y-5.45
X5.05Y-5.45
X5.1Y-5.45
X4.5Y-0.95
X4.55Y-0.95
X4.6Y-0.95
X2.75Y-2.85
X2.8Y-2.85
X2.85Y-2.85
X5.0Y-5.11
X5.05Y-5.11
X5.1Y-5.11
X6.8Y-4.35
X6.85Y-4.35
X6.9Y-4.35
X6.8Y-5.1
X6.85Y-5.1
X6.9Y-5.1
X5.0Y-4.35
X5.05Y-4.35
X5.1Y-4.35
X8.1Y-4.45
X8.1Y-4.5
X8.1Y-4.55
X7.8Y-4.45
X7.8Y-4.5
X7.8Y-4.55
X4.1Y-4.45
X4.1Y-4.5
X4.1Y-4.55
X9.02Y-2.84
X9.07Y-2.84
X9.12Y-2.84
T4
X3.45Y-5.1
X3.45Y-5.6
X2.6Y-3.9
X3.1Y-3.9
X8.8Y-3.9
X9.3Y-3.9
X7.7Y-5.2
X8.2Y-5.2
X3.2Y-1.7
X3.2Y-2.2
X2.6Y-2.6
X2.6Y-2.9
X5.3Y-5.1
X5.8Y-5.1
X8.21Y-3.0
X8.21Y-3.5
X9.06Y-5.3131
X9.06Y-5.51
X7.25Y-1.6
X7.25Y-2.1
X7.45Y-1.59
X7.45Y-2.09
X8.8Y-4.2
X9.3Y-4.2
X8.7Y-1.7
X8.7Y-2.2
X6.3Y-4.2
X6.6Y-4.2
X8.8Y-5.3131
X8.8Y-5.51
X3.1Y-5.3031
X3.1Y-5.5
X4.5016Y-4.55
X4.6Y-4.55
X4.7Y-1.6
X4.7Y-2.1
X9.3Y-5.31
X9.3Y-5.5069
X7.3Y-3.8516
X7.3Y-3.95
X6.25Y-4.5
X6.35Y-4.5
X6.45Y-4.5
X3.9016Y-3.2
X4.0Y-3.2
X3.45Y-3.0
X3.45Y-3.5
X8.5Y-1.7
X8.5Y-2.2
X4.45Y-5.05
X4.6469Y-5.05
X2.6Y-3.6
X3.1Y-3.6
X9.3Y-2.6
X9.3Y-2.9
X3.4Y-1.7
X3.4Y-2.2
X8.8Y-5.1
X9.3Y-5.1
X5.3Y-3.05
X5.8Y-3.05
X5.3Y-3.35
X5.8Y-3.35
X8.8Y-4.5
X9.3Y-4.5
X7.95Y-3.7
X7.95Y-4.2
X8.45Y-5.1
X8.45Y-5.6
X8.45Y-3.0
X8.45Y-3.5
X5.3Y-3.65
X5.8Y-3.65
X7.2531Y-5.05
X7.45Y-5.05
X8.8Y-4.8
X9.3Y-4.8
X5.3Y-4.2
X5.6Y-4.2
X8.45Y-3.7
X8.45Y-4.2
X7.7Y-4.96
X8.2Y-4.96
X2.6Y-5.1
X3.1Y-5.1
X3.45Y-4.75
X3.45Y-4.9469
X7.7Y-4.75
X8.2Y-4.75
X6.1Y-3.95
X6.6Y-3.95
X7.7Y-3.7
X7.7Y-4.2
X6.1Y-3.35
X6.6Y-3.35
X5.3Y-4.8
X5.8Y-4.8
X4.45Y-1.6
X4.45Y-2.1
X8.8Y-3.6
X9.3Y-3.6
X5.45Y-4.5
X5.55Y-4.5
X5.65Y-4.5
X6.1Y-2.75
X6.6Y-2.75
X3.7Y-4.75
X4.2Y-4.75
X2.6Y-4.5
X3.1Y-4.5
X7.9Y-3.2
X7.9984Y-3.2
X8.2Y-3.7
X8.2Y-4.2
X2.6Y-5.3
X2.6Y-5.4969
X3.7Y-3.7
X3.7Y-4.2
X3.45Y-3.7
X3.45Y-4.2
X5.3Y-5.45
X5.8Y-5.45
X6.1Y-5.1
X6.6Y-5.1
X6.1Y-3.05
X6.6Y-3.05
X5.3Y-2.75
X5.8Y-2.75
X3.7Y-5.2
X4.2Y-5.2
X2.6Y-4.2
X3.1Y-4.2
X2.6Y-4.8
X3.1Y-4.8
X4.6Y-3.8516
X4.6Y-3.95
X6.55Y-1.95
X6.55Y-2.45
X7.25Y-4.55
X7.3484Y-4.55
X4.2Y-3.7
X4.2Y-4.2
X3.7Y-4.97
X4.2Y-4.97
X5.35Y-1.95
X5.35Y-2.45
X6.1Y-4.8
X6.6Y-4.8
X6.1Y-5.45
X6.6Y-5.45
X5.3Y-3.95
X5.8Y-3.95
X8.45Y-4.7531
X8.45Y-4.95
X2.85Y-5.3031
X2.85Y-5.5
X3.7Y-3.0
X3.7Y-3.5
X3.95Y-3.7
X3.95Y-4.2
X6.1Y-3.65
X6.6Y-3.65
T5
X2.6Y-3.1
X3.0Y-3.1
X4.45Y-3.05
X4.45Y-3.45
X4.25Y-3.05
X4.25Y-3.45
X8.9Y-3.1
X9.3Y-3.1
X4.175Y-1.6
X4.175Y-2.4
X4.65Y-3.05
X4.65Y-3.45
X7.65Y-3.05
X7.65Y-3.45
X7.45Y-3.05
X7.45Y-3.45
X7.25Y-3.05
X7.25Y-3.45
X7.73Y-1.59
X7.73Y-2.39
X2.6Y-3.35
X3.0Y-3.35
X8.9Y-3.35
X9.3Y-3.35
T6
X5.0Y-1.55
X5.0Y-2.1406
X6.9Y-2.95
X6.9Y-3.5406
X4.7Y-2.5
X4.7Y-2.6969
X3.1Y-2.65
X3.2969Y-2.65
X8.6031Y-2.65
X8.8Y-2.65
X2.9Y-1.3
X3.9Y-1.3
X7.2Y-2.5
X7.2Y-2.6969
X8.49Y-1.485
X8.49Y-1.585
X4.45Y-1.3
X5.45Y-1.3
X7.25Y-5.4
X7.25Y-5.5
X7.25Y-5.6
X7.25Y-5.7
X4.65Y-5.4
X4.65Y-5.5
X4.65Y-5.6
X4.65Y-5.7
X6.45Y-1.3
X7.45Y-1.3
X8.0Y-1.3
X9.0Y-1.3
X5.0Y-2.944
X5.0Y-3.5346
X6.9Y-1.55
X6.9Y-2.1406
X3.405Y-1.485
X3.405Y-1.585
T7
X7.63Y-1.3
X7.8269Y-1.3
X7.65Y-2.9
X7.8469Y-2.9
X4.0766Y-1.3
X4.2734Y-1.3
X4.0616Y-2.88
X4.2584Y-2.88
X2.6016Y-2.45
X2.7984Y-2.45
X9.1016Y-2.45
X9.2984Y-2.45
X6.1516Y-2.45
X6.3484Y-2.45
X5.55Y-2.45
X5.7469Y-2.45
T8
X3.75Y-1.5
X3.75Y-2.3898
X2.6Y-1.2602
X2.6Y-2.15
X9.3Y-1.2602
X9.3Y-2.15
X6.15Y-1.2602
X6.15Y-2.15
X8.5Y-1.0
X8.7156Y-1.0
X8.9311Y-1.0
X2.95Y-1.0
X3.1656Y-1.0
X3.3811Y-1.0
X6.52Y-1.0
X6.7356Y-1.0
X6.9511Y-1.0
X8.15Y-1.5002
X8.15Y-2.39
X4.18Y-2.51
X4.18Y-2.61
X4.18Y-2.71
X5.75Y-1.2602
X5.75Y-2.15
X7.73Y-2.5
X7.73Y-2.6
X7.73Y-2.7
X4.95Y-1.0
X5.1656Y-1.0
X5.3811Y-1.0
T0
M30
