G04 #@! TF.GenerationSoftware,KiCad,Pcbnew,5.1.5-1.fc31*
G04 #@! TF.CreationDate,2020-04-14T16:18:05+01:00*
G04 #@! TF.ProjectId,AR_A60_PA_25502_Issue8_v8.0,41525f41-3630-45f5-9041-5f3235353032,rev?*
G04 #@! TF.SameCoordinates,Original*
G04 #@! TF.FileFunction,Legend,Bot*
G04 #@! TF.FilePolarity,Positive*
%FSLAX46Y46*%
G04 Gerber Fmt 4.6, Leading zero omitted, Abs format (unit mm)*
G04 Created by KiCad (PCBNEW 5.1.5-1.fc31) date 2020-04-14 16:18:05*
%MOMM*%
%LPD*%
G04 APERTURE LIST*
%ADD10C,0.150000*%
G04 APERTURE END LIST*
D10*
X144826190Y-60746666D02*
X144350000Y-60746666D01*
X144921428Y-61032380D02*
X144588095Y-60032380D01*
X144254761Y-61032380D01*
X143111904Y-61032380D02*
X143159523Y-61032380D01*
X143254761Y-60984761D01*
X143397619Y-60841904D01*
X143635714Y-60556190D01*
X143730952Y-60413333D01*
X143778571Y-60270476D01*
X143778571Y-60175238D01*
X143730952Y-60080000D01*
X143635714Y-60032380D01*
X143588095Y-60032380D01*
X143492857Y-60080000D01*
X143445238Y-60175238D01*
X143445238Y-60222857D01*
X143492857Y-60318095D01*
X143540476Y-60365714D01*
X143826190Y-60556190D01*
X143873809Y-60603809D01*
X143921428Y-60699047D01*
X143921428Y-60841904D01*
X143873809Y-60937142D01*
X143826190Y-60984761D01*
X143730952Y-61032380D01*
X143588095Y-61032380D01*
X143492857Y-60984761D01*
X143445238Y-60937142D01*
X143302380Y-60746666D01*
X143254761Y-60603809D01*
X143254761Y-60508571D01*
X142111904Y-61032380D02*
X142445238Y-60556190D01*
X142683333Y-61032380D02*
X142683333Y-60032380D01*
X142302380Y-60032380D01*
X142207142Y-60080000D01*
X142159523Y-60127619D01*
X142111904Y-60222857D01*
X142111904Y-60365714D01*
X142159523Y-60460952D01*
X142207142Y-60508571D01*
X142302380Y-60556190D01*
X142683333Y-60556190D01*
X140969047Y-60746666D02*
X140492857Y-60746666D01*
X141064285Y-61032380D02*
X140730952Y-60032380D01*
X140397619Y-61032380D01*
X139635714Y-60032380D02*
X139826190Y-60032380D01*
X139921428Y-60080000D01*
X139969047Y-60127619D01*
X140064285Y-60270476D01*
X140111904Y-60460952D01*
X140111904Y-60841904D01*
X140064285Y-60937142D01*
X140016666Y-60984761D01*
X139921428Y-61032380D01*
X139730952Y-61032380D01*
X139635714Y-60984761D01*
X139588095Y-60937142D01*
X139540476Y-60841904D01*
X139540476Y-60603809D01*
X139588095Y-60508571D01*
X139635714Y-60460952D01*
X139730952Y-60413333D01*
X139921428Y-60413333D01*
X140016666Y-60460952D01*
X140064285Y-60508571D01*
X140111904Y-60603809D01*
X138921428Y-60032380D02*
X138826190Y-60032380D01*
X138730952Y-60080000D01*
X138683333Y-60127619D01*
X138635714Y-60222857D01*
X138588095Y-60413333D01*
X138588095Y-60651428D01*
X138635714Y-60841904D01*
X138683333Y-60937142D01*
X138730952Y-60984761D01*
X138826190Y-61032380D01*
X138921428Y-61032380D01*
X139016666Y-60984761D01*
X139064285Y-60937142D01*
X139111904Y-60841904D01*
X139159523Y-60651428D01*
X139159523Y-60413333D01*
X139111904Y-60222857D01*
X139064285Y-60127619D01*
X139016666Y-60080000D01*
X138921428Y-60032380D01*
X137111904Y-61413333D02*
X137159523Y-61365714D01*
X137254761Y-61222857D01*
X137302380Y-61127619D01*
X137350000Y-60984761D01*
X137397619Y-60746666D01*
X137397619Y-60556190D01*
X137350000Y-60318095D01*
X137302380Y-60175238D01*
X137254761Y-60080000D01*
X137159523Y-59937142D01*
X137111904Y-59889523D01*
X136730952Y-61032380D02*
X136730952Y-60365714D01*
X136730952Y-60032380D02*
X136778571Y-60080000D01*
X136730952Y-60127619D01*
X136683333Y-60080000D01*
X136730952Y-60032380D01*
X136730952Y-60127619D01*
X136302380Y-60984761D02*
X136207142Y-61032380D01*
X136016666Y-61032380D01*
X135921428Y-60984761D01*
X135873809Y-60889523D01*
X135873809Y-60841904D01*
X135921428Y-60746666D01*
X136016666Y-60699047D01*
X136159523Y-60699047D01*
X136254761Y-60651428D01*
X136302380Y-60556190D01*
X136302380Y-60508571D01*
X136254761Y-60413333D01*
X136159523Y-60365714D01*
X136016666Y-60365714D01*
X135921428Y-60413333D01*
X135492857Y-60984761D02*
X135397619Y-61032380D01*
X135207142Y-61032380D01*
X135111904Y-60984761D01*
X135064285Y-60889523D01*
X135064285Y-60841904D01*
X135111904Y-60746666D01*
X135207142Y-60699047D01*
X135350000Y-60699047D01*
X135445238Y-60651428D01*
X135492857Y-60556190D01*
X135492857Y-60508571D01*
X135445238Y-60413333D01*
X135350000Y-60365714D01*
X135207142Y-60365714D01*
X135111904Y-60413333D01*
X134207142Y-60365714D02*
X134207142Y-61032380D01*
X134635714Y-60365714D02*
X134635714Y-60889523D01*
X134588095Y-60984761D01*
X134492857Y-61032380D01*
X134350000Y-61032380D01*
X134254761Y-60984761D01*
X134207142Y-60937142D01*
X133350000Y-60984761D02*
X133445238Y-61032380D01*
X133635714Y-61032380D01*
X133730952Y-60984761D01*
X133778571Y-60889523D01*
X133778571Y-60508571D01*
X133730952Y-60413333D01*
X133635714Y-60365714D01*
X133445238Y-60365714D01*
X133350000Y-60413333D01*
X133302380Y-60508571D01*
X133302380Y-60603809D01*
X133778571Y-60699047D01*
X131969047Y-60460952D02*
X132064285Y-60413333D01*
X132111904Y-60365714D01*
X132159523Y-60270476D01*
X132159523Y-60222857D01*
X132111904Y-60127619D01*
X132064285Y-60080000D01*
X131969047Y-60032380D01*
X131778571Y-60032380D01*
X131683333Y-60080000D01*
X131635714Y-60127619D01*
X131588095Y-60222857D01*
X131588095Y-60270476D01*
X131635714Y-60365714D01*
X131683333Y-60413333D01*
X131778571Y-60460952D01*
X131969047Y-60460952D01*
X132064285Y-60508571D01*
X132111904Y-60556190D01*
X132159523Y-60651428D01*
X132159523Y-60841904D01*
X132111904Y-60937142D01*
X132064285Y-60984761D01*
X131969047Y-61032380D01*
X131778571Y-61032380D01*
X131683333Y-60984761D01*
X131635714Y-60937142D01*
X131588095Y-60841904D01*
X131588095Y-60651428D01*
X131635714Y-60556190D01*
X131683333Y-60508571D01*
X131778571Y-60460952D01*
X131254761Y-61413333D02*
X131207142Y-61365714D01*
X131111904Y-61222857D01*
X131064285Y-61127619D01*
X131016666Y-60984761D01*
X130969047Y-60746666D01*
X130969047Y-60556190D01*
X131016666Y-60318095D01*
X131064285Y-60175238D01*
X131111904Y-60080000D01*
X131207142Y-59937142D01*
X131254761Y-59889523D01*
X129730952Y-61032380D02*
X129730952Y-60032380D01*
X129350000Y-60032380D01*
X129254761Y-60080000D01*
X129207142Y-60127619D01*
X129159523Y-60222857D01*
X129159523Y-60365714D01*
X129207142Y-60460952D01*
X129254761Y-60508571D01*
X129350000Y-60556190D01*
X129730952Y-60556190D01*
X128588095Y-61032380D02*
X128683333Y-60984761D01*
X128730952Y-60937142D01*
X128778571Y-60841904D01*
X128778571Y-60556190D01*
X128730952Y-60460952D01*
X128683333Y-60413333D01*
X128588095Y-60365714D01*
X128445238Y-60365714D01*
X128350000Y-60413333D01*
X128302380Y-60460952D01*
X128254761Y-60556190D01*
X128254761Y-60841904D01*
X128302380Y-60937142D01*
X128350000Y-60984761D01*
X128445238Y-61032380D01*
X128588095Y-61032380D01*
X127921428Y-60365714D02*
X127730952Y-61032380D01*
X127540476Y-60556190D01*
X127350000Y-61032380D01*
X127159523Y-60365714D01*
X126397619Y-60984761D02*
X126492857Y-61032380D01*
X126683333Y-61032380D01*
X126778571Y-60984761D01*
X126826190Y-60889523D01*
X126826190Y-60508571D01*
X126778571Y-60413333D01*
X126683333Y-60365714D01*
X126492857Y-60365714D01*
X126397619Y-60413333D01*
X126350000Y-60508571D01*
X126350000Y-60603809D01*
X126826190Y-60699047D01*
X125921428Y-61032380D02*
X125921428Y-60365714D01*
X125921428Y-60556190D02*
X125873809Y-60460952D01*
X125826190Y-60413333D01*
X125730952Y-60365714D01*
X125635714Y-60365714D01*
X124588095Y-60746666D02*
X124111904Y-60746666D01*
X124683333Y-61032380D02*
X124350000Y-60032380D01*
X124016666Y-61032380D01*
X123683333Y-61032380D02*
X123683333Y-60365714D01*
X123683333Y-60460952D02*
X123635714Y-60413333D01*
X123540476Y-60365714D01*
X123397619Y-60365714D01*
X123302380Y-60413333D01*
X123254761Y-60508571D01*
X123254761Y-61032380D01*
X123254761Y-60508571D02*
X123207142Y-60413333D01*
X123111904Y-60365714D01*
X122969047Y-60365714D01*
X122873809Y-60413333D01*
X122826190Y-60508571D01*
X122826190Y-61032380D01*
X122350000Y-60365714D02*
X122350000Y-61365714D01*
X122350000Y-60413333D02*
X122254761Y-60365714D01*
X122064285Y-60365714D01*
X121969047Y-60413333D01*
X121921428Y-60460952D01*
X121873809Y-60556190D01*
X121873809Y-60841904D01*
X121921428Y-60937142D01*
X121969047Y-60984761D01*
X122064285Y-61032380D01*
X122254761Y-61032380D01*
X122350000Y-60984761D01*
X159254761Y-62634761D02*
X159111904Y-62682380D01*
X158873809Y-62682380D01*
X158778571Y-62634761D01*
X158730952Y-62587142D01*
X158683333Y-62491904D01*
X158683333Y-62396666D01*
X158730952Y-62301428D01*
X158778571Y-62253809D01*
X158873809Y-62206190D01*
X159064285Y-62158571D01*
X159159523Y-62110952D01*
X159207142Y-62063333D01*
X159254761Y-61968095D01*
X159254761Y-61872857D01*
X159207142Y-61777619D01*
X159159523Y-61730000D01*
X159064285Y-61682380D01*
X158826190Y-61682380D01*
X158683333Y-61730000D01*
X157826190Y-62634761D02*
X157921428Y-62682380D01*
X158111904Y-62682380D01*
X158207142Y-62634761D01*
X158254761Y-62587142D01*
X158302380Y-62491904D01*
X158302380Y-62206190D01*
X158254761Y-62110952D01*
X158207142Y-62063333D01*
X158111904Y-62015714D01*
X157921428Y-62015714D01*
X157826190Y-62063333D01*
X157397619Y-62682380D02*
X157397619Y-61682380D01*
X156969047Y-62682380D02*
X156969047Y-62158571D01*
X157016666Y-62063333D01*
X157111904Y-62015714D01*
X157254761Y-62015714D01*
X157350000Y-62063333D01*
X157397619Y-62110952D01*
X156111904Y-62634761D02*
X156207142Y-62682380D01*
X156397619Y-62682380D01*
X156492857Y-62634761D01*
X156540476Y-62539523D01*
X156540476Y-62158571D01*
X156492857Y-62063333D01*
X156397619Y-62015714D01*
X156207142Y-62015714D01*
X156111904Y-62063333D01*
X156064285Y-62158571D01*
X156064285Y-62253809D01*
X156540476Y-62349047D01*
X155635714Y-62682380D02*
X155635714Y-62015714D01*
X155635714Y-62110952D02*
X155588095Y-62063333D01*
X155492857Y-62015714D01*
X155350000Y-62015714D01*
X155254761Y-62063333D01*
X155207142Y-62158571D01*
X155207142Y-62682380D01*
X155207142Y-62158571D02*
X155159523Y-62063333D01*
X155064285Y-62015714D01*
X154921428Y-62015714D01*
X154826190Y-62063333D01*
X154778571Y-62158571D01*
X154778571Y-62682380D01*
X153873809Y-62682380D02*
X153873809Y-62158571D01*
X153921428Y-62063333D01*
X154016666Y-62015714D01*
X154207142Y-62015714D01*
X154302380Y-62063333D01*
X153873809Y-62634761D02*
X153969047Y-62682380D01*
X154207142Y-62682380D01*
X154302380Y-62634761D01*
X154350000Y-62539523D01*
X154350000Y-62444285D01*
X154302380Y-62349047D01*
X154207142Y-62301428D01*
X153969047Y-62301428D01*
X153873809Y-62253809D01*
X153540476Y-62015714D02*
X153159523Y-62015714D01*
X153397619Y-61682380D02*
X153397619Y-62539523D01*
X153350000Y-62634761D01*
X153254761Y-62682380D01*
X153159523Y-62682380D01*
X152826190Y-62682380D02*
X152826190Y-62015714D01*
X152826190Y-61682380D02*
X152873809Y-61730000D01*
X152826190Y-61777619D01*
X152778571Y-61730000D01*
X152826190Y-61682380D01*
X152826190Y-61777619D01*
X151921428Y-62634761D02*
X152016666Y-62682380D01*
X152207142Y-62682380D01*
X152302380Y-62634761D01*
X152350000Y-62587142D01*
X152397619Y-62491904D01*
X152397619Y-62206190D01*
X152350000Y-62110952D01*
X152302380Y-62063333D01*
X152207142Y-62015714D01*
X152016666Y-62015714D01*
X151921428Y-62063333D01*
X150159523Y-62587142D02*
X150207142Y-62634761D01*
X150350000Y-62682380D01*
X150445238Y-62682380D01*
X150588095Y-62634761D01*
X150683333Y-62539523D01*
X150730952Y-62444285D01*
X150778571Y-62253809D01*
X150778571Y-62110952D01*
X150730952Y-61920476D01*
X150683333Y-61825238D01*
X150588095Y-61730000D01*
X150445238Y-61682380D01*
X150350000Y-61682380D01*
X150207142Y-61730000D01*
X150159523Y-61777619D01*
X149588095Y-62682380D02*
X149683333Y-62634761D01*
X149730952Y-62587142D01*
X149778571Y-62491904D01*
X149778571Y-62206190D01*
X149730952Y-62110952D01*
X149683333Y-62063333D01*
X149588095Y-62015714D01*
X149445238Y-62015714D01*
X149350000Y-62063333D01*
X149302380Y-62110952D01*
X149254761Y-62206190D01*
X149254761Y-62491904D01*
X149302380Y-62587142D01*
X149350000Y-62634761D01*
X149445238Y-62682380D01*
X149588095Y-62682380D01*
X148826190Y-62015714D02*
X148826190Y-63015714D01*
X148826190Y-62063333D02*
X148730952Y-62015714D01*
X148540476Y-62015714D01*
X148445238Y-62063333D01*
X148397619Y-62110952D01*
X148350000Y-62206190D01*
X148350000Y-62491904D01*
X148397619Y-62587142D01*
X148445238Y-62634761D01*
X148540476Y-62682380D01*
X148730952Y-62682380D01*
X148826190Y-62634761D01*
X148016666Y-62015714D02*
X147778571Y-62682380D01*
X147540476Y-62015714D02*
X147778571Y-62682380D01*
X147873809Y-62920476D01*
X147921428Y-62968095D01*
X148016666Y-63015714D01*
X147159523Y-62682380D02*
X147159523Y-62015714D01*
X147159523Y-62206190D02*
X147111904Y-62110952D01*
X147064285Y-62063333D01*
X146969047Y-62015714D01*
X146873809Y-62015714D01*
X146540476Y-62682380D02*
X146540476Y-62015714D01*
X146540476Y-61682380D02*
X146588095Y-61730000D01*
X146540476Y-61777619D01*
X146492857Y-61730000D01*
X146540476Y-61682380D01*
X146540476Y-61777619D01*
X145635714Y-62015714D02*
X145635714Y-62825238D01*
X145683333Y-62920476D01*
X145730952Y-62968095D01*
X145826190Y-63015714D01*
X145969047Y-63015714D01*
X146064285Y-62968095D01*
X145635714Y-62634761D02*
X145730952Y-62682380D01*
X145921428Y-62682380D01*
X146016666Y-62634761D01*
X146064285Y-62587142D01*
X146111904Y-62491904D01*
X146111904Y-62206190D01*
X146064285Y-62110952D01*
X146016666Y-62063333D01*
X145921428Y-62015714D01*
X145730952Y-62015714D01*
X145635714Y-62063333D01*
X145159523Y-62682380D02*
X145159523Y-61682380D01*
X144730952Y-62682380D02*
X144730952Y-62158571D01*
X144778571Y-62063333D01*
X144873809Y-62015714D01*
X145016666Y-62015714D01*
X145111904Y-62063333D01*
X145159523Y-62110952D01*
X144397619Y-62015714D02*
X144016666Y-62015714D01*
X144254761Y-61682380D02*
X144254761Y-62539523D01*
X144207142Y-62634761D01*
X144111904Y-62682380D01*
X144016666Y-62682380D01*
X142969047Y-62396666D02*
X142492857Y-62396666D01*
X143064285Y-62682380D02*
X142730952Y-61682380D01*
X142397619Y-62682380D01*
X142111904Y-62634761D02*
X142016666Y-62682380D01*
X141826190Y-62682380D01*
X141730952Y-62634761D01*
X141683333Y-62539523D01*
X141683333Y-62491904D01*
X141730952Y-62396666D01*
X141826190Y-62349047D01*
X141969047Y-62349047D01*
X142064285Y-62301428D01*
X142111904Y-62206190D01*
X142111904Y-62158571D01*
X142064285Y-62063333D01*
X141969047Y-62015714D01*
X141826190Y-62015714D01*
X141730952Y-62063333D01*
X140492857Y-62682380D02*
X140492857Y-61682380D01*
X140111904Y-61682380D01*
X140016666Y-61730000D01*
X139969047Y-61777619D01*
X139921428Y-61872857D01*
X139921428Y-62015714D01*
X139969047Y-62110952D01*
X140016666Y-62158571D01*
X140111904Y-62206190D01*
X140492857Y-62206190D01*
X139111904Y-62634761D02*
X139207142Y-62682380D01*
X139397619Y-62682380D01*
X139492857Y-62634761D01*
X139540476Y-62539523D01*
X139540476Y-62158571D01*
X139492857Y-62063333D01*
X139397619Y-62015714D01*
X139207142Y-62015714D01*
X139111904Y-62063333D01*
X139064285Y-62158571D01*
X139064285Y-62253809D01*
X139540476Y-62349047D01*
X138635714Y-62682380D02*
X138635714Y-62015714D01*
X138635714Y-62206190D02*
X138588095Y-62110952D01*
X138540476Y-62063333D01*
X138445238Y-62015714D01*
X138350000Y-62015714D01*
X137064285Y-61682380D02*
X136873809Y-61682380D01*
X136778571Y-61730000D01*
X136683333Y-61825238D01*
X136635714Y-62015714D01*
X136635714Y-62349047D01*
X136683333Y-62539523D01*
X136778571Y-62634761D01*
X136873809Y-62682380D01*
X137064285Y-62682380D01*
X137159523Y-62634761D01*
X137254761Y-62539523D01*
X137302380Y-62349047D01*
X137302380Y-62015714D01*
X137254761Y-61825238D01*
X137159523Y-61730000D01*
X137064285Y-61682380D01*
X136207142Y-62682380D02*
X136207142Y-62015714D01*
X136207142Y-62206190D02*
X136159523Y-62110952D01*
X136111904Y-62063333D01*
X136016666Y-62015714D01*
X135921428Y-62015714D01*
X135588095Y-62682380D02*
X135588095Y-62015714D01*
X135588095Y-61682380D02*
X135635714Y-61730000D01*
X135588095Y-61777619D01*
X135540476Y-61730000D01*
X135588095Y-61682380D01*
X135588095Y-61777619D01*
X134683333Y-62015714D02*
X134683333Y-62825238D01*
X134730952Y-62920476D01*
X134778571Y-62968095D01*
X134873809Y-63015714D01*
X135016666Y-63015714D01*
X135111904Y-62968095D01*
X134683333Y-62634761D02*
X134778571Y-62682380D01*
X134969047Y-62682380D01*
X135064285Y-62634761D01*
X135111904Y-62587142D01*
X135159523Y-62491904D01*
X135159523Y-62206190D01*
X135111904Y-62110952D01*
X135064285Y-62063333D01*
X134969047Y-62015714D01*
X134778571Y-62015714D01*
X134683333Y-62063333D01*
X134207142Y-62682380D02*
X134207142Y-62015714D01*
X134207142Y-61682380D02*
X134254761Y-61730000D01*
X134207142Y-61777619D01*
X134159523Y-61730000D01*
X134207142Y-61682380D01*
X134207142Y-61777619D01*
X133730952Y-62015714D02*
X133730952Y-62682380D01*
X133730952Y-62110952D02*
X133683333Y-62063333D01*
X133588095Y-62015714D01*
X133445238Y-62015714D01*
X133349999Y-62063333D01*
X133302380Y-62158571D01*
X133302380Y-62682380D01*
X132397619Y-62682380D02*
X132397619Y-62158571D01*
X132445238Y-62063333D01*
X132540476Y-62015714D01*
X132730952Y-62015714D01*
X132826190Y-62063333D01*
X132397619Y-62634761D02*
X132492857Y-62682380D01*
X132730952Y-62682380D01*
X132826190Y-62634761D01*
X132873809Y-62539523D01*
X132873809Y-62444285D01*
X132826190Y-62349047D01*
X132730952Y-62301428D01*
X132492857Y-62301428D01*
X132397619Y-62253809D01*
X131778571Y-62682380D02*
X131873809Y-62634761D01*
X131921428Y-62539523D01*
X131921428Y-61682380D01*
X130445238Y-61682380D02*
X130254761Y-61682380D01*
X130159523Y-61730000D01*
X130064285Y-61825238D01*
X130016666Y-62015714D01*
X130016666Y-62349047D01*
X130064285Y-62539523D01*
X130159523Y-62634761D01*
X130254761Y-62682380D01*
X130445238Y-62682380D01*
X130540476Y-62634761D01*
X130635714Y-62539523D01*
X130683333Y-62349047D01*
X130683333Y-62015714D01*
X130635714Y-61825238D01*
X130540476Y-61730000D01*
X130445238Y-61682380D01*
X129683333Y-62015714D02*
X129492857Y-62682380D01*
X129302380Y-62206190D01*
X129111904Y-62682380D01*
X128921428Y-62015714D01*
X128540476Y-62015714D02*
X128540476Y-62682380D01*
X128540476Y-62110952D02*
X128492857Y-62063333D01*
X128397619Y-62015714D01*
X128254761Y-62015714D01*
X128159523Y-62063333D01*
X128111904Y-62158571D01*
X128111904Y-62682380D01*
X127254761Y-62634761D02*
X127350000Y-62682380D01*
X127540476Y-62682380D01*
X127635714Y-62634761D01*
X127683333Y-62539523D01*
X127683333Y-62158571D01*
X127635714Y-62063333D01*
X127540476Y-62015714D01*
X127350000Y-62015714D01*
X127254761Y-62063333D01*
X127207142Y-62158571D01*
X127207142Y-62253809D01*
X127683333Y-62349047D01*
X126778571Y-62682380D02*
X126778571Y-62015714D01*
X126778571Y-62206190D02*
X126730952Y-62110952D01*
X126683333Y-62063333D01*
X126588095Y-62015714D01*
X126492857Y-62015714D01*
X126207142Y-62634761D02*
X126111904Y-62682380D01*
X125921428Y-62682380D01*
X125826190Y-62634761D01*
X125778571Y-62539523D01*
X125778571Y-62491904D01*
X125826190Y-62396666D01*
X125921428Y-62349047D01*
X126064285Y-62349047D01*
X126159523Y-62301428D01*
X126207142Y-62206190D01*
X126207142Y-62158571D01*
X126159523Y-62063333D01*
X126064285Y-62015714D01*
X125921428Y-62015714D01*
X125826190Y-62063333D01*
X125302380Y-62634761D02*
X125302380Y-62682380D01*
X125350000Y-62777619D01*
X125397619Y-62825238D01*
X124111904Y-62682380D02*
X124111904Y-61682380D01*
X124111904Y-62158571D02*
X123540476Y-62158571D01*
X123540476Y-62682380D02*
X123540476Y-61682380D01*
X122635714Y-62682380D02*
X122635714Y-62158571D01*
X122683333Y-62063333D01*
X122778571Y-62015714D01*
X122969047Y-62015714D01*
X123064285Y-62063333D01*
X122635714Y-62634761D02*
X122730952Y-62682380D01*
X122969047Y-62682380D01*
X123064285Y-62634761D01*
X123111904Y-62539523D01*
X123111904Y-62444285D01*
X123064285Y-62349047D01*
X122969047Y-62301428D01*
X122730952Y-62301428D01*
X122635714Y-62253809D01*
X122159523Y-62682380D02*
X122159523Y-62015714D01*
X122159523Y-62206190D02*
X122111904Y-62110952D01*
X122064285Y-62063333D01*
X121969047Y-62015714D01*
X121873809Y-62015714D01*
X121111904Y-62682380D02*
X121111904Y-61682380D01*
X121111904Y-62634761D02*
X121207142Y-62682380D01*
X121397619Y-62682380D01*
X121492857Y-62634761D01*
X121540476Y-62587142D01*
X121588095Y-62491904D01*
X121588095Y-62206190D01*
X121540476Y-62110952D01*
X121492857Y-62063333D01*
X121397619Y-62015714D01*
X121207142Y-62015714D01*
X121111904Y-62063333D01*
X120730952Y-62015714D02*
X120540476Y-62682380D01*
X120350000Y-62206190D01*
X120159523Y-62682380D01*
X119969047Y-62015714D01*
X119159523Y-62682380D02*
X119159523Y-62158571D01*
X119207142Y-62063333D01*
X119302380Y-62015714D01*
X119492857Y-62015714D01*
X119588095Y-62063333D01*
X119159523Y-62634761D02*
X119254761Y-62682380D01*
X119492857Y-62682380D01*
X119588095Y-62634761D01*
X119635714Y-62539523D01*
X119635714Y-62444285D01*
X119588095Y-62349047D01*
X119492857Y-62301428D01*
X119254761Y-62301428D01*
X119159523Y-62253809D01*
X118683333Y-62682380D02*
X118683333Y-62015714D01*
X118683333Y-62206190D02*
X118635714Y-62110952D01*
X118588095Y-62063333D01*
X118492857Y-62015714D01*
X118397619Y-62015714D01*
X117683333Y-62634761D02*
X117778571Y-62682380D01*
X117969047Y-62682380D01*
X118064285Y-62634761D01*
X118111904Y-62539523D01*
X118111904Y-62158571D01*
X118064285Y-62063333D01*
X117969047Y-62015714D01*
X117778571Y-62015714D01*
X117683333Y-62063333D01*
X117635714Y-62158571D01*
X117635714Y-62253809D01*
X118111904Y-62349047D01*
X116445238Y-62682380D02*
X116445238Y-61682380D01*
X116207142Y-61682380D01*
X116064285Y-61730000D01*
X115969047Y-61825238D01*
X115921428Y-61920476D01*
X115873809Y-62110952D01*
X115873809Y-62253809D01*
X115921428Y-62444285D01*
X115969047Y-62539523D01*
X116064285Y-62634761D01*
X116207142Y-62682380D01*
X116445238Y-62682380D01*
X115064285Y-62634761D02*
X115159523Y-62682380D01*
X115350000Y-62682380D01*
X115445238Y-62634761D01*
X115492857Y-62539523D01*
X115492857Y-62158571D01*
X115445238Y-62063333D01*
X115350000Y-62015714D01*
X115159523Y-62015714D01*
X115064285Y-62063333D01*
X115016666Y-62158571D01*
X115016666Y-62253809D01*
X115492857Y-62349047D01*
X114635714Y-62634761D02*
X114540476Y-62682380D01*
X114350000Y-62682380D01*
X114254761Y-62634761D01*
X114207142Y-62539523D01*
X114207142Y-62491904D01*
X114254761Y-62396666D01*
X114350000Y-62349047D01*
X114492857Y-62349047D01*
X114588095Y-62301428D01*
X114635714Y-62206190D01*
X114635714Y-62158571D01*
X114588095Y-62063333D01*
X114492857Y-62015714D01*
X114350000Y-62015714D01*
X114254761Y-62063333D01*
X113778571Y-62682380D02*
X113778571Y-62015714D01*
X113778571Y-61682380D02*
X113826190Y-61730000D01*
X113778571Y-61777619D01*
X113730952Y-61730000D01*
X113778571Y-61682380D01*
X113778571Y-61777619D01*
X112873809Y-62015714D02*
X112873809Y-62825238D01*
X112921428Y-62920476D01*
X112969047Y-62968095D01*
X113064285Y-63015714D01*
X113207142Y-63015714D01*
X113302380Y-62968095D01*
X112873809Y-62634761D02*
X112969047Y-62682380D01*
X113159523Y-62682380D01*
X113254761Y-62634761D01*
X113302380Y-62587142D01*
X113350000Y-62491904D01*
X113350000Y-62206190D01*
X113302380Y-62110952D01*
X113254761Y-62063333D01*
X113159523Y-62015714D01*
X112969047Y-62015714D01*
X112873809Y-62063333D01*
X112397619Y-62015714D02*
X112397619Y-62682380D01*
X112397619Y-62110952D02*
X112350000Y-62063333D01*
X112254761Y-62015714D01*
X112111904Y-62015714D01*
X112016666Y-62063333D01*
X111969047Y-62158571D01*
X111969047Y-62682380D01*
X110540476Y-61682380D02*
X110350000Y-61682380D01*
X110254761Y-61730000D01*
X110159523Y-61825238D01*
X110111904Y-62015714D01*
X110111904Y-62349047D01*
X110159523Y-62539523D01*
X110254761Y-62634761D01*
X110350000Y-62682380D01*
X110540476Y-62682380D01*
X110635714Y-62634761D01*
X110730952Y-62539523D01*
X110778571Y-62349047D01*
X110778571Y-62015714D01*
X110730952Y-61825238D01*
X110635714Y-61730000D01*
X110540476Y-61682380D01*
X109683333Y-62015714D02*
X109683333Y-63015714D01*
X109683333Y-62063333D02*
X109588095Y-62015714D01*
X109397619Y-62015714D01*
X109302380Y-62063333D01*
X109254761Y-62110952D01*
X109207142Y-62206190D01*
X109207142Y-62491904D01*
X109254761Y-62587142D01*
X109302380Y-62634761D01*
X109397619Y-62682380D01*
X109588095Y-62682380D01*
X109683333Y-62634761D01*
X108397619Y-62634761D02*
X108492857Y-62682380D01*
X108683333Y-62682380D01*
X108778571Y-62634761D01*
X108826190Y-62539523D01*
X108826190Y-62158571D01*
X108778571Y-62063333D01*
X108683333Y-62015714D01*
X108492857Y-62015714D01*
X108397619Y-62063333D01*
X108350000Y-62158571D01*
X108350000Y-62253809D01*
X108826190Y-62349047D01*
X107921428Y-62015714D02*
X107921428Y-62682380D01*
X107921428Y-62110952D02*
X107873809Y-62063333D01*
X107778571Y-62015714D01*
X107635714Y-62015714D01*
X107540476Y-62063333D01*
X107492857Y-62158571D01*
X107492857Y-62682380D01*
X150850000Y-63380000D02*
X150945238Y-63332380D01*
X151088095Y-63332380D01*
X151230952Y-63380000D01*
X151326190Y-63475238D01*
X151373809Y-63570476D01*
X151421428Y-63760952D01*
X151421428Y-63903809D01*
X151373809Y-64094285D01*
X151326190Y-64189523D01*
X151230952Y-64284761D01*
X151088095Y-64332380D01*
X150992857Y-64332380D01*
X150850000Y-64284761D01*
X150802380Y-64237142D01*
X150802380Y-63903809D01*
X150992857Y-63903809D01*
X150373809Y-64332380D02*
X150373809Y-63665714D01*
X150373809Y-63856190D02*
X150326190Y-63760952D01*
X150278571Y-63713333D01*
X150183333Y-63665714D01*
X150088095Y-63665714D01*
X149326190Y-64332380D02*
X149326190Y-63808571D01*
X149373809Y-63713333D01*
X149469047Y-63665714D01*
X149659523Y-63665714D01*
X149754761Y-63713333D01*
X149326190Y-64284761D02*
X149421428Y-64332380D01*
X149659523Y-64332380D01*
X149754761Y-64284761D01*
X149802380Y-64189523D01*
X149802380Y-64094285D01*
X149754761Y-63999047D01*
X149659523Y-63951428D01*
X149421428Y-63951428D01*
X149326190Y-63903809D01*
X148850000Y-64332380D02*
X148850000Y-63332380D01*
X148421428Y-64332380D02*
X148421428Y-63808571D01*
X148469047Y-63713333D01*
X148564285Y-63665714D01*
X148707142Y-63665714D01*
X148802380Y-63713333D01*
X148850000Y-63760952D01*
X147516666Y-64332380D02*
X147516666Y-63808571D01*
X147564285Y-63713333D01*
X147659523Y-63665714D01*
X147850000Y-63665714D01*
X147945238Y-63713333D01*
X147516666Y-64284761D02*
X147611904Y-64332380D01*
X147850000Y-64332380D01*
X147945238Y-64284761D01*
X147992857Y-64189523D01*
X147992857Y-64094285D01*
X147945238Y-63999047D01*
X147850000Y-63951428D01*
X147611904Y-63951428D01*
X147516666Y-63903809D01*
X147040476Y-64332380D02*
X147040476Y-63665714D01*
X147040476Y-63760952D02*
X146992857Y-63713333D01*
X146897619Y-63665714D01*
X146754761Y-63665714D01*
X146659523Y-63713333D01*
X146611904Y-63808571D01*
X146611904Y-64332380D01*
X146611904Y-63808571D02*
X146564285Y-63713333D01*
X146469047Y-63665714D01*
X146326190Y-63665714D01*
X146230952Y-63713333D01*
X146183333Y-63808571D01*
X146183333Y-64332380D01*
X145707142Y-63951428D02*
X144945238Y-63951428D01*
X143897619Y-64332380D02*
X144230952Y-63856190D01*
X144469047Y-64332380D02*
X144469047Y-63332380D01*
X144088095Y-63332380D01*
X143992857Y-63380000D01*
X143945238Y-63427619D01*
X143897619Y-63522857D01*
X143897619Y-63665714D01*
X143945238Y-63760952D01*
X143992857Y-63808571D01*
X144088095Y-63856190D01*
X144469047Y-63856190D01*
X142421428Y-64713333D02*
X142469047Y-64665714D01*
X142564285Y-64522857D01*
X142611904Y-64427619D01*
X142659523Y-64284761D01*
X142707142Y-64046666D01*
X142707142Y-63856190D01*
X142659523Y-63618095D01*
X142611904Y-63475238D01*
X142564285Y-63380000D01*
X142469047Y-63237142D01*
X142421428Y-63189523D01*
X141611904Y-64284761D02*
X141707142Y-64332380D01*
X141897619Y-64332380D01*
X141992857Y-64284761D01*
X142040476Y-64237142D01*
X142088095Y-64141904D01*
X142088095Y-63856190D01*
X142040476Y-63760952D01*
X141992857Y-63713333D01*
X141897619Y-63665714D01*
X141707142Y-63665714D01*
X141611904Y-63713333D01*
X140516666Y-64713333D02*
X140469047Y-64665714D01*
X140373809Y-64522857D01*
X140326190Y-64427619D01*
X140278571Y-64284761D01*
X140230952Y-64046666D01*
X140230952Y-63856190D01*
X140278571Y-63618095D01*
X140326190Y-63475238D01*
X140373809Y-63380000D01*
X140469047Y-63237142D01*
X140516666Y-63189523D01*
X139040476Y-63427619D02*
X138992857Y-63380000D01*
X138897619Y-63332380D01*
X138659523Y-63332380D01*
X138564285Y-63380000D01*
X138516666Y-63427619D01*
X138469047Y-63522857D01*
X138469047Y-63618095D01*
X138516666Y-63760952D01*
X139088095Y-64332380D01*
X138469047Y-64332380D01*
X137850000Y-63332380D02*
X137754761Y-63332380D01*
X137659523Y-63380000D01*
X137611904Y-63427619D01*
X137564285Y-63522857D01*
X137516666Y-63713333D01*
X137516666Y-63951428D01*
X137564285Y-64141904D01*
X137611904Y-64237142D01*
X137659523Y-64284761D01*
X137754761Y-64332380D01*
X137850000Y-64332380D01*
X137945238Y-64284761D01*
X137992857Y-64237142D01*
X138040476Y-64141904D01*
X138088095Y-63951428D01*
X138088095Y-63713333D01*
X138040476Y-63522857D01*
X137992857Y-63427619D01*
X137945238Y-63380000D01*
X137850000Y-63332380D01*
X137135714Y-63427619D02*
X137088095Y-63380000D01*
X136992857Y-63332380D01*
X136754761Y-63332380D01*
X136659523Y-63380000D01*
X136611904Y-63427619D01*
X136564285Y-63522857D01*
X136564285Y-63618095D01*
X136611904Y-63760952D01*
X137183333Y-64332380D01*
X136564285Y-64332380D01*
X135945238Y-63332380D02*
X135850000Y-63332380D01*
X135754761Y-63380000D01*
X135707142Y-63427619D01*
X135659523Y-63522857D01*
X135611904Y-63713333D01*
X135611904Y-63951428D01*
X135659523Y-64141904D01*
X135707142Y-64237142D01*
X135754761Y-64284761D01*
X135850000Y-64332380D01*
X135945238Y-64332380D01*
X136040476Y-64284761D01*
X136088095Y-64237142D01*
X136135714Y-64141904D01*
X136183333Y-63951428D01*
X136183333Y-63713333D01*
X136135714Y-63522857D01*
X136088095Y-63427619D01*
X136040476Y-63380000D01*
X135945238Y-63332380D01*
X134421428Y-64332380D02*
X134421428Y-63332380D01*
X134040476Y-63332380D01*
X133945238Y-63380000D01*
X133897619Y-63427619D01*
X133850000Y-63522857D01*
X133850000Y-63665714D01*
X133897619Y-63760952D01*
X133945238Y-63808571D01*
X134040476Y-63856190D01*
X134421428Y-63856190D01*
X133421428Y-64332380D02*
X133421428Y-63665714D01*
X133421428Y-63332380D02*
X133469047Y-63380000D01*
X133421428Y-63427619D01*
X133373809Y-63380000D01*
X133421428Y-63332380D01*
X133421428Y-63427619D01*
X132945238Y-63665714D02*
X132945238Y-64332380D01*
X132945238Y-63760952D02*
X132897619Y-63713333D01*
X132802380Y-63665714D01*
X132659523Y-63665714D01*
X132564285Y-63713333D01*
X132516666Y-63808571D01*
X132516666Y-64332380D01*
X132040476Y-64332380D02*
X132040476Y-63332380D01*
X131945238Y-63951428D02*
X131659523Y-64332380D01*
X131659523Y-63665714D02*
X132040476Y-64046666D01*
X130897619Y-63808571D02*
X131230952Y-63808571D01*
X131230952Y-64332380D02*
X131230952Y-63332380D01*
X130754761Y-63332380D01*
X130373809Y-64332380D02*
X130373809Y-63665714D01*
X130373809Y-63332380D02*
X130421428Y-63380000D01*
X130373809Y-63427619D01*
X130326190Y-63380000D01*
X130373809Y-63332380D01*
X130373809Y-63427619D01*
X129945238Y-64284761D02*
X129850000Y-64332380D01*
X129659523Y-64332380D01*
X129564285Y-64284761D01*
X129516666Y-64189523D01*
X129516666Y-64141904D01*
X129564285Y-64046666D01*
X129659523Y-63999047D01*
X129802380Y-63999047D01*
X129897619Y-63951428D01*
X129945238Y-63856190D01*
X129945238Y-63808571D01*
X129897619Y-63713333D01*
X129802380Y-63665714D01*
X129659523Y-63665714D01*
X129564285Y-63713333D01*
X129088095Y-64332380D02*
X129088095Y-63332380D01*
X128659523Y-64332380D02*
X128659523Y-63808571D01*
X128707142Y-63713333D01*
X128802380Y-63665714D01*
X128945238Y-63665714D01*
X129040476Y-63713333D01*
X129088095Y-63760952D01*
X127564285Y-63856190D02*
X127611904Y-63808571D01*
X127707142Y-63760952D01*
X127802380Y-63760952D01*
X127897619Y-63808571D01*
X127945238Y-63856190D01*
X127992857Y-63951428D01*
X127992857Y-64046666D01*
X127945238Y-64141904D01*
X127897619Y-64189523D01*
X127802380Y-64237142D01*
X127707142Y-64237142D01*
X127611904Y-64189523D01*
X127564285Y-64141904D01*
X127564285Y-63760952D02*
X127564285Y-64141904D01*
X127516666Y-64189523D01*
X127469047Y-64189523D01*
X127373809Y-64141904D01*
X127326190Y-64046666D01*
X127326190Y-63808571D01*
X127421428Y-63665714D01*
X127564285Y-63570476D01*
X127754761Y-63522857D01*
X127945238Y-63570476D01*
X128088095Y-63665714D01*
X128183333Y-63808571D01*
X128230952Y-63999047D01*
X128183333Y-64189523D01*
X128088095Y-64332380D01*
X127945238Y-64427619D01*
X127754761Y-64475238D01*
X127564285Y-64427619D01*
X127421428Y-64332380D01*
X126469047Y-64332380D02*
X126469047Y-63808571D01*
X126516666Y-63713333D01*
X126611904Y-63665714D01*
X126802380Y-63665714D01*
X126897619Y-63713333D01*
X126469047Y-64284761D02*
X126564285Y-64332380D01*
X126802380Y-64332380D01*
X126897619Y-64284761D01*
X126945238Y-64189523D01*
X126945238Y-64094285D01*
X126897619Y-63999047D01*
X126802380Y-63951428D01*
X126564285Y-63951428D01*
X126469047Y-63903809D01*
X125992857Y-63665714D02*
X125992857Y-64665714D01*
X125992857Y-63713333D02*
X125897619Y-63665714D01*
X125707142Y-63665714D01*
X125611904Y-63713333D01*
X125564285Y-63760952D01*
X125516666Y-63856190D01*
X125516666Y-64141904D01*
X125564285Y-64237142D01*
X125611904Y-64284761D01*
X125707142Y-64332380D01*
X125897619Y-64332380D01*
X125992857Y-64284761D01*
X125088095Y-63665714D02*
X125088095Y-64665714D01*
X125088095Y-63713333D02*
X124992857Y-63665714D01*
X124802380Y-63665714D01*
X124707142Y-63713333D01*
X124659523Y-63760952D01*
X124611904Y-63856190D01*
X124611904Y-64141904D01*
X124659523Y-64237142D01*
X124707142Y-64284761D01*
X124802380Y-64332380D01*
X124992857Y-64332380D01*
X125088095Y-64284761D01*
X124040476Y-64332380D02*
X124135714Y-64284761D01*
X124183333Y-64189523D01*
X124183333Y-63332380D01*
X123278571Y-64284761D02*
X123373809Y-64332380D01*
X123564285Y-64332380D01*
X123659523Y-64284761D01*
X123707142Y-64189523D01*
X123707142Y-63808571D01*
X123659523Y-63713333D01*
X123564285Y-63665714D01*
X123373809Y-63665714D01*
X123278571Y-63713333D01*
X123230952Y-63808571D01*
X123230952Y-63903809D01*
X123707142Y-63999047D01*
X122897619Y-63665714D02*
X122659523Y-64332380D01*
X122421428Y-63665714D02*
X122659523Y-64332380D01*
X122754761Y-64570476D01*
X122802380Y-64618095D01*
X122897619Y-64665714D01*
X122040476Y-64237142D02*
X121992857Y-64284761D01*
X122040476Y-64332380D01*
X122088095Y-64284761D01*
X122040476Y-64237142D01*
X122040476Y-64332380D01*
X121564285Y-63665714D02*
X121564285Y-64665714D01*
X121564285Y-63713333D02*
X121469047Y-63665714D01*
X121278571Y-63665714D01*
X121183333Y-63713333D01*
X121135714Y-63760952D01*
X121088095Y-63856190D01*
X121088095Y-64141904D01*
X121135714Y-64237142D01*
X121183333Y-64284761D01*
X121278571Y-64332380D01*
X121469047Y-64332380D01*
X121564285Y-64284761D01*
X120516666Y-64332380D02*
X120611904Y-64284761D01*
X120659523Y-64189523D01*
X120659523Y-63332380D01*
X119707142Y-63665714D02*
X119707142Y-64332380D01*
X120135714Y-63665714D02*
X120135714Y-64189523D01*
X120088095Y-64284761D01*
X119992857Y-64332380D01*
X119850000Y-64332380D01*
X119754761Y-64284761D01*
X119707142Y-64237142D01*
X119278571Y-64284761D02*
X119183333Y-64332380D01*
X118992857Y-64332380D01*
X118897619Y-64284761D01*
X118850000Y-64189523D01*
X118850000Y-64141904D01*
X118897619Y-64046666D01*
X118992857Y-63999047D01*
X119135714Y-63999047D01*
X119230952Y-63951428D01*
X119278571Y-63856190D01*
X119278571Y-63808571D01*
X119230952Y-63713333D01*
X119135714Y-63665714D01*
X118992857Y-63665714D01*
X118897619Y-63713333D01*
X118421428Y-64237142D02*
X118373809Y-64284761D01*
X118421428Y-64332380D01*
X118469047Y-64284761D01*
X118421428Y-64237142D01*
X118421428Y-64332380D01*
X117516666Y-64284761D02*
X117611904Y-64332380D01*
X117802380Y-64332380D01*
X117897619Y-64284761D01*
X117945238Y-64237142D01*
X117992857Y-64141904D01*
X117992857Y-63856190D01*
X117945238Y-63760952D01*
X117897619Y-63713333D01*
X117802380Y-63665714D01*
X117611904Y-63665714D01*
X117516666Y-63713333D01*
X116945238Y-64332380D02*
X117040476Y-64284761D01*
X117088095Y-64237142D01*
X117135714Y-64141904D01*
X117135714Y-63856190D01*
X117088095Y-63760952D01*
X117040476Y-63713333D01*
X116945238Y-63665714D01*
X116802380Y-63665714D01*
X116707142Y-63713333D01*
X116659523Y-63760952D01*
X116611904Y-63856190D01*
X116611904Y-64141904D01*
X116659523Y-64237142D01*
X116707142Y-64284761D01*
X116802380Y-64332380D01*
X116945238Y-64332380D01*
X116183333Y-64332380D02*
X116183333Y-63665714D01*
X116183333Y-63760952D02*
X116135714Y-63713333D01*
X116040476Y-63665714D01*
X115897619Y-63665714D01*
X115802380Y-63713333D01*
X115754761Y-63808571D01*
X115754761Y-64332380D01*
X115754761Y-63808571D02*
X115707142Y-63713333D01*
X115611904Y-63665714D01*
X115469047Y-63665714D01*
X115373809Y-63713333D01*
X115326190Y-63808571D01*
X115326190Y-64332380D01*
M02*
