%FSLAX45Y45*%
G04 Gerber Fmt 4.5, Leading zero omitted, Abs format (unit mm)*
G04 Created by KiCad (PCBNEW 5.1.5-1.fc31) date 2020-04-24 19:34:01*
%MOMM*%
%LPD*%
G04 APERTURE LIST*
%TA.AperFunction,Profile*%
%ADD10C,0.050000*%
%TD*%
%ADD11C,0.200000*%
%ADD12C,0.300000*%
G04 APERTURE END LIST*
D10*
X24130000Y-14986000D02*
X6096000Y-14986000D01*
X24130000Y-2159000D02*
X24130000Y-14986000D01*
X6096000Y-2159000D02*
X24130000Y-2159000D01*
X6096000Y-14986000D02*
X6096000Y-2159000D01*
D11*
X6203000Y-3536000D02*
X6243000Y-3576000D01*
X6243000Y-3536000D02*
X6203000Y-3576000D01*
X6203000Y-6584000D02*
X6243000Y-6624000D01*
X6243000Y-6584000D02*
X6203000Y-6624000D01*
X6203000Y-10648000D02*
X6243000Y-10688000D01*
X6243000Y-10648000D02*
X6203000Y-10688000D01*
X6203000Y-11791000D02*
X6243000Y-11831000D01*
X6243000Y-11791000D02*
X6203000Y-11831000D01*
X6203000Y-14864400D02*
X6243000Y-14904400D01*
X6243000Y-14864400D02*
X6203000Y-14904400D01*
X6457000Y-10267000D02*
X6497000Y-10307000D01*
X6497000Y-10267000D02*
X6457000Y-10307000D01*
X6584000Y-4679000D02*
X6624000Y-4719000D01*
X6624000Y-4679000D02*
X6584000Y-4719000D01*
X6584000Y-8235000D02*
X6624000Y-8275000D01*
X6624000Y-8235000D02*
X6584000Y-8275000D01*
X6584000Y-9505000D02*
X6624000Y-9545000D01*
X6624000Y-9505000D02*
X6584000Y-9545000D01*
X6711000Y-14864400D02*
X6751000Y-14904400D01*
X6751000Y-14864400D02*
X6711000Y-14904400D01*
X7092000Y-6711000D02*
X7132000Y-6751000D01*
X7132000Y-6711000D02*
X7092000Y-6751000D01*
X7219000Y-11410000D02*
X7259000Y-11450000D01*
X7259000Y-11410000D02*
X7219000Y-11450000D01*
X7219000Y-14864400D02*
X7259000Y-14904400D01*
X7259000Y-14864400D02*
X7219000Y-14904400D01*
X7600000Y-5949000D02*
X7640000Y-5989000D01*
X7640000Y-5949000D02*
X7600000Y-5989000D01*
X7727000Y-12553000D02*
X7767000Y-12593000D01*
X7767000Y-12553000D02*
X7727000Y-12593000D01*
X7727000Y-14864400D02*
X7767000Y-14904400D01*
X7767000Y-14864400D02*
X7727000Y-14904400D01*
X7854000Y-7854000D02*
X7894000Y-7894000D01*
X7894000Y-7854000D02*
X7854000Y-7894000D01*
X8130860Y-14864400D02*
X8170860Y-14904400D01*
X8170860Y-14864400D02*
X8130860Y-14904400D01*
X8387400Y-10902000D02*
X8427400Y-10942000D01*
X8427400Y-10902000D02*
X8387400Y-10942000D01*
X8463600Y-14864400D02*
X8503600Y-14904400D01*
X8503600Y-14864400D02*
X8463600Y-14904400D01*
X8476300Y-11333800D02*
X8516300Y-11373800D01*
X8516300Y-11333800D02*
X8476300Y-11373800D01*
X8476300Y-11918000D02*
X8516300Y-11958000D01*
X8516300Y-11918000D02*
X8476300Y-11958000D01*
X8476300Y-12426000D02*
X8516300Y-12466000D01*
X8516300Y-12426000D02*
X8476300Y-12466000D01*
X8476300Y-12934000D02*
X8516300Y-12974000D01*
X8516300Y-12934000D02*
X8476300Y-12974000D01*
X8476300Y-13442000D02*
X8516300Y-13482000D01*
X8516300Y-13442000D02*
X8476300Y-13482000D01*
X8476300Y-13950000D02*
X8516300Y-13990000D01*
X8516300Y-13950000D02*
X8476300Y-13990000D01*
X8476300Y-14458000D02*
X8516300Y-14498000D01*
X8516300Y-14458000D02*
X8476300Y-14498000D01*
X8895400Y-10902000D02*
X8935400Y-10942000D01*
X8935400Y-10902000D02*
X8895400Y-10942000D01*
X8969060Y-2266000D02*
X9009060Y-2306000D01*
X9009060Y-2266000D02*
X8969060Y-2306000D01*
X8971600Y-14864400D02*
X9011600Y-14904400D01*
X9011600Y-14864400D02*
X8971600Y-14904400D01*
X9251000Y-2266000D02*
X9291000Y-2306000D01*
X9291000Y-2266000D02*
X9251000Y-2306000D01*
X9251000Y-9632000D02*
X9291000Y-9672000D01*
X9291000Y-9632000D02*
X9251000Y-9672000D01*
X9378000Y-11791000D02*
X9418000Y-11831000D01*
X9418000Y-11791000D02*
X9378000Y-11831000D01*
X9479600Y-14864400D02*
X9519600Y-14904400D01*
X9519600Y-14864400D02*
X9479600Y-14904400D01*
X9604060Y-2266000D02*
X9644060Y-2306000D01*
X9644060Y-2266000D02*
X9604060Y-2306000D01*
X9985060Y-2266000D02*
X10025060Y-2306000D01*
X10025060Y-2266000D02*
X9985060Y-2306000D01*
X9987600Y-14864400D02*
X10027600Y-14904400D01*
X10027600Y-14864400D02*
X9987600Y-14904400D01*
X10089200Y-11384600D02*
X10129200Y-11424600D01*
X10129200Y-11384600D02*
X10089200Y-11424600D01*
X10366060Y-2266000D02*
X10406060Y-2306000D01*
X10406060Y-2266000D02*
X10366060Y-2306000D01*
X10394000Y-11791000D02*
X10434000Y-11831000D01*
X10434000Y-11791000D02*
X10394000Y-11831000D01*
X10495600Y-14864400D02*
X10535600Y-14904400D01*
X10535600Y-14864400D02*
X10495600Y-14904400D01*
X10521000Y-10927400D02*
X10561000Y-10967400D01*
X10561000Y-10927400D02*
X10521000Y-10967400D01*
X10724200Y-11156000D02*
X10764200Y-11196000D01*
X10764200Y-11156000D02*
X10724200Y-11196000D01*
X10747060Y-2266000D02*
X10787060Y-2306000D01*
X10787060Y-2266000D02*
X10747060Y-2306000D01*
X10902000Y-11664000D02*
X10942000Y-11704000D01*
X10942000Y-11664000D02*
X10902000Y-11704000D01*
X11003600Y-14864400D02*
X11043600Y-14904400D01*
X11043600Y-14864400D02*
X11003600Y-14904400D01*
X11029000Y-10927400D02*
X11069000Y-10967400D01*
X11069000Y-10927400D02*
X11029000Y-10967400D01*
X11029000Y-11410000D02*
X11069000Y-11450000D01*
X11069000Y-11410000D02*
X11029000Y-11450000D01*
X11128060Y-2266000D02*
X11168060Y-2306000D01*
X11168060Y-2266000D02*
X11128060Y-2306000D01*
X11511600Y-14864400D02*
X11551600Y-14904400D01*
X11551600Y-14864400D02*
X11511600Y-14904400D01*
X11537000Y-10927400D02*
X11577000Y-10967400D01*
X11577000Y-10927400D02*
X11537000Y-10967400D01*
X11918000Y-9632000D02*
X11958000Y-9672000D01*
X11958000Y-9632000D02*
X11918000Y-9672000D01*
X11918000Y-10521000D02*
X11958000Y-10561000D01*
X11958000Y-10521000D02*
X11918000Y-10561000D01*
X12019600Y-14864400D02*
X12059600Y-14904400D01*
X12059600Y-14864400D02*
X12019600Y-14904400D01*
X12045000Y-10927400D02*
X12085000Y-10967400D01*
X12085000Y-10927400D02*
X12045000Y-10967400D01*
X12172000Y-2393000D02*
X12212000Y-2433000D01*
X12212000Y-2393000D02*
X12172000Y-2433000D01*
X12172000Y-11410000D02*
X12212000Y-11450000D01*
X12212000Y-11410000D02*
X12172000Y-11450000D01*
X12172000Y-11918000D02*
X12212000Y-11958000D01*
X12212000Y-11918000D02*
X12172000Y-11958000D01*
X12172000Y-12426000D02*
X12212000Y-12466000D01*
X12212000Y-12426000D02*
X12172000Y-12466000D01*
X12172000Y-12934000D02*
X12212000Y-12974000D01*
X12212000Y-12934000D02*
X12172000Y-12974000D01*
X12172000Y-13442000D02*
X12212000Y-13482000D01*
X12212000Y-13442000D02*
X12172000Y-13482000D01*
X12172000Y-13950000D02*
X12212000Y-13990000D01*
X12212000Y-13950000D02*
X12172000Y-13990000D01*
X12172000Y-14458000D02*
X12212000Y-14498000D01*
X12212000Y-14458000D02*
X12172000Y-14498000D01*
X12349800Y-10902000D02*
X12389800Y-10942000D01*
X12389800Y-10902000D02*
X12349800Y-10942000D01*
X12527600Y-14864400D02*
X12567600Y-14904400D01*
X12567600Y-14864400D02*
X12527600Y-14904400D01*
X12540300Y-14658660D02*
X12580300Y-14698660D01*
X12580300Y-14658660D02*
X12540300Y-14698660D01*
X12680000Y-5949000D02*
X12720000Y-5989000D01*
X12720000Y-5949000D02*
X12680000Y-5989000D01*
X12680000Y-10521000D02*
X12720000Y-10561000D01*
X12720000Y-10521000D02*
X12680000Y-10561000D01*
X12680000Y-11587800D02*
X12720000Y-11627800D01*
X12720000Y-11587800D02*
X12680000Y-11627800D01*
X12705400Y-12730800D02*
X12745400Y-12770800D01*
X12745400Y-12730800D02*
X12705400Y-12770800D01*
X12807000Y-2393000D02*
X12847000Y-2433000D01*
X12847000Y-2393000D02*
X12807000Y-2433000D01*
X12883200Y-11257600D02*
X12923200Y-11297600D01*
X12923200Y-11257600D02*
X12883200Y-11297600D01*
X13035600Y-14864400D02*
X13075600Y-14904400D01*
X13075600Y-14864400D02*
X13035600Y-14904400D01*
X13044300Y-14658660D02*
X13084300Y-14698660D01*
X13084300Y-14658660D02*
X13044300Y-14698660D01*
X13188000Y-3663000D02*
X13228000Y-3703000D01*
X13228000Y-3663000D02*
X13188000Y-3703000D01*
X13315000Y-4679000D02*
X13355000Y-4719000D01*
X13355000Y-4679000D02*
X13315000Y-4719000D01*
X13315000Y-11664000D02*
X13355000Y-11704000D01*
X13355000Y-11664000D02*
X13315000Y-11704000D01*
X13340400Y-6507800D02*
X13380400Y-6547800D01*
X13380400Y-6507800D02*
X13340400Y-6547800D01*
X13442000Y-9632000D02*
X13482000Y-9672000D01*
X13482000Y-9632000D02*
X13442000Y-9672000D01*
X13543600Y-14864400D02*
X13583600Y-14904400D01*
X13583600Y-14864400D02*
X13543600Y-14904400D01*
X13548300Y-14658660D02*
X13588300Y-14698660D01*
X13588300Y-14658660D02*
X13548300Y-14698660D01*
X13594400Y-4679000D02*
X13634400Y-4719000D01*
X13634400Y-4679000D02*
X13594400Y-4719000D01*
X14051600Y-14864400D02*
X14091600Y-14904400D01*
X14091600Y-14864400D02*
X14051600Y-14904400D01*
X14052300Y-14658660D02*
X14092300Y-14698660D01*
X14092300Y-14658660D02*
X14052300Y-14698660D01*
X14542520Y-14651040D02*
X14582520Y-14691040D01*
X14582520Y-14651040D02*
X14542520Y-14691040D01*
X14559600Y-14864400D02*
X14599600Y-14904400D01*
X14599600Y-14864400D02*
X14559600Y-14904400D01*
X15067600Y-14864400D02*
X15107600Y-14904400D01*
X15107600Y-14864400D02*
X15067600Y-14904400D01*
X15105700Y-2938200D02*
X15145700Y-2978200D01*
X15145700Y-2938200D02*
X15105700Y-2978200D01*
X15105700Y-3442200D02*
X15145700Y-3482200D01*
X15145700Y-3442200D02*
X15105700Y-3482200D01*
X15105700Y-3946200D02*
X15145700Y-3986200D01*
X15145700Y-3946200D02*
X15105700Y-3986200D01*
X15105700Y-4450200D02*
X15145700Y-4490200D01*
X15145700Y-4450200D02*
X15105700Y-4490200D01*
X15105700Y-4954200D02*
X15145700Y-4994200D01*
X15145700Y-4954200D02*
X15105700Y-4994200D01*
X15105700Y-5458200D02*
X15145700Y-5498200D01*
X15145700Y-5458200D02*
X15105700Y-5498200D01*
X15105700Y-5962200D02*
X15145700Y-6002200D01*
X15145700Y-5962200D02*
X15105700Y-6002200D01*
X15105700Y-6466200D02*
X15145700Y-6506200D01*
X15145700Y-6466200D02*
X15105700Y-6506200D01*
X15105700Y-6970200D02*
X15145700Y-7010200D01*
X15145700Y-6970200D02*
X15105700Y-7010200D01*
X15105700Y-7474200D02*
X15145700Y-7514200D01*
X15145700Y-7474200D02*
X15105700Y-7514200D01*
X15105700Y-7978200D02*
X15145700Y-8018200D01*
X15145700Y-7978200D02*
X15105700Y-8018200D01*
X15105700Y-8482200D02*
X15145700Y-8522200D01*
X15145700Y-8482200D02*
X15105700Y-8522200D01*
X15105700Y-8986200D02*
X15145700Y-9026200D01*
X15145700Y-8986200D02*
X15105700Y-9026200D01*
X15105700Y-9490200D02*
X15145700Y-9530200D01*
X15145700Y-9490200D02*
X15105700Y-9530200D01*
X15105700Y-9994200D02*
X15145700Y-10034200D01*
X15145700Y-9994200D02*
X15105700Y-10034200D01*
X15105700Y-10498200D02*
X15145700Y-10538200D01*
X15145700Y-10498200D02*
X15105700Y-10538200D01*
X15105700Y-11002200D02*
X15145700Y-11042200D01*
X15145700Y-11002200D02*
X15105700Y-11042200D01*
X15105700Y-11506200D02*
X15145700Y-11546200D01*
X15145700Y-11506200D02*
X15105700Y-11546200D01*
X15105700Y-12010200D02*
X15145700Y-12050200D01*
X15145700Y-12010200D02*
X15105700Y-12050200D01*
X15105700Y-12514200D02*
X15145700Y-12554200D01*
X15145700Y-12514200D02*
X15105700Y-12554200D01*
X15105700Y-13018200D02*
X15145700Y-13058200D01*
X15145700Y-13018200D02*
X15105700Y-13058200D01*
X15105700Y-13522200D02*
X15145700Y-13562200D01*
X15145700Y-13522200D02*
X15105700Y-13562200D01*
X15105700Y-13924600D02*
X15145700Y-13964600D01*
X15145700Y-13924600D02*
X15105700Y-13964600D01*
X15575600Y-14864400D02*
X15615600Y-14904400D01*
X15615600Y-14864400D02*
X15575600Y-14904400D01*
X15576300Y-14658660D02*
X15616300Y-14698660D01*
X15616300Y-14658660D02*
X15576300Y-14698660D01*
X16083600Y-14864400D02*
X16123600Y-14904400D01*
X16123600Y-14864400D02*
X16083600Y-14904400D01*
X16092300Y-14658660D02*
X16132300Y-14698660D01*
X16132300Y-14658660D02*
X16092300Y-14698660D01*
X16591600Y-14864400D02*
X16631600Y-14904400D01*
X16631600Y-14864400D02*
X16591600Y-14904400D01*
X16596300Y-14658660D02*
X16636300Y-14698660D01*
X16636300Y-14658660D02*
X16596300Y-14698660D01*
X16769400Y-11410000D02*
X16809400Y-11450000D01*
X16809400Y-11410000D02*
X16769400Y-11450000D01*
X17099600Y-14864400D02*
X17139600Y-14904400D01*
X17139600Y-14864400D02*
X17099600Y-14904400D01*
X17100300Y-14658660D02*
X17140300Y-14698660D01*
X17140300Y-14658660D02*
X17100300Y-14698660D01*
X17328200Y-11410000D02*
X17368200Y-11450000D01*
X17368200Y-11410000D02*
X17328200Y-11450000D01*
X17455200Y-10521000D02*
X17495200Y-10561000D01*
X17495200Y-10521000D02*
X17455200Y-10561000D01*
X17455200Y-10521000D02*
X17495200Y-10561000D01*
X17495200Y-10521000D02*
X17455200Y-10561000D01*
X17494463Y-5923600D02*
X17534463Y-5963600D01*
X17534463Y-5923600D02*
X17494463Y-5963600D01*
X17607600Y-14864400D02*
X17647600Y-14904400D01*
X17647600Y-14864400D02*
X17607600Y-14904400D01*
X17608300Y-14658660D02*
X17648300Y-14698660D01*
X17648300Y-14658660D02*
X17608300Y-14698660D01*
X17988600Y-10927400D02*
X18028600Y-10967400D01*
X18028600Y-10927400D02*
X17988600Y-10967400D01*
X18001300Y-11092500D02*
X18041300Y-11132500D01*
X18041300Y-11092500D02*
X18001300Y-11132500D01*
X18001300Y-11422700D02*
X18041300Y-11462700D01*
X18041300Y-11422700D02*
X18001300Y-11462700D01*
X18001300Y-11930700D02*
X18041300Y-11970700D01*
X18041300Y-11930700D02*
X18001300Y-11970700D01*
X18001300Y-12438700D02*
X18041300Y-12478700D01*
X18041300Y-12438700D02*
X18001300Y-12478700D01*
X18001300Y-12946700D02*
X18041300Y-12986700D01*
X18041300Y-12946700D02*
X18001300Y-12986700D01*
X18001300Y-13454700D02*
X18041300Y-13494700D01*
X18041300Y-13454700D02*
X18001300Y-13494700D01*
X18001300Y-13962700D02*
X18041300Y-14002700D01*
X18041300Y-13962700D02*
X18001300Y-14002700D01*
X18001300Y-14470700D02*
X18041300Y-14510700D01*
X18041300Y-14470700D02*
X18001300Y-14510700D01*
X18115600Y-14864400D02*
X18155600Y-14904400D01*
X18155600Y-14864400D02*
X18115600Y-14904400D01*
X18496600Y-10927400D02*
X18536600Y-10967400D01*
X18536600Y-10927400D02*
X18496600Y-10967400D01*
X18623600Y-14864400D02*
X18663600Y-14904400D01*
X18663600Y-14864400D02*
X18623600Y-14904400D01*
X18664240Y-10569260D02*
X18704240Y-10609260D01*
X18704240Y-10569260D02*
X18664240Y-10609260D01*
X19004600Y-10927400D02*
X19044600Y-10967400D01*
X19044600Y-10927400D02*
X19004600Y-10967400D01*
X19131600Y-14864400D02*
X19171600Y-14904400D01*
X19171600Y-14864400D02*
X19131600Y-14904400D01*
X19512600Y-10927400D02*
X19552600Y-10967400D01*
X19552600Y-10927400D02*
X19512600Y-10967400D01*
X19639600Y-14864400D02*
X19679600Y-14904400D01*
X19679600Y-14864400D02*
X19639600Y-14904400D01*
X20020600Y-10927400D02*
X20060600Y-10967400D01*
X20060600Y-10927400D02*
X20020600Y-10967400D01*
X20147600Y-14864400D02*
X20187600Y-14904400D01*
X20187600Y-14864400D02*
X20147600Y-14904400D01*
X20274600Y-11511600D02*
X20314600Y-11551600D01*
X20314600Y-11511600D02*
X20274600Y-11551600D01*
X20528600Y-10927400D02*
X20568600Y-10967400D01*
X20568600Y-10927400D02*
X20528600Y-10967400D01*
X20655600Y-14864400D02*
X20695600Y-14904400D01*
X20695600Y-14864400D02*
X20655600Y-14904400D01*
X20985800Y-10927400D02*
X21025800Y-10967400D01*
X21025800Y-10927400D02*
X20985800Y-10967400D01*
X21163600Y-14864400D02*
X21203600Y-14904400D01*
X21203600Y-14864400D02*
X21163600Y-14904400D01*
X21582700Y-10927400D02*
X21622700Y-10967400D01*
X21622700Y-10927400D02*
X21582700Y-10967400D01*
X21671600Y-14864400D02*
X21711600Y-14904400D01*
X21711600Y-14864400D02*
X21671600Y-14904400D01*
X21788440Y-11953560D02*
X21828440Y-11993560D01*
X21828440Y-11953560D02*
X21788440Y-11993560D01*
X21857020Y-11280460D02*
X21897020Y-11320460D01*
X21897020Y-11280460D02*
X21857020Y-11320460D01*
X22078000Y-14356400D02*
X22118000Y-14396400D01*
X22118000Y-14356400D02*
X22078000Y-14396400D01*
X22078000Y-14864400D02*
X22118000Y-14904400D01*
X22118000Y-14864400D02*
X22078000Y-14904400D01*
X22090700Y-10927400D02*
X22130700Y-10967400D01*
X22130700Y-10927400D02*
X22090700Y-10967400D01*
X22090700Y-11283000D02*
X22130700Y-11323000D01*
X22130700Y-11283000D02*
X22090700Y-11323000D01*
X22090700Y-11918000D02*
X22130700Y-11958000D01*
X22130700Y-11918000D02*
X22090700Y-11958000D01*
X22090700Y-12426000D02*
X22130700Y-12466000D01*
X22130700Y-12426000D02*
X22090700Y-12466000D01*
X22090700Y-12934000D02*
X22130700Y-12974000D01*
X22130700Y-12934000D02*
X22090700Y-12974000D01*
X22090700Y-13442000D02*
X22130700Y-13482000D01*
X22130700Y-13442000D02*
X22090700Y-13482000D01*
X22090700Y-13950000D02*
X22130700Y-13990000D01*
X22130700Y-13950000D02*
X22090700Y-13990000D01*
X22586000Y-14864400D02*
X22626000Y-14904400D01*
X22626000Y-14864400D02*
X22586000Y-14904400D01*
X22954300Y-10574340D02*
X22994300Y-10614340D01*
X22994300Y-10574340D02*
X22954300Y-10614340D01*
X23094000Y-14864400D02*
X23134000Y-14904400D01*
X23134000Y-14864400D02*
X23094000Y-14904400D01*
X23602000Y-14864400D02*
X23642000Y-14904400D01*
X23642000Y-14864400D02*
X23602000Y-14904400D01*
X24005860Y-14864400D02*
X24045860Y-14904400D01*
X24045860Y-14864400D02*
X24005860Y-14904400D01*
X12727500Y-12065000D02*
G75*
G03X12727500Y-12065000I-27500J0D01*
G01*
X12854500Y-12065000D02*
G75*
G03X12854500Y-12065000I-27500J0D01*
G01*
X12981500Y-12065000D02*
G75*
G03X12981500Y-12065000I-27500J0D01*
G01*
X8917500Y-11303000D02*
G75*
G03X8917500Y-11303000I-27500J0D01*
G01*
X8917500Y-11430000D02*
G75*
G03X8917500Y-11430000I-27500J0D01*
G01*
X8917500Y-11557000D02*
G75*
G03X8917500Y-11557000I-27500J0D01*
G01*
X17299500Y-12065000D02*
G75*
G03X17299500Y-12065000I-27500J0D01*
G01*
X17426500Y-12065000D02*
G75*
G03X17426500Y-12065000I-27500J0D01*
G01*
X17553500Y-12065000D02*
G75*
G03X17553500Y-12065000I-27500J0D01*
G01*
X22506500Y-4343400D02*
G75*
G03X22506500Y-4343400I-27500J0D01*
G01*
X22633500Y-4343400D02*
G75*
G03X22633500Y-4343400I-27500J0D01*
G01*
X22760500Y-4343400D02*
G75*
G03X22760500Y-4343400I-27500J0D01*
G01*
X21363500Y-11303000D02*
G75*
G03X21363500Y-11303000I-27500J0D01*
G01*
X21363500Y-11430000D02*
G75*
G03X21363500Y-11430000I-27500J0D01*
G01*
X21363500Y-11557000D02*
G75*
G03X21363500Y-11557000I-27500J0D01*
G01*
X16537500Y-4191000D02*
G75*
G03X16537500Y-4191000I-27500J0D01*
G01*
X16664500Y-4191000D02*
G75*
G03X16664500Y-4191000I-27500J0D01*
G01*
X16791500Y-4191000D02*
G75*
G03X16791500Y-4191000I-27500J0D01*
G01*
X7393500Y-4318000D02*
G75*
G03X7393500Y-4318000I-27500J0D01*
G01*
X7520500Y-4318000D02*
G75*
G03X7520500Y-4318000I-27500J0D01*
G01*
X7647500Y-4318000D02*
G75*
G03X7647500Y-4318000I-27500J0D01*
G01*
X13489500Y-4191000D02*
G75*
G03X13489500Y-4191000I-27500J0D01*
G01*
X13616500Y-4191000D02*
G75*
G03X13616500Y-4191000I-27500J0D01*
G01*
X13743500Y-4191000D02*
G75*
G03X13743500Y-4191000I-27500J0D01*
G01*
X9652000Y-11265500D02*
X9652000Y-11340500D01*
X9614500Y-11303000D02*
X9689500Y-11303000D01*
X9652000Y-11392500D02*
X9652000Y-11467500D01*
X9614500Y-11430000D02*
X9689500Y-11430000D01*
X9652000Y-11519500D02*
X9652000Y-11594500D01*
X9614500Y-11557000D02*
X9689500Y-11557000D01*
X18491200Y-2400900D02*
X18491200Y-2475900D01*
X18453700Y-2438400D02*
X18528700Y-2438400D01*
X18618200Y-2400900D02*
X18618200Y-2475900D01*
X18580700Y-2438400D02*
X18655700Y-2438400D01*
X18745200Y-2400900D02*
X18745200Y-2475900D01*
X18707700Y-2438400D02*
X18782700Y-2438400D01*
X17272000Y-13805500D02*
X17272000Y-13880500D01*
X17234500Y-13843000D02*
X17309500Y-13843000D01*
X17399000Y-13805500D02*
X17399000Y-13880500D01*
X17361500Y-13843000D02*
X17436500Y-13843000D01*
X17526000Y-13805500D02*
X17526000Y-13880500D01*
X17488500Y-13843000D02*
X17563500Y-13843000D01*
X12700000Y-13805500D02*
X12700000Y-13880500D01*
X12662500Y-13843000D02*
X12737500Y-13843000D01*
X12827000Y-13805500D02*
X12827000Y-13880500D01*
X12789500Y-13843000D02*
X12864500Y-13843000D01*
X12954000Y-13805500D02*
X12954000Y-13880500D01*
X12916500Y-13843000D02*
X12991500Y-13843000D01*
X11430000Y-2375500D02*
X11430000Y-2450500D01*
X11392500Y-2413000D02*
X11467500Y-2413000D01*
X11557000Y-2375500D02*
X11557000Y-2450500D01*
X11519500Y-2413000D02*
X11594500Y-2413000D01*
X11684000Y-2375500D02*
X11684000Y-2450500D01*
X11646500Y-2413000D02*
X11721500Y-2413000D01*
X6985000Y-7201500D02*
X6985000Y-7276500D01*
X6947500Y-7239000D02*
X7022500Y-7239000D01*
X7112000Y-7201500D02*
X7112000Y-7276500D01*
X7074500Y-7239000D02*
X7149500Y-7239000D01*
X7239000Y-7201500D02*
X7239000Y-7276500D01*
X7201500Y-7239000D02*
X7276500Y-7239000D01*
X12700000Y-12941900D02*
X12700000Y-13016900D01*
X12662500Y-12979400D02*
X12737500Y-12979400D01*
X12827000Y-12941900D02*
X12827000Y-13016900D01*
X12789500Y-12979400D02*
X12864500Y-12979400D01*
X12954000Y-12941900D02*
X12954000Y-13016900D01*
X12916500Y-12979400D02*
X12991500Y-12979400D01*
X17272000Y-11011500D02*
X17272000Y-11086500D01*
X17234500Y-11049000D02*
X17309500Y-11049000D01*
X17399000Y-11011500D02*
X17399000Y-11086500D01*
X17361500Y-11049000D02*
X17436500Y-11049000D01*
X17526000Y-11011500D02*
X17526000Y-11086500D01*
X17488500Y-11049000D02*
X17563500Y-11049000D01*
X17272000Y-12916500D02*
X17272000Y-12991500D01*
X17234500Y-12954000D02*
X17309500Y-12954000D01*
X17399000Y-12916500D02*
X17399000Y-12991500D01*
X17361500Y-12954000D02*
X17436500Y-12954000D01*
X17526000Y-12916500D02*
X17526000Y-12991500D01*
X17488500Y-12954000D02*
X17563500Y-12954000D01*
X12700000Y-11011500D02*
X12700000Y-11086500D01*
X12662500Y-11049000D02*
X12737500Y-11049000D01*
X12827000Y-11011500D02*
X12827000Y-11086500D01*
X12789500Y-11049000D02*
X12864500Y-11049000D01*
X12954000Y-11011500D02*
X12954000Y-11086500D01*
X12916500Y-11049000D02*
X12991500Y-11049000D01*
X20574000Y-11265500D02*
X20574000Y-11340500D01*
X20536500Y-11303000D02*
X20611500Y-11303000D01*
X20574000Y-11392500D02*
X20574000Y-11467500D01*
X20536500Y-11430000D02*
X20611500Y-11430000D01*
X20574000Y-11519500D02*
X20574000Y-11594500D01*
X20536500Y-11557000D02*
X20611500Y-11557000D01*
X19812000Y-11265500D02*
X19812000Y-11340500D01*
X19774500Y-11303000D02*
X19849500Y-11303000D01*
X19812000Y-11392500D02*
X19812000Y-11467500D01*
X19774500Y-11430000D02*
X19849500Y-11430000D01*
X19812000Y-11519500D02*
X19812000Y-11594500D01*
X19774500Y-11557000D02*
X19849500Y-11557000D01*
X10414000Y-11265500D02*
X10414000Y-11340500D01*
X10376500Y-11303000D02*
X10451500Y-11303000D01*
X10414000Y-11392500D02*
X10414000Y-11467500D01*
X10376500Y-11430000D02*
X10451500Y-11430000D01*
X10414000Y-11519500D02*
X10414000Y-11594500D01*
X10376500Y-11557000D02*
X10451500Y-11557000D01*
X22910800Y-7176100D02*
X22910800Y-7251100D01*
X22873300Y-7213600D02*
X22948300Y-7213600D01*
X23037800Y-7176100D02*
X23037800Y-7251100D01*
X23000300Y-7213600D02*
X23075300Y-7213600D01*
X23164800Y-7176100D02*
X23164800Y-7251100D01*
X23127300Y-7213600D02*
X23202300Y-7213600D01*
X8791285Y-12982284D02*
X8791285Y-12925715D01*
X8734716Y-12925715D01*
X8734716Y-12982284D01*
X8791285Y-12982284D01*
X8791285Y-14252284D02*
X8791285Y-14195715D01*
X8734716Y-14195715D01*
X8734716Y-14252284D01*
X8791285Y-14252284D01*
X6632284Y-9934285D02*
X6632284Y-9877716D01*
X6575715Y-9877716D01*
X6575715Y-9934285D01*
X6632284Y-9934285D01*
X7902284Y-9934285D02*
X7902284Y-9877716D01*
X7845715Y-9877716D01*
X7845715Y-9934285D01*
X7902284Y-9934285D01*
X22380284Y-9934285D02*
X22380284Y-9877716D01*
X22323716Y-9877716D01*
X22323716Y-9934285D01*
X22380284Y-9934285D01*
X23650284Y-9934285D02*
X23650284Y-9877716D01*
X23593715Y-9877716D01*
X23593715Y-9934285D01*
X23650284Y-9934285D01*
X19586285Y-13236284D02*
X19586285Y-13179715D01*
X19529716Y-13179715D01*
X19529716Y-13236284D01*
X19586285Y-13236284D01*
X20856285Y-13236284D02*
X20856285Y-13179715D01*
X20799716Y-13179715D01*
X20799716Y-13236284D01*
X20856285Y-13236284D01*
X8156284Y-4346285D02*
X8156284Y-4289716D01*
X8099715Y-4289716D01*
X8099715Y-4346285D01*
X8156284Y-4346285D01*
X8156284Y-5616284D02*
X8156284Y-5559716D01*
X8099715Y-5559716D01*
X8099715Y-5616284D01*
X8156284Y-5616284D01*
X6632284Y-6632284D02*
X6632284Y-6575715D01*
X6575715Y-6575715D01*
X6575715Y-6632284D01*
X6632284Y-6632284D01*
X6632284Y-7394284D02*
X6632284Y-7337715D01*
X6575715Y-7337715D01*
X6575715Y-7394284D01*
X6632284Y-7394284D01*
X13490284Y-12982284D02*
X13490284Y-12925715D01*
X13433715Y-12925715D01*
X13433715Y-12982284D01*
X13490284Y-12982284D01*
X14760284Y-12982284D02*
X14760284Y-12925715D01*
X14703715Y-12925715D01*
X14703715Y-12982284D01*
X14760284Y-12982284D01*
X20881685Y-7648284D02*
X20881685Y-7591715D01*
X20825116Y-7591715D01*
X20825116Y-7648284D01*
X20881685Y-7648284D01*
X20881685Y-8918285D02*
X20881685Y-8861716D01*
X20825116Y-8861716D01*
X20825116Y-8918285D01*
X20881685Y-8918285D01*
X23040684Y-13523684D02*
X23040684Y-13467115D01*
X22984115Y-13467115D01*
X22984115Y-13523684D01*
X23040684Y-13523684D01*
X23040684Y-14023684D02*
X23040684Y-13967115D01*
X22984115Y-13967115D01*
X22984115Y-14023684D01*
X23040684Y-14023684D01*
X18443285Y-4092284D02*
X18443285Y-4035715D01*
X18386716Y-4035715D01*
X18386716Y-4092284D01*
X18443285Y-4092284D01*
X18443285Y-5362285D02*
X18443285Y-5305716D01*
X18386716Y-5305716D01*
X18386716Y-5362285D01*
X18443285Y-5362285D01*
X18951285Y-4066884D02*
X18951285Y-4010315D01*
X18894716Y-4010315D01*
X18894716Y-4066884D01*
X18951285Y-4066884D01*
X18951285Y-5336885D02*
X18951285Y-5280316D01*
X18894716Y-5280316D01*
X18894716Y-5336885D01*
X18951285Y-5336885D01*
X22380284Y-10696285D02*
X22380284Y-10639716D01*
X22323716Y-10639716D01*
X22323716Y-10696285D01*
X22380284Y-10696285D01*
X23650284Y-10696285D02*
X23650284Y-10639716D01*
X23593715Y-10639716D01*
X23593715Y-10696285D01*
X23650284Y-10696285D01*
X22126285Y-4346285D02*
X22126285Y-4289716D01*
X22069716Y-4289716D01*
X22069716Y-4346285D01*
X22126285Y-4346285D01*
X22126285Y-5616284D02*
X22126285Y-5559716D01*
X22069716Y-5559716D01*
X22069716Y-5616284D01*
X22126285Y-5616284D01*
X16030284Y-10696285D02*
X16030284Y-10639716D01*
X15973715Y-10639716D01*
X15973715Y-10696285D01*
X16030284Y-10696285D01*
X16792285Y-10696285D02*
X16792285Y-10639716D01*
X16735715Y-10639716D01*
X16735715Y-10696285D01*
X16792285Y-10696285D01*
X22380284Y-13523684D02*
X22380284Y-13467115D01*
X22323716Y-13467115D01*
X22323716Y-13523684D01*
X22380284Y-13523684D01*
X22380284Y-14023684D02*
X22380284Y-13967115D01*
X22323716Y-13967115D01*
X22323716Y-14023684D01*
X22380284Y-14023684D01*
X7902284Y-13498284D02*
X7902284Y-13441715D01*
X7845715Y-13441715D01*
X7845715Y-13498284D01*
X7902284Y-13498284D01*
X7902284Y-13998284D02*
X7902284Y-13941715D01*
X7845715Y-13941715D01*
X7845715Y-13998284D01*
X7902284Y-13998284D01*
X11462284Y-11585284D02*
X11462284Y-11528715D01*
X11405715Y-11528715D01*
X11405715Y-11585284D01*
X11462284Y-11585284D01*
X11712284Y-11585284D02*
X11712284Y-11528715D01*
X11655715Y-11528715D01*
X11655715Y-11585284D01*
X11712284Y-11585284D01*
X11966284Y-4092284D02*
X11966284Y-4035715D01*
X11909715Y-4035715D01*
X11909715Y-4092284D01*
X11966284Y-4092284D01*
X11966284Y-5362285D02*
X11966284Y-5305716D01*
X11909715Y-5305716D01*
X11909715Y-5362285D01*
X11966284Y-5362285D01*
X23650284Y-13515684D02*
X23650284Y-13459115D01*
X23593715Y-13459115D01*
X23593715Y-13515684D01*
X23650284Y-13515684D01*
X23650284Y-14015684D02*
X23650284Y-13959115D01*
X23593715Y-13959115D01*
X23593715Y-14015684D01*
X23650284Y-14015684D01*
X18570285Y-9811285D02*
X18570285Y-9754716D01*
X18513716Y-9754716D01*
X18513716Y-9811285D01*
X18570285Y-9811285D01*
X18570285Y-10061285D02*
X18570285Y-10004716D01*
X18513716Y-10004716D01*
X18513716Y-10061285D01*
X18570285Y-10061285D01*
X15903284Y-11458284D02*
X15903284Y-11401715D01*
X15846715Y-11401715D01*
X15846715Y-11458284D01*
X15903284Y-11458284D01*
X16157284Y-11458284D02*
X16157284Y-11401715D01*
X16100715Y-11401715D01*
X16100715Y-11458284D01*
X16157284Y-11458284D01*
X16411284Y-11458284D02*
X16411284Y-11401715D01*
X16354715Y-11401715D01*
X16354715Y-11458284D01*
X16411284Y-11458284D01*
X9938285Y-8156284D02*
X9938285Y-8099715D01*
X9881716Y-8099715D01*
X9881716Y-8156284D01*
X9938285Y-8156284D01*
X10188285Y-8156284D02*
X10188285Y-8099715D01*
X10131716Y-8099715D01*
X10131716Y-8156284D01*
X10188285Y-8156284D01*
X8791285Y-7648284D02*
X8791285Y-7591715D01*
X8734716Y-7591715D01*
X8734716Y-7648284D01*
X8791285Y-7648284D01*
X8791285Y-8918285D02*
X8791285Y-8861716D01*
X8734716Y-8861716D01*
X8734716Y-8918285D01*
X8791285Y-8918285D01*
X21618285Y-4346285D02*
X21618285Y-4289716D01*
X21561716Y-4289716D01*
X21561716Y-4346285D01*
X21618285Y-4346285D01*
X21618285Y-5616284D02*
X21618285Y-5559716D01*
X21561716Y-5559716D01*
X21561716Y-5616284D01*
X21618285Y-5616284D01*
X11331284Y-12855284D02*
X11331284Y-12798715D01*
X11274715Y-12798715D01*
X11274715Y-12855284D01*
X11331284Y-12855284D01*
X11831284Y-12855284D02*
X11831284Y-12798715D01*
X11774715Y-12798715D01*
X11774715Y-12855284D01*
X11831284Y-12855284D01*
X6632284Y-9172285D02*
X6632284Y-9115716D01*
X6575715Y-9115716D01*
X6575715Y-9172285D01*
X6632284Y-9172285D01*
X7902284Y-9172285D02*
X7902284Y-9115716D01*
X7845715Y-9115716D01*
X7845715Y-9172285D01*
X7902284Y-9172285D01*
X23650284Y-6632284D02*
X23650284Y-6575715D01*
X23593715Y-6575715D01*
X23593715Y-6632284D01*
X23650284Y-6632284D01*
X23650284Y-7394284D02*
X23650284Y-7337715D01*
X23593715Y-7337715D01*
X23593715Y-7394284D01*
X23650284Y-7394284D01*
X8664285Y-4346285D02*
X8664285Y-4289716D01*
X8607716Y-4289716D01*
X8607716Y-4346285D01*
X8664285Y-4346285D01*
X8664285Y-5616284D02*
X8664285Y-5559716D01*
X8607716Y-5559716D01*
X8607716Y-5616284D01*
X8664285Y-5616284D01*
X22380284Y-12982284D02*
X22380284Y-12925715D01*
X22323716Y-12925715D01*
X22323716Y-12982284D01*
X22380284Y-12982284D01*
X23650284Y-12982284D02*
X23650284Y-12925715D01*
X23593715Y-12925715D01*
X23593715Y-12982284D01*
X23650284Y-12982284D01*
X13490284Y-7775284D02*
X13490284Y-7718715D01*
X13433715Y-7718715D01*
X13433715Y-7775284D01*
X13490284Y-7775284D01*
X14760284Y-7775284D02*
X14760284Y-7718715D01*
X14703715Y-7718715D01*
X14703715Y-7775284D01*
X14760284Y-7775284D01*
X13490284Y-8537285D02*
X13490284Y-8480716D01*
X13433715Y-8480716D01*
X13433715Y-8537285D01*
X13490284Y-8537285D01*
X14760284Y-8537285D02*
X14760284Y-8480716D01*
X14703715Y-8480716D01*
X14703715Y-8537285D01*
X14760284Y-8537285D01*
X22380284Y-11458284D02*
X22380284Y-11401715D01*
X22323716Y-11401715D01*
X22323716Y-11458284D01*
X22380284Y-11458284D01*
X23650284Y-11458284D02*
X23650284Y-11401715D01*
X23593715Y-11401715D01*
X23593715Y-11458284D01*
X23650284Y-11458284D01*
X20221285Y-9426285D02*
X20221285Y-9369716D01*
X20164716Y-9369716D01*
X20164716Y-9426285D01*
X20221285Y-9426285D01*
X20221285Y-10696285D02*
X20221285Y-10639716D01*
X20164716Y-10639716D01*
X20164716Y-10696285D01*
X20221285Y-10696285D01*
X21491285Y-12982284D02*
X21491285Y-12925715D01*
X21434716Y-12925715D01*
X21434716Y-12982284D01*
X21491285Y-12982284D01*
X21491285Y-14252284D02*
X21491285Y-14195715D01*
X21434716Y-14195715D01*
X21434716Y-14252284D01*
X21491285Y-14252284D01*
X21491285Y-7648284D02*
X21491285Y-7591715D01*
X21434716Y-7591715D01*
X21434716Y-7648284D01*
X21491285Y-7648284D01*
X21491285Y-8918285D02*
X21491285Y-8861716D01*
X21434716Y-8861716D01*
X21434716Y-8918285D01*
X21491285Y-8918285D01*
X13490284Y-9299285D02*
X13490284Y-9242716D01*
X13433715Y-9242716D01*
X13433715Y-9299285D01*
X13490284Y-9299285D01*
X14760284Y-9299285D02*
X14760284Y-9242716D01*
X14703715Y-9242716D01*
X14703715Y-9299285D01*
X14760284Y-9299285D01*
X18451285Y-12855284D02*
X18451285Y-12798715D01*
X18394716Y-12798715D01*
X18394716Y-12855284D01*
X18451285Y-12855284D01*
X18951285Y-12855284D02*
X18951285Y-12798715D01*
X18894716Y-12798715D01*
X18894716Y-12855284D01*
X18951285Y-12855284D01*
X22380284Y-12220284D02*
X22380284Y-12163715D01*
X22323716Y-12163715D01*
X22323716Y-12220284D01*
X22380284Y-12220284D01*
X23650284Y-12220284D02*
X23650284Y-12163715D01*
X23593715Y-12163715D01*
X23593715Y-12220284D01*
X23650284Y-12220284D01*
X13490284Y-10696285D02*
X13490284Y-10639716D01*
X13433715Y-10639716D01*
X13433715Y-10696285D01*
X13490284Y-10696285D01*
X14252284Y-10696285D02*
X14252284Y-10639716D01*
X14195715Y-10639716D01*
X14195715Y-10696285D01*
X14252284Y-10696285D01*
X21491285Y-9426285D02*
X21491285Y-9369716D01*
X21434716Y-9369716D01*
X21434716Y-9426285D01*
X21491285Y-9426285D01*
X21491285Y-10696285D02*
X21491285Y-10639716D01*
X21434716Y-10639716D01*
X21434716Y-10696285D01*
X21491285Y-10696285D01*
X19586285Y-12626684D02*
X19586285Y-12570115D01*
X19529716Y-12570115D01*
X19529716Y-12626684D01*
X19586285Y-12626684D01*
X20856285Y-12626684D02*
X20856285Y-12570115D01*
X20799716Y-12570115D01*
X20799716Y-12626684D01*
X20856285Y-12626684D01*
X6632284Y-12982284D02*
X6632284Y-12925715D01*
X6575715Y-12925715D01*
X6575715Y-12982284D01*
X6632284Y-12982284D01*
X7902284Y-12982284D02*
X7902284Y-12925715D01*
X7845715Y-12925715D01*
X7845715Y-12982284D01*
X7902284Y-12982284D01*
X8791285Y-12093284D02*
X8791285Y-12036715D01*
X8734716Y-12036715D01*
X8734716Y-12093284D01*
X8791285Y-12093284D01*
X8791285Y-12593284D02*
X8791285Y-12536715D01*
X8734716Y-12536715D01*
X8734716Y-12593284D01*
X8791285Y-12593284D01*
X19586285Y-12093284D02*
X19586285Y-12036715D01*
X19529716Y-12036715D01*
X19529716Y-12093284D01*
X19586285Y-12093284D01*
X20856285Y-12093284D02*
X20856285Y-12036715D01*
X20799716Y-12036715D01*
X20799716Y-12093284D01*
X20856285Y-12093284D01*
X15522284Y-10061285D02*
X15522284Y-10004716D01*
X15465715Y-10004716D01*
X15465715Y-10061285D01*
X15522284Y-10061285D01*
X16792285Y-10061285D02*
X16792285Y-10004716D01*
X16735715Y-10004716D01*
X16735715Y-10061285D01*
X16792285Y-10061285D01*
X19586285Y-9426285D02*
X19586285Y-9369716D01*
X19529716Y-9369716D01*
X19529716Y-9426285D01*
X19586285Y-9426285D01*
X19586285Y-10696285D02*
X19586285Y-10639716D01*
X19529716Y-10639716D01*
X19529716Y-10696285D01*
X19586285Y-10696285D01*
X15522284Y-8537285D02*
X15522284Y-8480716D01*
X15465715Y-8480716D01*
X15465715Y-8537285D01*
X15522284Y-8537285D01*
X16792285Y-8537285D02*
X16792285Y-8480716D01*
X16735715Y-8480716D01*
X16735715Y-8537285D01*
X16792285Y-8537285D01*
X13490284Y-12220284D02*
X13490284Y-12163715D01*
X13433715Y-12163715D01*
X13433715Y-12220284D01*
X13490284Y-12220284D01*
X14760284Y-12220284D02*
X14760284Y-12163715D01*
X14703715Y-12163715D01*
X14703715Y-12220284D01*
X14760284Y-12220284D01*
X11331284Y-4092284D02*
X11331284Y-4035715D01*
X11274715Y-4035715D01*
X11274715Y-4092284D01*
X11331284Y-4092284D01*
X11331284Y-5362285D02*
X11331284Y-5305716D01*
X11274715Y-5305716D01*
X11274715Y-5362285D01*
X11331284Y-5362285D01*
X22380284Y-9172285D02*
X22380284Y-9115716D01*
X22323716Y-9115716D01*
X22323716Y-9172285D01*
X22380284Y-9172285D01*
X23650284Y-9172285D02*
X23650284Y-9115716D01*
X23593715Y-9115716D01*
X23593715Y-9172285D01*
X23650284Y-9172285D01*
X13871284Y-11458284D02*
X13871284Y-11401715D01*
X13814715Y-11401715D01*
X13814715Y-11458284D01*
X13871284Y-11458284D01*
X14125284Y-11458284D02*
X14125284Y-11401715D01*
X14068715Y-11401715D01*
X14068715Y-11458284D01*
X14125284Y-11458284D01*
X14379284Y-11458284D02*
X14379284Y-11401715D01*
X14322715Y-11401715D01*
X14322715Y-11458284D01*
X14379284Y-11458284D01*
X15522284Y-7013284D02*
X15522284Y-6956715D01*
X15465715Y-6956715D01*
X15465715Y-7013284D01*
X15522284Y-7013284D01*
X16792285Y-7013284D02*
X16792285Y-6956715D01*
X16735715Y-6956715D01*
X16735715Y-7013284D01*
X16792285Y-7013284D01*
X9426285Y-12093284D02*
X9426285Y-12036715D01*
X9369716Y-12036715D01*
X9369716Y-12093284D01*
X9426285Y-12093284D01*
X10696285Y-12093284D02*
X10696285Y-12036715D01*
X10639716Y-12036715D01*
X10639716Y-12093284D01*
X10696285Y-12093284D01*
X6632284Y-11458284D02*
X6632284Y-11401715D01*
X6575715Y-11401715D01*
X6575715Y-11458284D01*
X6632284Y-11458284D01*
X7902284Y-11458284D02*
X7902284Y-11401715D01*
X7845715Y-11401715D01*
X7845715Y-11458284D01*
X7902284Y-11458284D01*
X20094285Y-8156284D02*
X20094285Y-8099715D01*
X20037716Y-8099715D01*
X20037716Y-8156284D01*
X20094285Y-8156284D01*
X20344285Y-8156284D02*
X20344285Y-8099715D01*
X20287716Y-8099715D01*
X20287716Y-8156284D01*
X20344285Y-8156284D01*
X20856285Y-9426285D02*
X20856285Y-9369716D01*
X20799716Y-9369716D01*
X20799716Y-9426285D01*
X20856285Y-9426285D01*
X20856285Y-10696285D02*
X20856285Y-10639716D01*
X20799716Y-10639716D01*
X20799716Y-10696285D01*
X20856285Y-10696285D01*
X6632284Y-13490284D02*
X6632284Y-13433715D01*
X6575715Y-13433715D01*
X6575715Y-13490284D01*
X6632284Y-13490284D01*
X6632284Y-13990284D02*
X6632284Y-13933715D01*
X6575715Y-13933715D01*
X6575715Y-13990284D01*
X6632284Y-13990284D01*
X9426285Y-9426285D02*
X9426285Y-9369716D01*
X9369716Y-9369716D01*
X9369716Y-9426285D01*
X9426285Y-9426285D01*
X9426285Y-10696285D02*
X9426285Y-10639716D01*
X9369716Y-10639716D01*
X9369716Y-10696285D01*
X9426285Y-10696285D01*
X8791285Y-9426285D02*
X8791285Y-9369716D01*
X8734716Y-9369716D01*
X8734716Y-9426285D01*
X8791285Y-9426285D01*
X8791285Y-10696285D02*
X8791285Y-10639716D01*
X8734716Y-10639716D01*
X8734716Y-10696285D01*
X8791285Y-10696285D01*
X13490284Y-13871284D02*
X13490284Y-13814715D01*
X13433715Y-13814715D01*
X13433715Y-13871284D01*
X13490284Y-13871284D01*
X14760284Y-13871284D02*
X14760284Y-13814715D01*
X14703715Y-13814715D01*
X14703715Y-13871284D01*
X14760284Y-13871284D01*
X15522284Y-12982284D02*
X15522284Y-12925715D01*
X15465715Y-12925715D01*
X15465715Y-12982284D01*
X15522284Y-12982284D01*
X16792285Y-12982284D02*
X16792285Y-12925715D01*
X16735715Y-12925715D01*
X16735715Y-12982284D01*
X16792285Y-12982284D01*
X15522284Y-7775284D02*
X15522284Y-7718715D01*
X15465715Y-7718715D01*
X15465715Y-7775284D01*
X15522284Y-7775284D01*
X16792285Y-7775284D02*
X16792285Y-7718715D01*
X16735715Y-7718715D01*
X16735715Y-7775284D01*
X16792285Y-7775284D01*
X13490284Y-7013284D02*
X13490284Y-6956715D01*
X13433715Y-6956715D01*
X13433715Y-7013284D01*
X13490284Y-7013284D01*
X14760284Y-7013284D02*
X14760284Y-6956715D01*
X14703715Y-6956715D01*
X14703715Y-7013284D01*
X14760284Y-7013284D01*
X9426285Y-13236284D02*
X9426285Y-13179715D01*
X9369716Y-13179715D01*
X9369716Y-13236284D01*
X9426285Y-13236284D01*
X10696285Y-13236284D02*
X10696285Y-13179715D01*
X10639716Y-13179715D01*
X10639716Y-13236284D01*
X10696285Y-13236284D01*
X6632284Y-10696285D02*
X6632284Y-10639716D01*
X6575715Y-10639716D01*
X6575715Y-10696285D01*
X6632284Y-10696285D01*
X7902284Y-10696285D02*
X7902284Y-10639716D01*
X7845715Y-10639716D01*
X7845715Y-10696285D01*
X7902284Y-10696285D01*
X6632284Y-12220284D02*
X6632284Y-12163715D01*
X6575715Y-12163715D01*
X6575715Y-12220284D01*
X6632284Y-12220284D01*
X7902284Y-12220284D02*
X7902284Y-12163715D01*
X7845715Y-12163715D01*
X7845715Y-12220284D01*
X7902284Y-12220284D01*
X11712284Y-9811285D02*
X11712284Y-9754716D01*
X11655715Y-9754716D01*
X11655715Y-9811285D01*
X11712284Y-9811285D01*
X11712284Y-10061285D02*
X11712284Y-10004716D01*
X11655715Y-10004716D01*
X11655715Y-10061285D01*
X11712284Y-10061285D01*
X16665284Y-4981285D02*
X16665284Y-4924716D01*
X16608715Y-4924716D01*
X16608715Y-4981285D01*
X16665284Y-4981285D01*
X16665284Y-6251284D02*
X16665284Y-6194715D01*
X16608715Y-6194715D01*
X16608715Y-6251284D01*
X16665284Y-6251284D01*
X18443285Y-11585284D02*
X18443285Y-11528715D01*
X18386716Y-11528715D01*
X18386716Y-11585284D01*
X18443285Y-11585284D01*
X18693285Y-11585284D02*
X18693285Y-11528715D01*
X18636716Y-11528715D01*
X18636716Y-11585284D01*
X18693285Y-11585284D01*
X10696285Y-9426285D02*
X10696285Y-9369716D01*
X10639716Y-9369716D01*
X10639716Y-9426285D01*
X10696285Y-9426285D01*
X10696285Y-10696285D02*
X10696285Y-10639716D01*
X10639716Y-10639716D01*
X10639716Y-10696285D01*
X10696285Y-10696285D01*
X9426285Y-12652084D02*
X9426285Y-12595515D01*
X9369716Y-12595515D01*
X9369716Y-12652084D01*
X9426285Y-12652084D01*
X10696285Y-12652084D02*
X10696285Y-12595515D01*
X10639716Y-12595515D01*
X10639716Y-12652084D01*
X10696285Y-12652084D01*
X13617284Y-4981285D02*
X13617284Y-4924716D01*
X13560715Y-4924716D01*
X13560715Y-4981285D01*
X13617284Y-4981285D01*
X13617284Y-6251284D02*
X13617284Y-6194715D01*
X13560715Y-6194715D01*
X13560715Y-6251284D01*
X13617284Y-6251284D01*
X15522284Y-12220284D02*
X15522284Y-12163715D01*
X15465715Y-12163715D01*
X15465715Y-12220284D01*
X15522284Y-12220284D01*
X16792285Y-12220284D02*
X16792285Y-12163715D01*
X16735715Y-12163715D01*
X16735715Y-12220284D01*
X16792285Y-12220284D01*
X15522284Y-13871284D02*
X15522284Y-13814715D01*
X15465715Y-13814715D01*
X15465715Y-13871284D01*
X15522284Y-13871284D01*
X16792285Y-13871284D02*
X16792285Y-13814715D01*
X16735715Y-13814715D01*
X16735715Y-13871284D01*
X16792285Y-13871284D01*
X13490284Y-10061285D02*
X13490284Y-10004716D01*
X13433715Y-10004716D01*
X13433715Y-10061285D01*
X13490284Y-10061285D01*
X14760284Y-10061285D02*
X14760284Y-10004716D01*
X14703715Y-10004716D01*
X14703715Y-10061285D01*
X14760284Y-10061285D01*
X21491285Y-12101284D02*
X21491285Y-12044715D01*
X21434716Y-12044715D01*
X21434716Y-12101284D01*
X21491285Y-12101284D01*
X21491285Y-12601284D02*
X21491285Y-12544715D01*
X21434716Y-12544715D01*
X21434716Y-12601284D01*
X21491285Y-12601284D01*
X7267284Y-13498284D02*
X7267284Y-13441715D01*
X7210715Y-13441715D01*
X7210715Y-13498284D01*
X7267284Y-13498284D01*
X7267284Y-13998284D02*
X7267284Y-13941715D01*
X7210715Y-13941715D01*
X7210715Y-13998284D01*
X7267284Y-13998284D01*
X9426285Y-7648284D02*
X9426285Y-7591715D01*
X9369716Y-7591715D01*
X9369716Y-7648284D01*
X9426285Y-7648284D01*
X9426285Y-8918285D02*
X9426285Y-8861716D01*
X9369716Y-8861716D01*
X9369716Y-8918285D01*
X9426285Y-8918285D01*
X10061285Y-9426285D02*
X10061285Y-9369716D01*
X10004716Y-9369716D01*
X10004716Y-9426285D01*
X10061285Y-9426285D01*
X10061285Y-10696285D02*
X10061285Y-10639716D01*
X10004716Y-10639716D01*
X10004716Y-10696285D01*
X10061285Y-10696285D01*
X15522284Y-9299285D02*
X15522284Y-9242716D01*
X15465715Y-9242716D01*
X15465715Y-9299285D01*
X15522284Y-9299285D01*
X16792285Y-9299285D02*
X16792285Y-9242716D01*
X16735715Y-9242716D01*
X16735715Y-9299285D01*
X16792285Y-9299285D01*
X6604000Y-7929000D02*
X6659000Y-7874000D01*
X6604000Y-7819000D01*
X6549000Y-7874000D01*
X6604000Y-7929000D01*
X7620000Y-7929000D02*
X7675000Y-7874000D01*
X7620000Y-7819000D01*
X7565000Y-7874000D01*
X7620000Y-7929000D01*
X11303000Y-7802000D02*
X11358000Y-7747000D01*
X11303000Y-7692000D01*
X11248000Y-7747000D01*
X11303000Y-7802000D01*
X11303000Y-8818000D02*
X11358000Y-8763000D01*
X11303000Y-8708000D01*
X11248000Y-8763000D01*
X11303000Y-8818000D01*
X10795000Y-7802000D02*
X10850000Y-7747000D01*
X10795000Y-7692000D01*
X10740000Y-7747000D01*
X10795000Y-7802000D01*
X10795000Y-8818000D02*
X10850000Y-8763000D01*
X10795000Y-8708000D01*
X10740000Y-8763000D01*
X10795000Y-8818000D01*
X22606000Y-7929000D02*
X22661000Y-7874000D01*
X22606000Y-7819000D01*
X22551000Y-7874000D01*
X22606000Y-7929000D01*
X23622000Y-7929000D02*
X23677000Y-7874000D01*
X23622000Y-7819000D01*
X23567000Y-7874000D01*
X23622000Y-7929000D01*
X10604500Y-4119000D02*
X10659500Y-4064000D01*
X10604500Y-4009000D01*
X10549500Y-4064000D01*
X10604500Y-4119000D01*
X10604500Y-6151000D02*
X10659500Y-6096000D01*
X10604500Y-6041000D01*
X10549500Y-6096000D01*
X10604500Y-6151000D01*
X11811000Y-7802000D02*
X11866000Y-7747000D01*
X11811000Y-7692000D01*
X11756000Y-7747000D01*
X11811000Y-7802000D01*
X11811000Y-8818000D02*
X11866000Y-8763000D01*
X11811000Y-8708000D01*
X11756000Y-8763000D01*
X11811000Y-8818000D01*
X19431000Y-7802000D02*
X19486000Y-7747000D01*
X19431000Y-7692000D01*
X19376000Y-7747000D01*
X19431000Y-7802000D01*
X19431000Y-8818000D02*
X19486000Y-8763000D01*
X19431000Y-8708000D01*
X19376000Y-8763000D01*
X19431000Y-8818000D01*
X18923000Y-7802000D02*
X18978000Y-7747000D01*
X18923000Y-7692000D01*
X18868000Y-7747000D01*
X18923000Y-7802000D01*
X18923000Y-8818000D02*
X18978000Y-8763000D01*
X18923000Y-8708000D01*
X18868000Y-8763000D01*
X18923000Y-8818000D01*
X18415000Y-7802000D02*
X18470000Y-7747000D01*
X18415000Y-7692000D01*
X18360000Y-7747000D01*
X18415000Y-7802000D01*
X18415000Y-8818000D02*
X18470000Y-8763000D01*
X18415000Y-8708000D01*
X18360000Y-8763000D01*
X18415000Y-8818000D01*
X19634200Y-4093600D02*
X19689200Y-4038600D01*
X19634200Y-3983600D01*
X19579200Y-4038600D01*
X19634200Y-4093600D01*
X19634200Y-6125600D02*
X19689200Y-6070600D01*
X19634200Y-6015600D01*
X19579200Y-6070600D01*
X19634200Y-6125600D01*
X6604000Y-8564000D02*
X6659000Y-8509000D01*
X6604000Y-8454000D01*
X6549000Y-8509000D01*
X6604000Y-8564000D01*
X7620000Y-8564000D02*
X7675000Y-8509000D01*
X7620000Y-8454000D01*
X7565000Y-8509000D01*
X7620000Y-8564000D01*
X22606000Y-8564000D02*
X22661000Y-8509000D01*
X22606000Y-8454000D01*
X22551000Y-8509000D01*
X22606000Y-8564000D01*
X23622000Y-8564000D02*
X23677000Y-8509000D01*
X23622000Y-8454000D01*
X23567000Y-8509000D01*
X23622000Y-8564000D01*
X12640000Y-3877000D02*
X12760000Y-3997000D01*
X12760000Y-3877000D02*
X12640000Y-3997000D01*
X12760000Y-3937000D02*
G75*
G03X12760000Y-3937000I-60000J0D01*
G01*
X12640000Y-5377000D02*
X12760000Y-5497000D01*
X12760000Y-5377000D02*
X12640000Y-5497000D01*
X12760000Y-5437000D02*
G75*
G03X12760000Y-5437000I-60000J0D01*
G01*
X17466000Y-7433000D02*
X17586000Y-7553000D01*
X17586000Y-7433000D02*
X17466000Y-7553000D01*
X17586000Y-7493000D02*
G75*
G03X17586000Y-7493000I-60000J0D01*
G01*
X17466000Y-8933000D02*
X17586000Y-9053000D01*
X17586000Y-8933000D02*
X17466000Y-9053000D01*
X17586000Y-8993000D02*
G75*
G03X17586000Y-8993000I-60000J0D01*
G01*
X11878000Y-6290000D02*
X11998000Y-6410000D01*
X11998000Y-6290000D02*
X11878000Y-6410000D01*
X11998000Y-6350000D02*
G75*
G03X11998000Y-6350000I-60000J0D01*
G01*
X11878000Y-6790000D02*
X11998000Y-6910000D01*
X11998000Y-6790000D02*
X11878000Y-6910000D01*
X11998000Y-6850000D02*
G75*
G03X11998000Y-6850000I-60000J0D01*
G01*
X7814000Y-6671000D02*
X7934000Y-6791000D01*
X7934000Y-6671000D02*
X7814000Y-6791000D01*
X7934000Y-6731000D02*
G75*
G03X7934000Y-6731000I-60000J0D01*
G01*
X8314000Y-6671000D02*
X8434000Y-6791000D01*
X8434000Y-6671000D02*
X8314000Y-6791000D01*
X8434000Y-6731000D02*
G75*
G03X8434000Y-6731000I-60000J0D01*
G01*
X21792000Y-6671000D02*
X21912000Y-6791000D01*
X21912000Y-6671000D02*
X21792000Y-6791000D01*
X21912000Y-6731000D02*
G75*
G03X21912000Y-6731000I-60000J0D01*
G01*
X22292000Y-6671000D02*
X22412000Y-6791000D01*
X22412000Y-6671000D02*
X22292000Y-6791000D01*
X22412000Y-6731000D02*
G75*
G03X22412000Y-6731000I-60000J0D01*
G01*
X7306000Y-3242000D02*
X7426000Y-3362000D01*
X7426000Y-3242000D02*
X7306000Y-3362000D01*
X7426000Y-3302000D02*
G75*
G03X7426000Y-3302000I-60000J0D01*
G01*
X9846000Y-3242000D02*
X9966000Y-3362000D01*
X9966000Y-3242000D02*
X9846000Y-3362000D01*
X9966000Y-3302000D02*
G75*
G03X9966000Y-3302000I-60000J0D01*
G01*
X18228000Y-6290000D02*
X18348000Y-6410000D01*
X18348000Y-6290000D02*
X18228000Y-6410000D01*
X18348000Y-6350000D02*
G75*
G03X18348000Y-6350000I-60000J0D01*
G01*
X18228000Y-6790000D02*
X18348000Y-6910000D01*
X18348000Y-6790000D02*
X18228000Y-6910000D01*
X18348000Y-6850000D02*
G75*
G03X18348000Y-6850000I-60000J0D01*
G01*
X21504600Y-3711900D02*
X21624600Y-3831900D01*
X21624600Y-3711900D02*
X21504600Y-3831900D01*
X21624600Y-3771900D02*
G75*
G03X21624600Y-3771900I-60000J0D01*
G01*
X21504600Y-3965900D02*
X21624600Y-4085900D01*
X21624600Y-3965900D02*
X21504600Y-4085900D01*
X21624600Y-4025900D02*
G75*
G03X21624600Y-4025900I-60000J0D01*
G01*
X11243000Y-3242000D02*
X11363000Y-3362000D01*
X11363000Y-3242000D02*
X11243000Y-3362000D01*
X11363000Y-3302000D02*
G75*
G03X11363000Y-3302000I-60000J0D01*
G01*
X13783000Y-3242000D02*
X13903000Y-3362000D01*
X13903000Y-3242000D02*
X13783000Y-3362000D01*
X13903000Y-3302000D02*
G75*
G03X13903000Y-3302000I-60000J0D01*
G01*
X18355000Y-13656000D02*
X18475000Y-13776000D01*
X18475000Y-13656000D02*
X18355000Y-13776000D01*
X18475000Y-13716000D02*
G75*
G03X18475000Y-13716000I-60000J0D01*
G01*
X18355000Y-13910000D02*
X18475000Y-14030000D01*
X18475000Y-13910000D02*
X18355000Y-14030000D01*
X18475000Y-13970000D02*
G75*
G03X18475000Y-13970000I-60000J0D01*
G01*
X18355000Y-14164000D02*
X18475000Y-14284000D01*
X18475000Y-14164000D02*
X18355000Y-14284000D01*
X18475000Y-14224000D02*
G75*
G03X18475000Y-14224000I-60000J0D01*
G01*
X18355000Y-14418000D02*
X18475000Y-14538000D01*
X18475000Y-14418000D02*
X18355000Y-14538000D01*
X18475000Y-14478000D02*
G75*
G03X18475000Y-14478000I-60000J0D01*
G01*
X11751000Y-13656000D02*
X11871000Y-13776000D01*
X11871000Y-13656000D02*
X11751000Y-13776000D01*
X11871000Y-13716000D02*
G75*
G03X11871000Y-13716000I-60000J0D01*
G01*
X11751000Y-13910000D02*
X11871000Y-14030000D01*
X11871000Y-13910000D02*
X11751000Y-14030000D01*
X11871000Y-13970000D02*
G75*
G03X11871000Y-13970000I-60000J0D01*
G01*
X11751000Y-14164000D02*
X11871000Y-14284000D01*
X11871000Y-14164000D02*
X11751000Y-14284000D01*
X11871000Y-14224000D02*
G75*
G03X11871000Y-14224000I-60000J0D01*
G01*
X11751000Y-14418000D02*
X11871000Y-14538000D01*
X11871000Y-14418000D02*
X11751000Y-14538000D01*
X11871000Y-14478000D02*
G75*
G03X11871000Y-14478000I-60000J0D01*
G01*
X16323000Y-3242000D02*
X16443000Y-3362000D01*
X16443000Y-3242000D02*
X16323000Y-3362000D01*
X16443000Y-3302000D02*
G75*
G03X16443000Y-3302000I-60000J0D01*
G01*
X18863000Y-3242000D02*
X18983000Y-3362000D01*
X18983000Y-3242000D02*
X18863000Y-3362000D01*
X18983000Y-3302000D02*
G75*
G03X18983000Y-3302000I-60000J0D01*
G01*
X20260000Y-3242000D02*
X20380000Y-3362000D01*
X20380000Y-3242000D02*
X20260000Y-3362000D01*
X20380000Y-3302000D02*
G75*
G03X20380000Y-3302000I-60000J0D01*
G01*
X22800000Y-3242000D02*
X22920000Y-3362000D01*
X22920000Y-3242000D02*
X22800000Y-3362000D01*
X22920000Y-3302000D02*
G75*
G03X22920000Y-3302000I-60000J0D01*
G01*
X12640000Y-7417760D02*
X12760000Y-7537760D01*
X12760000Y-7417760D02*
X12640000Y-7537760D01*
X12760000Y-7477760D02*
G75*
G03X12760000Y-7477760I-60000J0D01*
G01*
X12640000Y-8917760D02*
X12760000Y-9037760D01*
X12760000Y-8917760D02*
X12640000Y-9037760D01*
X12760000Y-8977760D02*
G75*
G03X12760000Y-8977760I-60000J0D01*
G01*
X17466000Y-3877000D02*
X17586000Y-3997000D01*
X17586000Y-3877000D02*
X17466000Y-3997000D01*
X17586000Y-3937000D02*
G75*
G03X17586000Y-3937000I-60000J0D01*
G01*
X17466000Y-5377000D02*
X17586000Y-5497000D01*
X17586000Y-5377000D02*
X17466000Y-5497000D01*
X17586000Y-5437000D02*
G75*
G03X17586000Y-5437000I-60000J0D01*
G01*
X8588700Y-3711900D02*
X8708700Y-3831900D01*
X8708700Y-3711900D02*
X8588700Y-3831900D01*
X8708700Y-3771900D02*
G75*
G03X8708700Y-3771900I-60000J0D01*
G01*
X8588700Y-3965900D02*
X8708700Y-4085900D01*
X8708700Y-3965900D02*
X8588700Y-4085900D01*
X8708700Y-4025900D02*
G75*
G03X8708700Y-4025900I-60000J0D01*
G01*
X19315200Y-3237000D02*
X19445200Y-3367000D01*
X19445200Y-3237000D02*
X19315200Y-3367000D01*
X19380200Y-3237000D02*
X19380200Y-3367000D01*
X19315200Y-3302000D02*
X19445200Y-3302000D01*
X19815200Y-3237000D02*
X19945200Y-3367000D01*
X19945200Y-3237000D02*
X19815200Y-3367000D01*
X19880200Y-3237000D02*
X19880200Y-3367000D01*
X19815200Y-3302000D02*
X19945200Y-3302000D01*
X19366000Y-7301000D02*
X19496000Y-7431000D01*
X19496000Y-7301000D02*
X19366000Y-7431000D01*
X19431000Y-7301000D02*
X19431000Y-7431000D01*
X19366000Y-7366000D02*
X19496000Y-7366000D01*
X19866000Y-7301000D02*
X19996000Y-7431000D01*
X19996000Y-7301000D02*
X19866000Y-7431000D01*
X19931000Y-7301000D02*
X19931000Y-7431000D01*
X19866000Y-7366000D02*
X19996000Y-7366000D01*
X10289500Y-3237000D02*
X10419500Y-3367000D01*
X10419500Y-3237000D02*
X10289500Y-3367000D01*
X10354500Y-3237000D02*
X10354500Y-3367000D01*
X10289500Y-3302000D02*
X10419500Y-3302000D01*
X10789500Y-3237000D02*
X10919500Y-3367000D01*
X10919500Y-3237000D02*
X10789500Y-3367000D01*
X10854500Y-3237000D02*
X10854500Y-3367000D01*
X10789500Y-3302000D02*
X10919500Y-3302000D01*
X10251400Y-7250200D02*
X10381400Y-7380200D01*
X10381400Y-7250200D02*
X10251400Y-7380200D01*
X10316400Y-7250200D02*
X10316400Y-7380200D01*
X10251400Y-7315200D02*
X10381400Y-7315200D01*
X10751400Y-7250200D02*
X10881400Y-7380200D01*
X10881400Y-7250200D02*
X10751400Y-7380200D01*
X10816400Y-7250200D02*
X10816400Y-7380200D01*
X10751400Y-7315200D02*
X10881400Y-7315200D01*
X6543000Y-6158000D02*
X6673000Y-6288000D01*
X6673000Y-6158000D02*
X6543000Y-6288000D01*
X6608000Y-6158000D02*
X6608000Y-6288000D01*
X6543000Y-6223000D02*
X6673000Y-6223000D01*
X7043000Y-6158000D02*
X7173000Y-6288000D01*
X7173000Y-6158000D02*
X7043000Y-6288000D01*
X7108000Y-6158000D02*
X7108000Y-6288000D01*
X7043000Y-6223000D02*
X7173000Y-6223000D01*
X23053000Y-6158000D02*
X23183000Y-6288000D01*
X23183000Y-6158000D02*
X23053000Y-6288000D01*
X23118000Y-6158000D02*
X23118000Y-6288000D01*
X23053000Y-6223000D02*
X23183000Y-6223000D01*
X23553000Y-6158000D02*
X23683000Y-6288000D01*
X23683000Y-6158000D02*
X23553000Y-6288000D01*
X23618000Y-6158000D02*
X23618000Y-6288000D01*
X23553000Y-6223000D02*
X23683000Y-6223000D01*
X15560000Y-6158000D02*
X15690000Y-6288000D01*
X15690000Y-6158000D02*
X15560000Y-6288000D01*
X15625000Y-6158000D02*
X15625000Y-6288000D01*
X15560000Y-6223000D02*
X15690000Y-6223000D01*
X16060000Y-6158000D02*
X16190000Y-6288000D01*
X16190000Y-6158000D02*
X16060000Y-6288000D01*
X16125000Y-6158000D02*
X16125000Y-6288000D01*
X16060000Y-6223000D02*
X16190000Y-6223000D01*
X14032000Y-6158000D02*
X14162000Y-6288000D01*
X14162000Y-6158000D02*
X14032000Y-6288000D01*
X14097000Y-6158000D02*
X14097000Y-6288000D01*
X14032000Y-6223000D02*
X14162000Y-6223000D01*
X14532000Y-6158000D02*
X14662000Y-6288000D01*
X14662000Y-6158000D02*
X14532000Y-6288000D01*
X14597000Y-6158000D02*
X14597000Y-6288000D01*
X14532000Y-6223000D02*
X14662000Y-6223000D01*
X9450000Y-3735000D02*
X9600000Y-3885000D01*
X9600000Y-3735000D02*
X9450000Y-3885000D01*
X9578034Y-3863033D02*
X9578034Y-3756966D01*
X9471967Y-3756966D01*
X9471967Y-3863033D01*
X9578034Y-3863033D01*
X9450000Y-5995000D02*
X9600000Y-6145000D01*
X9600000Y-5995000D02*
X9450000Y-6145000D01*
X9578034Y-6123033D02*
X9578034Y-6016966D01*
X9471967Y-6016966D01*
X9471967Y-6123033D01*
X9578034Y-6123033D01*
X6529000Y-3126000D02*
X6679000Y-3276000D01*
X6679000Y-3126000D02*
X6529000Y-3276000D01*
X6657033Y-3254033D02*
X6657033Y-3147966D01*
X6550966Y-3147966D01*
X6550966Y-3254033D01*
X6657033Y-3254033D01*
X6529000Y-5386000D02*
X6679000Y-5536000D01*
X6679000Y-5386000D02*
X6529000Y-5536000D01*
X6657033Y-5514034D02*
X6657033Y-5407967D01*
X6550966Y-5407967D01*
X6550966Y-5514034D01*
X6657033Y-5514034D01*
X23547000Y-3126000D02*
X23697000Y-3276000D01*
X23697000Y-3126000D02*
X23547000Y-3276000D01*
X23675033Y-3254033D02*
X23675033Y-3147966D01*
X23568966Y-3147966D01*
X23568966Y-3254033D01*
X23675033Y-3254033D01*
X23547000Y-5386000D02*
X23697000Y-5536000D01*
X23697000Y-5386000D02*
X23547000Y-5536000D01*
X23675033Y-5514034D02*
X23675033Y-5407967D01*
X23568966Y-5407967D01*
X23568966Y-5514034D01*
X23675033Y-5514034D01*
X15546000Y-3126000D02*
X15696000Y-3276000D01*
X15696000Y-3126000D02*
X15546000Y-3276000D01*
X15674033Y-3254033D02*
X15674033Y-3147966D01*
X15567966Y-3147966D01*
X15567966Y-3254033D01*
X15674033Y-3254033D01*
X15546000Y-5386000D02*
X15696000Y-5536000D01*
X15696000Y-5386000D02*
X15546000Y-5536000D01*
X15674033Y-5514034D02*
X15674033Y-5407967D01*
X15567966Y-5407967D01*
X15567966Y-5514034D01*
X15674033Y-5514034D01*
X21515000Y-2465000D02*
X21665000Y-2615000D01*
X21665000Y-2465000D02*
X21515000Y-2615000D01*
X21643034Y-2593034D02*
X21643034Y-2486967D01*
X21536967Y-2486967D01*
X21536967Y-2593034D01*
X21643034Y-2593034D01*
X22062500Y-2465000D02*
X22212500Y-2615000D01*
X22212500Y-2465000D02*
X22062500Y-2615000D01*
X22190534Y-2593034D02*
X22190534Y-2486967D01*
X22084467Y-2486967D01*
X22084467Y-2593034D01*
X22190534Y-2593034D01*
X22610000Y-2465000D02*
X22760000Y-2615000D01*
X22760000Y-2465000D02*
X22610000Y-2615000D01*
X22738033Y-2593034D02*
X22738033Y-2486967D01*
X22631966Y-2486967D01*
X22631966Y-2593034D01*
X22738033Y-2593034D01*
X7418000Y-2465000D02*
X7568000Y-2615000D01*
X7568000Y-2465000D02*
X7418000Y-2615000D01*
X7546033Y-2593034D02*
X7546033Y-2486967D01*
X7439966Y-2486967D01*
X7439966Y-2593034D01*
X7546033Y-2593034D01*
X7965500Y-2465000D02*
X8115500Y-2615000D01*
X8115500Y-2465000D02*
X7965500Y-2615000D01*
X8093533Y-2593034D02*
X8093533Y-2486967D01*
X7987466Y-2486967D01*
X7987466Y-2593034D01*
X8093533Y-2593034D01*
X8513000Y-2465000D02*
X8663000Y-2615000D01*
X8663000Y-2465000D02*
X8513000Y-2615000D01*
X8641034Y-2593034D02*
X8641034Y-2486967D01*
X8534967Y-2486967D01*
X8534967Y-2593034D01*
X8641034Y-2593034D01*
X16485800Y-2465000D02*
X16635800Y-2615000D01*
X16635800Y-2465000D02*
X16485800Y-2615000D01*
X16613833Y-2593034D02*
X16613833Y-2486967D01*
X16507766Y-2486967D01*
X16507766Y-2593034D01*
X16613833Y-2593034D01*
X17033300Y-2465000D02*
X17183300Y-2615000D01*
X17183300Y-2465000D02*
X17033300Y-2615000D01*
X17161334Y-2593034D02*
X17161334Y-2486967D01*
X17055267Y-2486967D01*
X17055267Y-2593034D01*
X17161334Y-2593034D01*
X17580800Y-2465000D02*
X17730800Y-2615000D01*
X17730800Y-2465000D02*
X17580800Y-2615000D01*
X17708834Y-2593034D02*
X17708834Y-2486967D01*
X17602767Y-2486967D01*
X17602767Y-2593034D01*
X17708834Y-2593034D01*
X20626000Y-3735600D02*
X20776000Y-3885600D01*
X20776000Y-3735600D02*
X20626000Y-3885600D01*
X20754034Y-3863633D02*
X20754034Y-3757566D01*
X20647967Y-3757566D01*
X20647967Y-3863633D01*
X20754034Y-3863633D01*
X20626000Y-5995600D02*
X20776000Y-6145600D01*
X20776000Y-5995600D02*
X20626000Y-6145600D01*
X20754034Y-6123633D02*
X20754034Y-6017566D01*
X20647967Y-6017566D01*
X20647967Y-6123633D01*
X20754034Y-6123633D01*
X10542200Y-6300400D02*
X10692200Y-6450400D01*
X10692200Y-6300400D02*
X10542200Y-6450400D01*
X10670234Y-6428433D02*
X10670234Y-6322366D01*
X10564167Y-6322366D01*
X10564167Y-6428433D01*
X10670234Y-6428433D01*
X10542200Y-6554400D02*
X10692200Y-6704400D01*
X10692200Y-6554400D02*
X10542200Y-6704400D01*
X10670234Y-6682433D02*
X10670234Y-6576366D01*
X10564167Y-6576366D01*
X10564167Y-6682433D01*
X10670234Y-6682433D01*
X10542200Y-6808400D02*
X10692200Y-6958400D01*
X10692200Y-6808400D02*
X10542200Y-6958400D01*
X10670234Y-6936433D02*
X10670234Y-6830366D01*
X10564167Y-6830366D01*
X10564167Y-6936433D01*
X10670234Y-6936433D01*
X14530000Y-3126000D02*
X14680000Y-3276000D01*
X14680000Y-3126000D02*
X14530000Y-3276000D01*
X14658033Y-3254033D02*
X14658033Y-3147966D01*
X14551966Y-3147966D01*
X14551966Y-3254033D01*
X14658033Y-3254033D01*
X14530000Y-5386000D02*
X14680000Y-5536000D01*
X14680000Y-5386000D02*
X14530000Y-5536000D01*
X14658033Y-5514034D02*
X14658033Y-5407967D01*
X14551966Y-5407967D01*
X14551966Y-5514034D01*
X14658033Y-5514034D01*
X19559200Y-6275000D02*
X19709200Y-6425000D01*
X19709200Y-6275000D02*
X19559200Y-6425000D01*
X19687234Y-6403033D02*
X19687234Y-6296966D01*
X19581167Y-6296966D01*
X19581167Y-6403033D01*
X19687234Y-6403033D01*
X19559200Y-6529000D02*
X19709200Y-6679000D01*
X19709200Y-6529000D02*
X19559200Y-6679000D01*
X19687234Y-6657033D02*
X19687234Y-6550966D01*
X19581167Y-6550966D01*
X19581167Y-6657033D01*
X19687234Y-6657033D01*
X19559200Y-6783000D02*
X19709200Y-6933000D01*
X19709200Y-6783000D02*
X19559200Y-6933000D01*
X19687234Y-6911033D02*
X19687234Y-6804966D01*
X19581167Y-6804966D01*
X19581167Y-6911033D01*
X19687234Y-6911033D01*
X12498000Y-2465000D02*
X12648000Y-2615000D01*
X12648000Y-2465000D02*
X12498000Y-2615000D01*
X12626033Y-2593034D02*
X12626033Y-2486967D01*
X12519966Y-2486967D01*
X12519966Y-2593034D01*
X12626033Y-2593034D01*
X13045500Y-2465000D02*
X13195500Y-2615000D01*
X13195500Y-2465000D02*
X13045500Y-2615000D01*
X13173533Y-2593034D02*
X13173533Y-2486967D01*
X13067466Y-2486967D01*
X13067466Y-2593034D01*
X13173533Y-2593034D01*
X13593000Y-2465000D02*
X13743000Y-2615000D01*
X13743000Y-2465000D02*
X13593000Y-2615000D01*
X13721033Y-2593034D02*
X13721033Y-2486967D01*
X13614966Y-2486967D01*
X13614966Y-2593034D01*
X13721033Y-2593034D01*
D12*
X6379928Y-15454214D02*
X6379928Y-15154214D01*
X6451357Y-15154214D01*
X6494214Y-15168500D01*
X6522786Y-15197071D01*
X6537071Y-15225643D01*
X6551357Y-15282786D01*
X6551357Y-15325643D01*
X6537071Y-15382786D01*
X6522786Y-15411357D01*
X6494214Y-15439929D01*
X6451357Y-15454214D01*
X6379928Y-15454214D01*
X6679928Y-15454214D02*
X6679928Y-15254214D01*
X6679928Y-15311357D02*
X6694214Y-15282786D01*
X6708500Y-15268500D01*
X6737071Y-15254214D01*
X6765643Y-15254214D01*
X6865643Y-15454214D02*
X6865643Y-15254214D01*
X6865643Y-15154214D02*
X6851357Y-15168500D01*
X6865643Y-15182786D01*
X6879928Y-15168500D01*
X6865643Y-15154214D01*
X6865643Y-15182786D01*
X7051357Y-15454214D02*
X7022786Y-15439929D01*
X7008500Y-15411357D01*
X7008500Y-15154214D01*
X7208500Y-15454214D02*
X7179928Y-15439929D01*
X7165643Y-15411357D01*
X7165643Y-15154214D01*
X7551357Y-15454214D02*
X7551357Y-15154214D01*
X7651357Y-15368500D01*
X7751357Y-15154214D01*
X7751357Y-15454214D01*
X8022786Y-15454214D02*
X8022786Y-15297071D01*
X8008500Y-15268500D01*
X7979928Y-15254214D01*
X7922786Y-15254214D01*
X7894214Y-15268500D01*
X8022786Y-15439929D02*
X7994214Y-15454214D01*
X7922786Y-15454214D01*
X7894214Y-15439929D01*
X7879928Y-15411357D01*
X7879928Y-15382786D01*
X7894214Y-15354214D01*
X7922786Y-15339929D01*
X7994214Y-15339929D01*
X8022786Y-15325643D01*
X8165643Y-15254214D02*
X8165643Y-15554214D01*
X8165643Y-15268500D02*
X8194214Y-15254214D01*
X8251357Y-15254214D01*
X8279928Y-15268500D01*
X8294214Y-15282786D01*
X8308500Y-15311357D01*
X8308500Y-15397071D01*
X8294214Y-15425643D01*
X8279928Y-15439929D01*
X8251357Y-15454214D01*
X8194214Y-15454214D01*
X8165643Y-15439929D01*
X8437071Y-15425643D02*
X8451357Y-15439929D01*
X8437071Y-15454214D01*
X8422786Y-15439929D01*
X8437071Y-15425643D01*
X8437071Y-15454214D01*
X8437071Y-15268500D02*
X8451357Y-15282786D01*
X8437071Y-15297071D01*
X8422786Y-15282786D01*
X8437071Y-15268500D01*
X8437071Y-15297071D01*
X6053500Y-15928500D02*
X6093500Y-15968500D01*
X6093500Y-15928500D02*
X6053500Y-15968500D01*
X6437071Y-15784214D02*
X6465643Y-15784214D01*
X6494214Y-15798500D01*
X6508500Y-15812786D01*
X6522786Y-15841357D01*
X6537071Y-15898500D01*
X6537071Y-15969929D01*
X6522786Y-16027071D01*
X6508500Y-16055643D01*
X6494214Y-16069929D01*
X6465643Y-16084214D01*
X6437071Y-16084214D01*
X6408500Y-16069929D01*
X6394214Y-16055643D01*
X6379928Y-16027071D01*
X6365643Y-15969929D01*
X6365643Y-15898500D01*
X6379928Y-15841357D01*
X6394214Y-15812786D01*
X6408500Y-15798500D01*
X6437071Y-15784214D01*
X6665643Y-16055643D02*
X6679928Y-16069929D01*
X6665643Y-16084214D01*
X6651357Y-16069929D01*
X6665643Y-16055643D01*
X6665643Y-16084214D01*
X6937071Y-15884214D02*
X6937071Y-16084214D01*
X6865643Y-15769929D02*
X6794214Y-15984214D01*
X6979928Y-15984214D01*
X7151357Y-15784214D02*
X7179928Y-15784214D01*
X7208500Y-15798500D01*
X7222786Y-15812786D01*
X7237071Y-15841357D01*
X7251357Y-15898500D01*
X7251357Y-15969929D01*
X7237071Y-16027071D01*
X7222786Y-16055643D01*
X7208500Y-16069929D01*
X7179928Y-16084214D01*
X7151357Y-16084214D01*
X7122786Y-16069929D01*
X7108500Y-16055643D01*
X7094214Y-16027071D01*
X7079928Y-15969929D01*
X7079928Y-15898500D01*
X7094214Y-15841357D01*
X7108500Y-15812786D01*
X7122786Y-15798500D01*
X7151357Y-15784214D01*
X7379928Y-16084214D02*
X7379928Y-15884214D01*
X7379928Y-15912786D02*
X7394214Y-15898500D01*
X7422786Y-15884214D01*
X7465643Y-15884214D01*
X7494214Y-15898500D01*
X7508500Y-15927071D01*
X7508500Y-16084214D01*
X7508500Y-15927071D02*
X7522786Y-15898500D01*
X7551357Y-15884214D01*
X7594214Y-15884214D01*
X7622786Y-15898500D01*
X7637071Y-15927071D01*
X7637071Y-16084214D01*
X7779928Y-16084214D02*
X7779928Y-15884214D01*
X7779928Y-15912786D02*
X7794214Y-15898500D01*
X7822786Y-15884214D01*
X7865643Y-15884214D01*
X7894214Y-15898500D01*
X7908500Y-15927071D01*
X7908500Y-16084214D01*
X7908500Y-15927071D02*
X7922786Y-15898500D01*
X7951357Y-15884214D01*
X7994214Y-15884214D01*
X8022786Y-15898500D01*
X8037071Y-15927071D01*
X8037071Y-16084214D01*
X8622786Y-15769929D02*
X8365643Y-16155643D01*
X9008500Y-15784214D02*
X9037071Y-15784214D01*
X9065643Y-15798500D01*
X9079928Y-15812786D01*
X9094214Y-15841357D01*
X9108500Y-15898500D01*
X9108500Y-15969929D01*
X9094214Y-16027071D01*
X9079928Y-16055643D01*
X9065643Y-16069929D01*
X9037071Y-16084214D01*
X9008500Y-16084214D01*
X8979928Y-16069929D01*
X8965643Y-16055643D01*
X8951357Y-16027071D01*
X8937071Y-15969929D01*
X8937071Y-15898500D01*
X8951357Y-15841357D01*
X8965643Y-15812786D01*
X8979928Y-15798500D01*
X9008500Y-15784214D01*
X9237071Y-16055643D02*
X9251357Y-16069929D01*
X9237071Y-16084214D01*
X9222786Y-16069929D01*
X9237071Y-16055643D01*
X9237071Y-16084214D01*
X9437071Y-15784214D02*
X9465643Y-15784214D01*
X9494214Y-15798500D01*
X9508500Y-15812786D01*
X9522786Y-15841357D01*
X9537071Y-15898500D01*
X9537071Y-15969929D01*
X9522786Y-16027071D01*
X9508500Y-16055643D01*
X9494214Y-16069929D01*
X9465643Y-16084214D01*
X9437071Y-16084214D01*
X9408500Y-16069929D01*
X9394214Y-16055643D01*
X9379928Y-16027071D01*
X9365643Y-15969929D01*
X9365643Y-15898500D01*
X9379928Y-15841357D01*
X9394214Y-15812786D01*
X9408500Y-15798500D01*
X9437071Y-15784214D01*
X9822786Y-16084214D02*
X9651357Y-16084214D01*
X9737071Y-16084214D02*
X9737071Y-15784214D01*
X9708500Y-15827071D01*
X9679928Y-15855643D01*
X9651357Y-15869929D01*
X10079928Y-15784214D02*
X10022786Y-15784214D01*
X9994214Y-15798500D01*
X9979928Y-15812786D01*
X9951357Y-15855643D01*
X9937071Y-15912786D01*
X9937071Y-16027071D01*
X9951357Y-16055643D01*
X9965643Y-16069929D01*
X9994214Y-16084214D01*
X10051357Y-16084214D01*
X10079928Y-16069929D01*
X10094214Y-16055643D01*
X10108500Y-16027071D01*
X10108500Y-15955643D01*
X10094214Y-15927071D01*
X10079928Y-15912786D01*
X10051357Y-15898500D01*
X9994214Y-15898500D01*
X9965643Y-15912786D01*
X9951357Y-15927071D01*
X9937071Y-15955643D01*
X10222786Y-15784214D02*
X10222786Y-15841357D01*
X10337071Y-15784214D02*
X10337071Y-15841357D01*
X10779928Y-16198500D02*
X10765643Y-16184214D01*
X10737071Y-16141357D01*
X10722786Y-16112786D01*
X10708500Y-16069929D01*
X10694214Y-15998500D01*
X10694214Y-15941357D01*
X10708500Y-15869929D01*
X10722786Y-15827071D01*
X10737071Y-15798500D01*
X10765643Y-15755643D01*
X10779928Y-15741357D01*
X11051357Y-16084214D02*
X10879928Y-16084214D01*
X10965643Y-16084214D02*
X10965643Y-15784214D01*
X10937071Y-15827071D01*
X10908500Y-15855643D01*
X10879928Y-15869929D01*
X11308500Y-15784214D02*
X11251357Y-15784214D01*
X11222786Y-15798500D01*
X11208500Y-15812786D01*
X11179928Y-15855643D01*
X11165643Y-15912786D01*
X11165643Y-16027071D01*
X11179928Y-16055643D01*
X11194214Y-16069929D01*
X11222786Y-16084214D01*
X11279928Y-16084214D01*
X11308500Y-16069929D01*
X11322786Y-16055643D01*
X11337071Y-16027071D01*
X11337071Y-15955643D01*
X11322786Y-15927071D01*
X11308500Y-15912786D01*
X11279928Y-15898500D01*
X11222786Y-15898500D01*
X11194214Y-15912786D01*
X11179928Y-15927071D01*
X11165643Y-15955643D01*
X11437071Y-15784214D02*
X11637071Y-15784214D01*
X11508500Y-16084214D01*
X11979928Y-16084214D02*
X11979928Y-15784214D01*
X12108500Y-16084214D02*
X12108500Y-15927071D01*
X12094214Y-15898500D01*
X12065643Y-15884214D01*
X12022786Y-15884214D01*
X11994214Y-15898500D01*
X11979928Y-15912786D01*
X12294214Y-16084214D02*
X12265643Y-16069929D01*
X12251357Y-16055643D01*
X12237071Y-16027071D01*
X12237071Y-15941357D01*
X12251357Y-15912786D01*
X12265643Y-15898500D01*
X12294214Y-15884214D01*
X12337071Y-15884214D01*
X12365643Y-15898500D01*
X12379928Y-15912786D01*
X12394214Y-15941357D01*
X12394214Y-16027071D01*
X12379928Y-16055643D01*
X12365643Y-16069929D01*
X12337071Y-16084214D01*
X12294214Y-16084214D01*
X12565643Y-16084214D02*
X12537071Y-16069929D01*
X12522786Y-16041357D01*
X12522786Y-15784214D01*
X12794214Y-16069929D02*
X12765643Y-16084214D01*
X12708500Y-16084214D01*
X12679928Y-16069929D01*
X12665643Y-16041357D01*
X12665643Y-15927071D01*
X12679928Y-15898500D01*
X12708500Y-15884214D01*
X12765643Y-15884214D01*
X12794214Y-15898500D01*
X12808500Y-15927071D01*
X12808500Y-15955643D01*
X12665643Y-15984214D01*
X12922786Y-16069929D02*
X12951357Y-16084214D01*
X13008500Y-16084214D01*
X13037071Y-16069929D01*
X13051357Y-16041357D01*
X13051357Y-16027071D01*
X13037071Y-15998500D01*
X13008500Y-15984214D01*
X12965643Y-15984214D01*
X12937071Y-15969929D01*
X12922786Y-15941357D01*
X12922786Y-15927071D01*
X12937071Y-15898500D01*
X12965643Y-15884214D01*
X13008500Y-15884214D01*
X13037071Y-15898500D01*
X13151357Y-16198500D02*
X13165643Y-16184214D01*
X13194214Y-16141357D01*
X13208500Y-16112786D01*
X13222786Y-16069929D01*
X13237071Y-15998500D01*
X13237071Y-15941357D01*
X13222786Y-15869929D01*
X13208500Y-15827071D01*
X13194214Y-15798500D01*
X13165643Y-15755643D01*
X13151357Y-15741357D01*
X6093500Y-16344500D02*
G75*
G03X6093500Y-16344500I-27500J0D01*
G01*
X6437071Y-16180214D02*
X6465643Y-16180214D01*
X6494214Y-16194500D01*
X6508500Y-16208786D01*
X6522786Y-16237357D01*
X6537071Y-16294500D01*
X6537071Y-16365929D01*
X6522786Y-16423071D01*
X6508500Y-16451643D01*
X6494214Y-16465929D01*
X6465643Y-16480214D01*
X6437071Y-16480214D01*
X6408500Y-16465929D01*
X6394214Y-16451643D01*
X6379928Y-16423071D01*
X6365643Y-16365929D01*
X6365643Y-16294500D01*
X6379928Y-16237357D01*
X6394214Y-16208786D01*
X6408500Y-16194500D01*
X6437071Y-16180214D01*
X6665643Y-16451643D02*
X6679928Y-16465929D01*
X6665643Y-16480214D01*
X6651357Y-16465929D01*
X6665643Y-16451643D01*
X6665643Y-16480214D01*
X6951357Y-16180214D02*
X6808500Y-16180214D01*
X6794214Y-16323071D01*
X6808500Y-16308786D01*
X6837071Y-16294500D01*
X6908500Y-16294500D01*
X6937071Y-16308786D01*
X6951357Y-16323071D01*
X6965643Y-16351643D01*
X6965643Y-16423071D01*
X6951357Y-16451643D01*
X6937071Y-16465929D01*
X6908500Y-16480214D01*
X6837071Y-16480214D01*
X6808500Y-16465929D01*
X6794214Y-16451643D01*
X7237071Y-16180214D02*
X7094214Y-16180214D01*
X7079928Y-16323071D01*
X7094214Y-16308786D01*
X7122786Y-16294500D01*
X7194214Y-16294500D01*
X7222786Y-16308786D01*
X7237071Y-16323071D01*
X7251357Y-16351643D01*
X7251357Y-16423071D01*
X7237071Y-16451643D01*
X7222786Y-16465929D01*
X7194214Y-16480214D01*
X7122786Y-16480214D01*
X7094214Y-16465929D01*
X7079928Y-16451643D01*
X7379928Y-16480214D02*
X7379928Y-16280214D01*
X7379928Y-16308786D02*
X7394214Y-16294500D01*
X7422786Y-16280214D01*
X7465643Y-16280214D01*
X7494214Y-16294500D01*
X7508500Y-16323071D01*
X7508500Y-16480214D01*
X7508500Y-16323071D02*
X7522786Y-16294500D01*
X7551357Y-16280214D01*
X7594214Y-16280214D01*
X7622786Y-16294500D01*
X7637071Y-16323071D01*
X7637071Y-16480214D01*
X7779928Y-16480214D02*
X7779928Y-16280214D01*
X7779928Y-16308786D02*
X7794214Y-16294500D01*
X7822786Y-16280214D01*
X7865643Y-16280214D01*
X7894214Y-16294500D01*
X7908500Y-16323071D01*
X7908500Y-16480214D01*
X7908500Y-16323071D02*
X7922786Y-16294500D01*
X7951357Y-16280214D01*
X7994214Y-16280214D01*
X8022786Y-16294500D01*
X8037071Y-16323071D01*
X8037071Y-16480214D01*
X8622786Y-16165929D02*
X8365643Y-16551643D01*
X9008500Y-16180214D02*
X9037071Y-16180214D01*
X9065643Y-16194500D01*
X9079928Y-16208786D01*
X9094214Y-16237357D01*
X9108500Y-16294500D01*
X9108500Y-16365929D01*
X9094214Y-16423071D01*
X9079928Y-16451643D01*
X9065643Y-16465929D01*
X9037071Y-16480214D01*
X9008500Y-16480214D01*
X8979928Y-16465929D01*
X8965643Y-16451643D01*
X8951357Y-16423071D01*
X8937071Y-16365929D01*
X8937071Y-16294500D01*
X8951357Y-16237357D01*
X8965643Y-16208786D01*
X8979928Y-16194500D01*
X9008500Y-16180214D01*
X9237071Y-16451643D02*
X9251357Y-16465929D01*
X9237071Y-16480214D01*
X9222786Y-16465929D01*
X9237071Y-16451643D01*
X9237071Y-16480214D01*
X9437071Y-16180214D02*
X9465643Y-16180214D01*
X9494214Y-16194500D01*
X9508500Y-16208786D01*
X9522786Y-16237357D01*
X9537071Y-16294500D01*
X9537071Y-16365929D01*
X9522786Y-16423071D01*
X9508500Y-16451643D01*
X9494214Y-16465929D01*
X9465643Y-16480214D01*
X9437071Y-16480214D01*
X9408500Y-16465929D01*
X9394214Y-16451643D01*
X9379928Y-16423071D01*
X9365643Y-16365929D01*
X9365643Y-16294500D01*
X9379928Y-16237357D01*
X9394214Y-16208786D01*
X9408500Y-16194500D01*
X9437071Y-16180214D01*
X9651357Y-16208786D02*
X9665643Y-16194500D01*
X9694214Y-16180214D01*
X9765643Y-16180214D01*
X9794214Y-16194500D01*
X9808500Y-16208786D01*
X9822786Y-16237357D01*
X9822786Y-16265929D01*
X9808500Y-16308786D01*
X9637071Y-16480214D01*
X9822786Y-16480214D01*
X9937071Y-16208786D02*
X9951357Y-16194500D01*
X9979928Y-16180214D01*
X10051357Y-16180214D01*
X10079928Y-16194500D01*
X10094214Y-16208786D01*
X10108500Y-16237357D01*
X10108500Y-16265929D01*
X10094214Y-16308786D01*
X9922786Y-16480214D01*
X10108500Y-16480214D01*
X10222786Y-16180214D02*
X10222786Y-16237357D01*
X10337071Y-16180214D02*
X10337071Y-16237357D01*
X10779928Y-16594500D02*
X10765643Y-16580214D01*
X10737071Y-16537357D01*
X10722786Y-16508786D01*
X10708500Y-16465929D01*
X10694214Y-16394500D01*
X10694214Y-16337357D01*
X10708500Y-16265929D01*
X10722786Y-16223071D01*
X10737071Y-16194500D01*
X10765643Y-16151643D01*
X10779928Y-16137357D01*
X10879928Y-16208786D02*
X10894214Y-16194500D01*
X10922786Y-16180214D01*
X10994214Y-16180214D01*
X11022786Y-16194500D01*
X11037071Y-16208786D01*
X11051357Y-16237357D01*
X11051357Y-16265929D01*
X11037071Y-16308786D01*
X10865643Y-16480214D01*
X11051357Y-16480214D01*
X11308500Y-16280214D02*
X11308500Y-16480214D01*
X11237071Y-16165929D02*
X11165643Y-16380214D01*
X11351357Y-16380214D01*
X11694214Y-16480214D02*
X11694214Y-16180214D01*
X11822786Y-16480214D02*
X11822786Y-16323071D01*
X11808500Y-16294500D01*
X11779928Y-16280214D01*
X11737071Y-16280214D01*
X11708500Y-16294500D01*
X11694214Y-16308786D01*
X12008500Y-16480214D02*
X11979928Y-16465929D01*
X11965643Y-16451643D01*
X11951357Y-16423071D01*
X11951357Y-16337357D01*
X11965643Y-16308786D01*
X11979928Y-16294500D01*
X12008500Y-16280214D01*
X12051357Y-16280214D01*
X12079928Y-16294500D01*
X12094214Y-16308786D01*
X12108500Y-16337357D01*
X12108500Y-16423071D01*
X12094214Y-16451643D01*
X12079928Y-16465929D01*
X12051357Y-16480214D01*
X12008500Y-16480214D01*
X12279928Y-16480214D02*
X12251357Y-16465929D01*
X12237071Y-16437357D01*
X12237071Y-16180214D01*
X12508500Y-16465929D02*
X12479928Y-16480214D01*
X12422786Y-16480214D01*
X12394214Y-16465929D01*
X12379928Y-16437357D01*
X12379928Y-16323071D01*
X12394214Y-16294500D01*
X12422786Y-16280214D01*
X12479928Y-16280214D01*
X12508500Y-16294500D01*
X12522786Y-16323071D01*
X12522786Y-16351643D01*
X12379928Y-16380214D01*
X12637071Y-16465929D02*
X12665643Y-16480214D01*
X12722786Y-16480214D01*
X12751357Y-16465929D01*
X12765643Y-16437357D01*
X12765643Y-16423071D01*
X12751357Y-16394500D01*
X12722786Y-16380214D01*
X12679928Y-16380214D01*
X12651357Y-16365929D01*
X12637071Y-16337357D01*
X12637071Y-16323071D01*
X12651357Y-16294500D01*
X12679928Y-16280214D01*
X12722786Y-16280214D01*
X12751357Y-16294500D01*
X12865643Y-16594500D02*
X12879928Y-16580214D01*
X12908500Y-16537357D01*
X12922786Y-16508786D01*
X12937071Y-16465929D01*
X12951357Y-16394500D01*
X12951357Y-16337357D01*
X12937071Y-16265929D01*
X12922786Y-16223071D01*
X12908500Y-16194500D01*
X12879928Y-16151643D01*
X12865643Y-16137357D01*
X6056000Y-16703000D02*
X6056000Y-16778000D01*
X6018500Y-16740500D02*
X6093500Y-16740500D01*
X6437071Y-16576214D02*
X6465643Y-16576214D01*
X6494214Y-16590500D01*
X6508500Y-16604786D01*
X6522786Y-16633357D01*
X6537071Y-16690500D01*
X6537071Y-16761929D01*
X6522786Y-16819072D01*
X6508500Y-16847643D01*
X6494214Y-16861929D01*
X6465643Y-16876214D01*
X6437071Y-16876214D01*
X6408500Y-16861929D01*
X6394214Y-16847643D01*
X6379928Y-16819072D01*
X6365643Y-16761929D01*
X6365643Y-16690500D01*
X6379928Y-16633357D01*
X6394214Y-16604786D01*
X6408500Y-16590500D01*
X6437071Y-16576214D01*
X6665643Y-16847643D02*
X6679928Y-16861929D01*
X6665643Y-16876214D01*
X6651357Y-16861929D01*
X6665643Y-16847643D01*
X6665643Y-16876214D01*
X6779928Y-16576214D02*
X6979928Y-16576214D01*
X6851357Y-16876214D01*
X7237071Y-16576214D02*
X7094214Y-16576214D01*
X7079928Y-16719071D01*
X7094214Y-16704786D01*
X7122786Y-16690500D01*
X7194214Y-16690500D01*
X7222786Y-16704786D01*
X7237071Y-16719071D01*
X7251357Y-16747643D01*
X7251357Y-16819072D01*
X7237071Y-16847643D01*
X7222786Y-16861929D01*
X7194214Y-16876214D01*
X7122786Y-16876214D01*
X7094214Y-16861929D01*
X7079928Y-16847643D01*
X7379928Y-16876214D02*
X7379928Y-16676214D01*
X7379928Y-16704786D02*
X7394214Y-16690500D01*
X7422786Y-16676214D01*
X7465643Y-16676214D01*
X7494214Y-16690500D01*
X7508500Y-16719071D01*
X7508500Y-16876214D01*
X7508500Y-16719071D02*
X7522786Y-16690500D01*
X7551357Y-16676214D01*
X7594214Y-16676214D01*
X7622786Y-16690500D01*
X7637071Y-16719071D01*
X7637071Y-16876214D01*
X7779928Y-16876214D02*
X7779928Y-16676214D01*
X7779928Y-16704786D02*
X7794214Y-16690500D01*
X7822786Y-16676214D01*
X7865643Y-16676214D01*
X7894214Y-16690500D01*
X7908500Y-16719071D01*
X7908500Y-16876214D01*
X7908500Y-16719071D02*
X7922786Y-16690500D01*
X7951357Y-16676214D01*
X7994214Y-16676214D01*
X8022786Y-16690500D01*
X8037071Y-16719071D01*
X8037071Y-16876214D01*
X8622786Y-16561929D02*
X8365643Y-16947643D01*
X9008500Y-16576214D02*
X9037071Y-16576214D01*
X9065643Y-16590500D01*
X9079928Y-16604786D01*
X9094214Y-16633357D01*
X9108500Y-16690500D01*
X9108500Y-16761929D01*
X9094214Y-16819072D01*
X9079928Y-16847643D01*
X9065643Y-16861929D01*
X9037071Y-16876214D01*
X9008500Y-16876214D01*
X8979928Y-16861929D01*
X8965643Y-16847643D01*
X8951357Y-16819072D01*
X8937071Y-16761929D01*
X8937071Y-16690500D01*
X8951357Y-16633357D01*
X8965643Y-16604786D01*
X8979928Y-16590500D01*
X9008500Y-16576214D01*
X9237071Y-16847643D02*
X9251357Y-16861929D01*
X9237071Y-16876214D01*
X9222786Y-16861929D01*
X9237071Y-16847643D01*
X9237071Y-16876214D01*
X9437071Y-16576214D02*
X9465643Y-16576214D01*
X9494214Y-16590500D01*
X9508500Y-16604786D01*
X9522786Y-16633357D01*
X9537071Y-16690500D01*
X9537071Y-16761929D01*
X9522786Y-16819072D01*
X9508500Y-16847643D01*
X9494214Y-16861929D01*
X9465643Y-16876214D01*
X9437071Y-16876214D01*
X9408500Y-16861929D01*
X9394214Y-16847643D01*
X9379928Y-16819072D01*
X9365643Y-16761929D01*
X9365643Y-16690500D01*
X9379928Y-16633357D01*
X9394214Y-16604786D01*
X9408500Y-16590500D01*
X9437071Y-16576214D01*
X9637071Y-16576214D02*
X9822786Y-16576214D01*
X9722786Y-16690500D01*
X9765643Y-16690500D01*
X9794214Y-16704786D01*
X9808500Y-16719071D01*
X9822786Y-16747643D01*
X9822786Y-16819072D01*
X9808500Y-16847643D01*
X9794214Y-16861929D01*
X9765643Y-16876214D01*
X9679928Y-16876214D01*
X9651357Y-16861929D01*
X9637071Y-16847643D01*
X10008500Y-16576214D02*
X10037071Y-16576214D01*
X10065643Y-16590500D01*
X10079928Y-16604786D01*
X10094214Y-16633357D01*
X10108500Y-16690500D01*
X10108500Y-16761929D01*
X10094214Y-16819072D01*
X10079928Y-16847643D01*
X10065643Y-16861929D01*
X10037071Y-16876214D01*
X10008500Y-16876214D01*
X9979928Y-16861929D01*
X9965643Y-16847643D01*
X9951357Y-16819072D01*
X9937071Y-16761929D01*
X9937071Y-16690500D01*
X9951357Y-16633357D01*
X9965643Y-16604786D01*
X9979928Y-16590500D01*
X10008500Y-16576214D01*
X10222786Y-16576214D02*
X10222786Y-16633357D01*
X10337071Y-16576214D02*
X10337071Y-16633357D01*
X10779928Y-16990500D02*
X10765643Y-16976214D01*
X10737071Y-16933357D01*
X10722786Y-16904786D01*
X10708500Y-16861929D01*
X10694214Y-16790500D01*
X10694214Y-16733357D01*
X10708500Y-16661929D01*
X10722786Y-16619071D01*
X10737071Y-16590500D01*
X10765643Y-16547643D01*
X10779928Y-16533357D01*
X11022786Y-16676214D02*
X11022786Y-16876214D01*
X10951357Y-16561929D02*
X10879928Y-16776214D01*
X11065643Y-16776214D01*
X11165643Y-16604786D02*
X11179928Y-16590500D01*
X11208500Y-16576214D01*
X11279928Y-16576214D01*
X11308500Y-16590500D01*
X11322786Y-16604786D01*
X11337071Y-16633357D01*
X11337071Y-16661929D01*
X11322786Y-16704786D01*
X11151357Y-16876214D01*
X11337071Y-16876214D01*
X11694214Y-16876214D02*
X11694214Y-16576214D01*
X11822786Y-16876214D02*
X11822786Y-16719071D01*
X11808500Y-16690500D01*
X11779928Y-16676214D01*
X11737071Y-16676214D01*
X11708500Y-16690500D01*
X11694214Y-16704786D01*
X12008500Y-16876214D02*
X11979928Y-16861929D01*
X11965643Y-16847643D01*
X11951357Y-16819072D01*
X11951357Y-16733357D01*
X11965643Y-16704786D01*
X11979928Y-16690500D01*
X12008500Y-16676214D01*
X12051357Y-16676214D01*
X12079928Y-16690500D01*
X12094214Y-16704786D01*
X12108500Y-16733357D01*
X12108500Y-16819072D01*
X12094214Y-16847643D01*
X12079928Y-16861929D01*
X12051357Y-16876214D01*
X12008500Y-16876214D01*
X12279928Y-16876214D02*
X12251357Y-16861929D01*
X12237071Y-16833357D01*
X12237071Y-16576214D01*
X12508500Y-16861929D02*
X12479928Y-16876214D01*
X12422786Y-16876214D01*
X12394214Y-16861929D01*
X12379928Y-16833357D01*
X12379928Y-16719071D01*
X12394214Y-16690500D01*
X12422786Y-16676214D01*
X12479928Y-16676214D01*
X12508500Y-16690500D01*
X12522786Y-16719071D01*
X12522786Y-16747643D01*
X12379928Y-16776214D01*
X12637071Y-16861929D02*
X12665643Y-16876214D01*
X12722786Y-16876214D01*
X12751357Y-16861929D01*
X12765643Y-16833357D01*
X12765643Y-16819072D01*
X12751357Y-16790500D01*
X12722786Y-16776214D01*
X12679928Y-16776214D01*
X12651357Y-16761929D01*
X12637071Y-16733357D01*
X12637071Y-16719071D01*
X12651357Y-16690500D01*
X12679928Y-16676214D01*
X12722786Y-16676214D01*
X12751357Y-16690500D01*
X12865643Y-16990500D02*
X12879928Y-16976214D01*
X12908500Y-16933357D01*
X12922786Y-16904786D01*
X12937071Y-16861929D01*
X12951357Y-16790500D01*
X12951357Y-16733357D01*
X12937071Y-16661929D01*
X12922786Y-16619071D01*
X12908500Y-16590500D01*
X12879928Y-16547643D01*
X12865643Y-16533357D01*
X6081784Y-17164785D02*
X6081784Y-17108216D01*
X6025215Y-17108216D01*
X6025215Y-17164785D01*
X6081784Y-17164785D01*
X6437071Y-16972214D02*
X6465643Y-16972214D01*
X6494214Y-16986500D01*
X6508500Y-17000786D01*
X6522786Y-17029357D01*
X6537071Y-17086500D01*
X6537071Y-17157929D01*
X6522786Y-17215072D01*
X6508500Y-17243643D01*
X6494214Y-17257929D01*
X6465643Y-17272214D01*
X6437071Y-17272214D01*
X6408500Y-17257929D01*
X6394214Y-17243643D01*
X6379928Y-17215072D01*
X6365643Y-17157929D01*
X6365643Y-17086500D01*
X6379928Y-17029357D01*
X6394214Y-17000786D01*
X6408500Y-16986500D01*
X6437071Y-16972214D01*
X6665643Y-17243643D02*
X6679928Y-17257929D01*
X6665643Y-17272214D01*
X6651357Y-17257929D01*
X6665643Y-17243643D01*
X6665643Y-17272214D01*
X6851357Y-17100786D02*
X6822786Y-17086500D01*
X6808500Y-17072214D01*
X6794214Y-17043643D01*
X6794214Y-17029357D01*
X6808500Y-17000786D01*
X6822786Y-16986500D01*
X6851357Y-16972214D01*
X6908500Y-16972214D01*
X6937071Y-16986500D01*
X6951357Y-17000786D01*
X6965643Y-17029357D01*
X6965643Y-17043643D01*
X6951357Y-17072214D01*
X6937071Y-17086500D01*
X6908500Y-17100786D01*
X6851357Y-17100786D01*
X6822786Y-17115072D01*
X6808500Y-17129357D01*
X6794214Y-17157929D01*
X6794214Y-17215072D01*
X6808500Y-17243643D01*
X6822786Y-17257929D01*
X6851357Y-17272214D01*
X6908500Y-17272214D01*
X6937071Y-17257929D01*
X6951357Y-17243643D01*
X6965643Y-17215072D01*
X6965643Y-17157929D01*
X6951357Y-17129357D01*
X6937071Y-17115072D01*
X6908500Y-17100786D01*
X7151357Y-16972214D02*
X7179928Y-16972214D01*
X7208500Y-16986500D01*
X7222786Y-17000786D01*
X7237071Y-17029357D01*
X7251357Y-17086500D01*
X7251357Y-17157929D01*
X7237071Y-17215072D01*
X7222786Y-17243643D01*
X7208500Y-17257929D01*
X7179928Y-17272214D01*
X7151357Y-17272214D01*
X7122786Y-17257929D01*
X7108500Y-17243643D01*
X7094214Y-17215072D01*
X7079928Y-17157929D01*
X7079928Y-17086500D01*
X7094214Y-17029357D01*
X7108500Y-17000786D01*
X7122786Y-16986500D01*
X7151357Y-16972214D01*
X7379928Y-17272214D02*
X7379928Y-17072214D01*
X7379928Y-17100786D02*
X7394214Y-17086500D01*
X7422786Y-17072214D01*
X7465643Y-17072214D01*
X7494214Y-17086500D01*
X7508500Y-17115072D01*
X7508500Y-17272214D01*
X7508500Y-17115072D02*
X7522786Y-17086500D01*
X7551357Y-17072214D01*
X7594214Y-17072214D01*
X7622786Y-17086500D01*
X7637071Y-17115072D01*
X7637071Y-17272214D01*
X7779928Y-17272214D02*
X7779928Y-17072214D01*
X7779928Y-17100786D02*
X7794214Y-17086500D01*
X7822786Y-17072214D01*
X7865643Y-17072214D01*
X7894214Y-17086500D01*
X7908500Y-17115072D01*
X7908500Y-17272214D01*
X7908500Y-17115072D02*
X7922786Y-17086500D01*
X7951357Y-17072214D01*
X7994214Y-17072214D01*
X8022786Y-17086500D01*
X8037071Y-17115072D01*
X8037071Y-17272214D01*
X8622786Y-16957929D02*
X8365643Y-17343643D01*
X9008500Y-16972214D02*
X9037071Y-16972214D01*
X9065643Y-16986500D01*
X9079928Y-17000786D01*
X9094214Y-17029357D01*
X9108500Y-17086500D01*
X9108500Y-17157929D01*
X9094214Y-17215072D01*
X9079928Y-17243643D01*
X9065643Y-17257929D01*
X9037071Y-17272214D01*
X9008500Y-17272214D01*
X8979928Y-17257929D01*
X8965643Y-17243643D01*
X8951357Y-17215072D01*
X8937071Y-17157929D01*
X8937071Y-17086500D01*
X8951357Y-17029357D01*
X8965643Y-17000786D01*
X8979928Y-16986500D01*
X9008500Y-16972214D01*
X9237071Y-17243643D02*
X9251357Y-17257929D01*
X9237071Y-17272214D01*
X9222786Y-17257929D01*
X9237071Y-17243643D01*
X9237071Y-17272214D01*
X9437071Y-16972214D02*
X9465643Y-16972214D01*
X9494214Y-16986500D01*
X9508500Y-17000786D01*
X9522786Y-17029357D01*
X9537071Y-17086500D01*
X9537071Y-17157929D01*
X9522786Y-17215072D01*
X9508500Y-17243643D01*
X9494214Y-17257929D01*
X9465643Y-17272214D01*
X9437071Y-17272214D01*
X9408500Y-17257929D01*
X9394214Y-17243643D01*
X9379928Y-17215072D01*
X9365643Y-17157929D01*
X9365643Y-17086500D01*
X9379928Y-17029357D01*
X9394214Y-17000786D01*
X9408500Y-16986500D01*
X9437071Y-16972214D01*
X9637071Y-16972214D02*
X9822786Y-16972214D01*
X9722786Y-17086500D01*
X9765643Y-17086500D01*
X9794214Y-17100786D01*
X9808500Y-17115072D01*
X9822786Y-17143643D01*
X9822786Y-17215072D01*
X9808500Y-17243643D01*
X9794214Y-17257929D01*
X9765643Y-17272214D01*
X9679928Y-17272214D01*
X9651357Y-17257929D01*
X9637071Y-17243643D01*
X10108500Y-17272214D02*
X9937071Y-17272214D01*
X10022786Y-17272214D02*
X10022786Y-16972214D01*
X9994214Y-17015072D01*
X9965643Y-17043643D01*
X9937071Y-17057929D01*
X10222786Y-16972214D02*
X10222786Y-17029357D01*
X10337071Y-16972214D02*
X10337071Y-17029357D01*
X10779928Y-17386500D02*
X10765643Y-17372214D01*
X10737071Y-17329357D01*
X10722786Y-17300786D01*
X10708500Y-17257929D01*
X10694214Y-17186500D01*
X10694214Y-17129357D01*
X10708500Y-17057929D01*
X10722786Y-17015072D01*
X10737071Y-16986500D01*
X10765643Y-16943643D01*
X10779928Y-16929357D01*
X11051357Y-17272214D02*
X10879928Y-17272214D01*
X10965643Y-17272214D02*
X10965643Y-16972214D01*
X10937071Y-17015072D01*
X10908500Y-17043643D01*
X10879928Y-17057929D01*
X11308500Y-16972214D02*
X11251357Y-16972214D01*
X11222786Y-16986500D01*
X11208500Y-17000786D01*
X11179928Y-17043643D01*
X11165643Y-17100786D01*
X11165643Y-17215072D01*
X11179928Y-17243643D01*
X11194214Y-17257929D01*
X11222786Y-17272214D01*
X11279928Y-17272214D01*
X11308500Y-17257929D01*
X11322786Y-17243643D01*
X11337071Y-17215072D01*
X11337071Y-17143643D01*
X11322786Y-17115072D01*
X11308500Y-17100786D01*
X11279928Y-17086500D01*
X11222786Y-17086500D01*
X11194214Y-17100786D01*
X11179928Y-17115072D01*
X11165643Y-17143643D01*
X11451357Y-17000786D02*
X11465643Y-16986500D01*
X11494214Y-16972214D01*
X11565643Y-16972214D01*
X11594214Y-16986500D01*
X11608500Y-17000786D01*
X11622786Y-17029357D01*
X11622786Y-17057929D01*
X11608500Y-17100786D01*
X11437071Y-17272214D01*
X11622786Y-17272214D01*
X11979928Y-17272214D02*
X11979928Y-16972214D01*
X12108500Y-17272214D02*
X12108500Y-17115072D01*
X12094214Y-17086500D01*
X12065643Y-17072214D01*
X12022786Y-17072214D01*
X11994214Y-17086500D01*
X11979928Y-17100786D01*
X12294214Y-17272214D02*
X12265643Y-17257929D01*
X12251357Y-17243643D01*
X12237071Y-17215072D01*
X12237071Y-17129357D01*
X12251357Y-17100786D01*
X12265643Y-17086500D01*
X12294214Y-17072214D01*
X12337071Y-17072214D01*
X12365643Y-17086500D01*
X12379928Y-17100786D01*
X12394214Y-17129357D01*
X12394214Y-17215072D01*
X12379928Y-17243643D01*
X12365643Y-17257929D01*
X12337071Y-17272214D01*
X12294214Y-17272214D01*
X12565643Y-17272214D02*
X12537071Y-17257929D01*
X12522786Y-17229357D01*
X12522786Y-16972214D01*
X12794214Y-17257929D02*
X12765643Y-17272214D01*
X12708500Y-17272214D01*
X12679928Y-17257929D01*
X12665643Y-17229357D01*
X12665643Y-17115072D01*
X12679928Y-17086500D01*
X12708500Y-17072214D01*
X12765643Y-17072214D01*
X12794214Y-17086500D01*
X12808500Y-17115072D01*
X12808500Y-17143643D01*
X12665643Y-17172214D01*
X12922786Y-17257929D02*
X12951357Y-17272214D01*
X13008500Y-17272214D01*
X13037071Y-17257929D01*
X13051357Y-17229357D01*
X13051357Y-17215072D01*
X13037071Y-17186500D01*
X13008500Y-17172214D01*
X12965643Y-17172214D01*
X12937071Y-17157929D01*
X12922786Y-17129357D01*
X12922786Y-17115072D01*
X12937071Y-17086500D01*
X12965643Y-17072214D01*
X13008500Y-17072214D01*
X13037071Y-17086500D01*
X13151357Y-17386500D02*
X13165643Y-17372214D01*
X13194214Y-17329357D01*
X13208500Y-17300786D01*
X13222786Y-17257929D01*
X13237071Y-17186500D01*
X13237071Y-17129357D01*
X13222786Y-17057929D01*
X13208500Y-17015072D01*
X13194214Y-16986500D01*
X13165643Y-16943643D01*
X13151357Y-16929357D01*
X6038500Y-17587500D02*
X6093500Y-17532500D01*
X6038500Y-17477500D01*
X5983500Y-17532500D01*
X6038500Y-17587500D01*
X6537071Y-17668214D02*
X6365643Y-17668214D01*
X6451357Y-17668214D02*
X6451357Y-17368214D01*
X6422786Y-17411072D01*
X6394214Y-17439643D01*
X6365643Y-17453929D01*
X6665643Y-17639643D02*
X6679928Y-17653929D01*
X6665643Y-17668214D01*
X6651357Y-17653929D01*
X6665643Y-17639643D01*
X6665643Y-17668214D01*
X6965643Y-17668214D02*
X6794214Y-17668214D01*
X6879928Y-17668214D02*
X6879928Y-17368214D01*
X6851357Y-17411072D01*
X6822786Y-17439643D01*
X6794214Y-17453929D01*
X7151357Y-17368214D02*
X7179928Y-17368214D01*
X7208500Y-17382500D01*
X7222786Y-17396786D01*
X7237071Y-17425357D01*
X7251357Y-17482500D01*
X7251357Y-17553929D01*
X7237071Y-17611072D01*
X7222786Y-17639643D01*
X7208500Y-17653929D01*
X7179928Y-17668214D01*
X7151357Y-17668214D01*
X7122786Y-17653929D01*
X7108500Y-17639643D01*
X7094214Y-17611072D01*
X7079928Y-17553929D01*
X7079928Y-17482500D01*
X7094214Y-17425357D01*
X7108500Y-17396786D01*
X7122786Y-17382500D01*
X7151357Y-17368214D01*
X7379928Y-17668214D02*
X7379928Y-17468214D01*
X7379928Y-17496786D02*
X7394214Y-17482500D01*
X7422786Y-17468214D01*
X7465643Y-17468214D01*
X7494214Y-17482500D01*
X7508500Y-17511072D01*
X7508500Y-17668214D01*
X7508500Y-17511072D02*
X7522786Y-17482500D01*
X7551357Y-17468214D01*
X7594214Y-17468214D01*
X7622786Y-17482500D01*
X7637071Y-17511072D01*
X7637071Y-17668214D01*
X7779928Y-17668214D02*
X7779928Y-17468214D01*
X7779928Y-17496786D02*
X7794214Y-17482500D01*
X7822786Y-17468214D01*
X7865643Y-17468214D01*
X7894214Y-17482500D01*
X7908500Y-17511072D01*
X7908500Y-17668214D01*
X7908500Y-17511072D02*
X7922786Y-17482500D01*
X7951357Y-17468214D01*
X7994214Y-17468214D01*
X8022786Y-17482500D01*
X8037071Y-17511072D01*
X8037071Y-17668214D01*
X8622786Y-17353929D02*
X8365643Y-17739643D01*
X9008500Y-17368214D02*
X9037071Y-17368214D01*
X9065643Y-17382500D01*
X9079928Y-17396786D01*
X9094214Y-17425357D01*
X9108500Y-17482500D01*
X9108500Y-17553929D01*
X9094214Y-17611072D01*
X9079928Y-17639643D01*
X9065643Y-17653929D01*
X9037071Y-17668214D01*
X9008500Y-17668214D01*
X8979928Y-17653929D01*
X8965643Y-17639643D01*
X8951357Y-17611072D01*
X8937071Y-17553929D01*
X8937071Y-17482500D01*
X8951357Y-17425357D01*
X8965643Y-17396786D01*
X8979928Y-17382500D01*
X9008500Y-17368214D01*
X9237071Y-17639643D02*
X9251357Y-17653929D01*
X9237071Y-17668214D01*
X9222786Y-17653929D01*
X9237071Y-17639643D01*
X9237071Y-17668214D01*
X9437071Y-17368214D02*
X9465643Y-17368214D01*
X9494214Y-17382500D01*
X9508500Y-17396786D01*
X9522786Y-17425357D01*
X9537071Y-17482500D01*
X9537071Y-17553929D01*
X9522786Y-17611072D01*
X9508500Y-17639643D01*
X9494214Y-17653929D01*
X9465643Y-17668214D01*
X9437071Y-17668214D01*
X9408500Y-17653929D01*
X9394214Y-17639643D01*
X9379928Y-17611072D01*
X9365643Y-17553929D01*
X9365643Y-17482500D01*
X9379928Y-17425357D01*
X9394214Y-17396786D01*
X9408500Y-17382500D01*
X9437071Y-17368214D01*
X9794214Y-17468214D02*
X9794214Y-17668214D01*
X9722786Y-17353929D02*
X9651357Y-17568214D01*
X9837071Y-17568214D01*
X9922786Y-17368214D02*
X10108500Y-17368214D01*
X10008500Y-17482500D01*
X10051357Y-17482500D01*
X10079928Y-17496786D01*
X10094214Y-17511072D01*
X10108500Y-17539643D01*
X10108500Y-17611072D01*
X10094214Y-17639643D01*
X10079928Y-17653929D01*
X10051357Y-17668214D01*
X9965643Y-17668214D01*
X9937071Y-17653929D01*
X9922786Y-17639643D01*
X10222786Y-17368214D02*
X10222786Y-17425357D01*
X10337071Y-17368214D02*
X10337071Y-17425357D01*
X10779928Y-17782500D02*
X10765643Y-17768214D01*
X10737071Y-17725357D01*
X10722786Y-17696786D01*
X10708500Y-17653929D01*
X10694214Y-17582500D01*
X10694214Y-17525357D01*
X10708500Y-17453929D01*
X10722786Y-17411072D01*
X10737071Y-17382500D01*
X10765643Y-17339643D01*
X10779928Y-17325357D01*
X10879928Y-17396786D02*
X10894214Y-17382500D01*
X10922786Y-17368214D01*
X10994214Y-17368214D01*
X11022786Y-17382500D01*
X11037071Y-17396786D01*
X11051357Y-17425357D01*
X11051357Y-17453929D01*
X11037071Y-17496786D01*
X10865643Y-17668214D01*
X11051357Y-17668214D01*
X11308500Y-17468214D02*
X11308500Y-17668214D01*
X11237071Y-17353929D02*
X11165643Y-17568214D01*
X11351357Y-17568214D01*
X11694214Y-17668214D02*
X11694214Y-17368214D01*
X11822786Y-17668214D02*
X11822786Y-17511072D01*
X11808500Y-17482500D01*
X11779928Y-17468214D01*
X11737071Y-17468214D01*
X11708500Y-17482500D01*
X11694214Y-17496786D01*
X12008500Y-17668214D02*
X11979928Y-17653929D01*
X11965643Y-17639643D01*
X11951357Y-17611072D01*
X11951357Y-17525357D01*
X11965643Y-17496786D01*
X11979928Y-17482500D01*
X12008500Y-17468214D01*
X12051357Y-17468214D01*
X12079928Y-17482500D01*
X12094214Y-17496786D01*
X12108500Y-17525357D01*
X12108500Y-17611072D01*
X12094214Y-17639643D01*
X12079928Y-17653929D01*
X12051357Y-17668214D01*
X12008500Y-17668214D01*
X12279928Y-17668214D02*
X12251357Y-17653929D01*
X12237071Y-17625357D01*
X12237071Y-17368214D01*
X12508500Y-17653929D02*
X12479928Y-17668214D01*
X12422786Y-17668214D01*
X12394214Y-17653929D01*
X12379928Y-17625357D01*
X12379928Y-17511072D01*
X12394214Y-17482500D01*
X12422786Y-17468214D01*
X12479928Y-17468214D01*
X12508500Y-17482500D01*
X12522786Y-17511072D01*
X12522786Y-17539643D01*
X12379928Y-17568214D01*
X12637071Y-17653929D02*
X12665643Y-17668214D01*
X12722786Y-17668214D01*
X12751357Y-17653929D01*
X12765643Y-17625357D01*
X12765643Y-17611072D01*
X12751357Y-17582500D01*
X12722786Y-17568214D01*
X12679928Y-17568214D01*
X12651357Y-17553929D01*
X12637071Y-17525357D01*
X12637071Y-17511072D01*
X12651357Y-17482500D01*
X12679928Y-17468214D01*
X12722786Y-17468214D01*
X12751357Y-17482500D01*
X12865643Y-17782500D02*
X12879928Y-17768214D01*
X12908500Y-17725357D01*
X12922786Y-17696786D01*
X12937071Y-17653929D01*
X12951357Y-17582500D01*
X12951357Y-17525357D01*
X12937071Y-17453929D01*
X12922786Y-17411072D01*
X12908500Y-17382500D01*
X12879928Y-17339643D01*
X12865643Y-17325357D01*
X5973500Y-17868500D02*
X6093500Y-17988500D01*
X6093500Y-17868500D02*
X5973500Y-17988500D01*
X6093500Y-17928500D02*
G75*
G03X6093500Y-17928500I-60000J0D01*
G01*
X6537071Y-18064214D02*
X6365643Y-18064214D01*
X6451357Y-18064214D02*
X6451357Y-17764214D01*
X6422786Y-17807072D01*
X6394214Y-17835643D01*
X6365643Y-17849929D01*
X6665643Y-18035643D02*
X6679928Y-18049929D01*
X6665643Y-18064214D01*
X6651357Y-18049929D01*
X6665643Y-18035643D01*
X6665643Y-18064214D01*
X6794214Y-17792786D02*
X6808500Y-17778500D01*
X6837071Y-17764214D01*
X6908500Y-17764214D01*
X6937071Y-17778500D01*
X6951357Y-17792786D01*
X6965643Y-17821357D01*
X6965643Y-17849929D01*
X6951357Y-17892786D01*
X6779928Y-18064214D01*
X6965643Y-18064214D01*
X7151357Y-17764214D02*
X7179928Y-17764214D01*
X7208500Y-17778500D01*
X7222786Y-17792786D01*
X7237071Y-17821357D01*
X7251357Y-17878500D01*
X7251357Y-17949929D01*
X7237071Y-18007072D01*
X7222786Y-18035643D01*
X7208500Y-18049929D01*
X7179928Y-18064214D01*
X7151357Y-18064214D01*
X7122786Y-18049929D01*
X7108500Y-18035643D01*
X7094214Y-18007072D01*
X7079928Y-17949929D01*
X7079928Y-17878500D01*
X7094214Y-17821357D01*
X7108500Y-17792786D01*
X7122786Y-17778500D01*
X7151357Y-17764214D01*
X7379928Y-18064214D02*
X7379928Y-17864214D01*
X7379928Y-17892786D02*
X7394214Y-17878500D01*
X7422786Y-17864214D01*
X7465643Y-17864214D01*
X7494214Y-17878500D01*
X7508500Y-17907072D01*
X7508500Y-18064214D01*
X7508500Y-17907072D02*
X7522786Y-17878500D01*
X7551357Y-17864214D01*
X7594214Y-17864214D01*
X7622786Y-17878500D01*
X7637071Y-17907072D01*
X7637071Y-18064214D01*
X7779928Y-18064214D02*
X7779928Y-17864214D01*
X7779928Y-17892786D02*
X7794214Y-17878500D01*
X7822786Y-17864214D01*
X7865643Y-17864214D01*
X7894214Y-17878500D01*
X7908500Y-17907072D01*
X7908500Y-18064214D01*
X7908500Y-17907072D02*
X7922786Y-17878500D01*
X7951357Y-17864214D01*
X7994214Y-17864214D01*
X8022786Y-17878500D01*
X8037071Y-17907072D01*
X8037071Y-18064214D01*
X8622786Y-17749929D02*
X8365643Y-18135643D01*
X9008500Y-17764214D02*
X9037071Y-17764214D01*
X9065643Y-17778500D01*
X9079928Y-17792786D01*
X9094214Y-17821357D01*
X9108500Y-17878500D01*
X9108500Y-17949929D01*
X9094214Y-18007072D01*
X9079928Y-18035643D01*
X9065643Y-18049929D01*
X9037071Y-18064214D01*
X9008500Y-18064214D01*
X8979928Y-18049929D01*
X8965643Y-18035643D01*
X8951357Y-18007072D01*
X8937071Y-17949929D01*
X8937071Y-17878500D01*
X8951357Y-17821357D01*
X8965643Y-17792786D01*
X8979928Y-17778500D01*
X9008500Y-17764214D01*
X9237071Y-18035643D02*
X9251357Y-18049929D01*
X9237071Y-18064214D01*
X9222786Y-18049929D01*
X9237071Y-18035643D01*
X9237071Y-18064214D01*
X9437071Y-17764214D02*
X9465643Y-17764214D01*
X9494214Y-17778500D01*
X9508500Y-17792786D01*
X9522786Y-17821357D01*
X9537071Y-17878500D01*
X9537071Y-17949929D01*
X9522786Y-18007072D01*
X9508500Y-18035643D01*
X9494214Y-18049929D01*
X9465643Y-18064214D01*
X9437071Y-18064214D01*
X9408500Y-18049929D01*
X9394214Y-18035643D01*
X9379928Y-18007072D01*
X9365643Y-17949929D01*
X9365643Y-17878500D01*
X9379928Y-17821357D01*
X9394214Y-17792786D01*
X9408500Y-17778500D01*
X9437071Y-17764214D01*
X9794214Y-17864214D02*
X9794214Y-18064214D01*
X9722786Y-17749929D02*
X9651357Y-17964214D01*
X9837071Y-17964214D01*
X9922786Y-17764214D02*
X10122786Y-17764214D01*
X9994214Y-18064214D01*
X10222786Y-17764214D02*
X10222786Y-17821357D01*
X10337071Y-17764214D02*
X10337071Y-17821357D01*
X10779928Y-18178500D02*
X10765643Y-18164214D01*
X10737071Y-18121357D01*
X10722786Y-18092786D01*
X10708500Y-18049929D01*
X10694214Y-17978500D01*
X10694214Y-17921357D01*
X10708500Y-17849929D01*
X10722786Y-17807072D01*
X10737071Y-17778500D01*
X10765643Y-17735643D01*
X10779928Y-17721357D01*
X10865643Y-17764214D02*
X11051357Y-17764214D01*
X10951357Y-17878500D01*
X10994214Y-17878500D01*
X11022786Y-17892786D01*
X11037071Y-17907072D01*
X11051357Y-17935643D01*
X11051357Y-18007072D01*
X11037071Y-18035643D01*
X11022786Y-18049929D01*
X10994214Y-18064214D01*
X10908500Y-18064214D01*
X10879928Y-18049929D01*
X10865643Y-18035643D01*
X11308500Y-17764214D02*
X11251357Y-17764214D01*
X11222786Y-17778500D01*
X11208500Y-17792786D01*
X11179928Y-17835643D01*
X11165643Y-17892786D01*
X11165643Y-18007072D01*
X11179928Y-18035643D01*
X11194214Y-18049929D01*
X11222786Y-18064214D01*
X11279928Y-18064214D01*
X11308500Y-18049929D01*
X11322786Y-18035643D01*
X11337071Y-18007072D01*
X11337071Y-17935643D01*
X11322786Y-17907072D01*
X11308500Y-17892786D01*
X11279928Y-17878500D01*
X11222786Y-17878500D01*
X11194214Y-17892786D01*
X11179928Y-17907072D01*
X11165643Y-17935643D01*
X11694214Y-18064214D02*
X11694214Y-17764214D01*
X11822786Y-18064214D02*
X11822786Y-17907072D01*
X11808500Y-17878500D01*
X11779928Y-17864214D01*
X11737071Y-17864214D01*
X11708500Y-17878500D01*
X11694214Y-17892786D01*
X12008500Y-18064214D02*
X11979928Y-18049929D01*
X11965643Y-18035643D01*
X11951357Y-18007072D01*
X11951357Y-17921357D01*
X11965643Y-17892786D01*
X11979928Y-17878500D01*
X12008500Y-17864214D01*
X12051357Y-17864214D01*
X12079928Y-17878500D01*
X12094214Y-17892786D01*
X12108500Y-17921357D01*
X12108500Y-18007072D01*
X12094214Y-18035643D01*
X12079928Y-18049929D01*
X12051357Y-18064214D01*
X12008500Y-18064214D01*
X12279928Y-18064214D02*
X12251357Y-18049929D01*
X12237071Y-18021357D01*
X12237071Y-17764214D01*
X12508500Y-18049929D02*
X12479928Y-18064214D01*
X12422786Y-18064214D01*
X12394214Y-18049929D01*
X12379928Y-18021357D01*
X12379928Y-17907072D01*
X12394214Y-17878500D01*
X12422786Y-17864214D01*
X12479928Y-17864214D01*
X12508500Y-17878500D01*
X12522786Y-17907072D01*
X12522786Y-17935643D01*
X12379928Y-17964214D01*
X12637071Y-18049929D02*
X12665643Y-18064214D01*
X12722786Y-18064214D01*
X12751357Y-18049929D01*
X12765643Y-18021357D01*
X12765643Y-18007072D01*
X12751357Y-17978500D01*
X12722786Y-17964214D01*
X12679928Y-17964214D01*
X12651357Y-17949929D01*
X12637071Y-17921357D01*
X12637071Y-17907072D01*
X12651357Y-17878500D01*
X12679928Y-17864214D01*
X12722786Y-17864214D01*
X12751357Y-17878500D01*
X12865643Y-18178500D02*
X12879928Y-18164214D01*
X12908500Y-18121357D01*
X12922786Y-18092786D01*
X12937071Y-18049929D01*
X12951357Y-17978500D01*
X12951357Y-17921357D01*
X12937071Y-17849929D01*
X12922786Y-17807072D01*
X12908500Y-17778500D01*
X12879928Y-17735643D01*
X12865643Y-17721357D01*
X5963500Y-18259500D02*
X6093500Y-18389500D01*
X6093500Y-18259500D02*
X5963500Y-18389500D01*
X6028500Y-18259500D02*
X6028500Y-18389500D01*
X5963500Y-18324500D02*
X6093500Y-18324500D01*
X6537071Y-18460214D02*
X6365643Y-18460214D01*
X6451357Y-18460214D02*
X6451357Y-18160214D01*
X6422786Y-18203072D01*
X6394214Y-18231643D01*
X6365643Y-18245929D01*
X6665643Y-18431643D02*
X6679928Y-18445929D01*
X6665643Y-18460214D01*
X6651357Y-18445929D01*
X6665643Y-18431643D01*
X6665643Y-18460214D01*
X6779928Y-18160214D02*
X6965643Y-18160214D01*
X6865643Y-18274500D01*
X6908500Y-18274500D01*
X6937071Y-18288786D01*
X6951357Y-18303072D01*
X6965643Y-18331643D01*
X6965643Y-18403072D01*
X6951357Y-18431643D01*
X6937071Y-18445929D01*
X6908500Y-18460214D01*
X6822786Y-18460214D01*
X6794214Y-18445929D01*
X6779928Y-18431643D01*
X7151357Y-18160214D02*
X7179928Y-18160214D01*
X7208500Y-18174500D01*
X7222786Y-18188786D01*
X7237071Y-18217357D01*
X7251357Y-18274500D01*
X7251357Y-18345929D01*
X7237071Y-18403072D01*
X7222786Y-18431643D01*
X7208500Y-18445929D01*
X7179928Y-18460214D01*
X7151357Y-18460214D01*
X7122786Y-18445929D01*
X7108500Y-18431643D01*
X7094214Y-18403072D01*
X7079928Y-18345929D01*
X7079928Y-18274500D01*
X7094214Y-18217357D01*
X7108500Y-18188786D01*
X7122786Y-18174500D01*
X7151357Y-18160214D01*
X7379928Y-18460214D02*
X7379928Y-18260214D01*
X7379928Y-18288786D02*
X7394214Y-18274500D01*
X7422786Y-18260214D01*
X7465643Y-18260214D01*
X7494214Y-18274500D01*
X7508500Y-18303072D01*
X7508500Y-18460214D01*
X7508500Y-18303072D02*
X7522786Y-18274500D01*
X7551357Y-18260214D01*
X7594214Y-18260214D01*
X7622786Y-18274500D01*
X7637071Y-18303072D01*
X7637071Y-18460214D01*
X7779928Y-18460214D02*
X7779928Y-18260214D01*
X7779928Y-18288786D02*
X7794214Y-18274500D01*
X7822786Y-18260214D01*
X7865643Y-18260214D01*
X7894214Y-18274500D01*
X7908500Y-18303072D01*
X7908500Y-18460214D01*
X7908500Y-18303072D02*
X7922786Y-18274500D01*
X7951357Y-18260214D01*
X7994214Y-18260214D01*
X8022786Y-18274500D01*
X8037071Y-18303072D01*
X8037071Y-18460214D01*
X8622786Y-18145929D02*
X8365643Y-18531643D01*
X9008500Y-18160214D02*
X9037071Y-18160214D01*
X9065643Y-18174500D01*
X9079928Y-18188786D01*
X9094214Y-18217357D01*
X9108500Y-18274500D01*
X9108500Y-18345929D01*
X9094214Y-18403072D01*
X9079928Y-18431643D01*
X9065643Y-18445929D01*
X9037071Y-18460214D01*
X9008500Y-18460214D01*
X8979928Y-18445929D01*
X8965643Y-18431643D01*
X8951357Y-18403072D01*
X8937071Y-18345929D01*
X8937071Y-18274500D01*
X8951357Y-18217357D01*
X8965643Y-18188786D01*
X8979928Y-18174500D01*
X9008500Y-18160214D01*
X9237071Y-18431643D02*
X9251357Y-18445929D01*
X9237071Y-18460214D01*
X9222786Y-18445929D01*
X9237071Y-18431643D01*
X9237071Y-18460214D01*
X9437071Y-18160214D02*
X9465643Y-18160214D01*
X9494214Y-18174500D01*
X9508500Y-18188786D01*
X9522786Y-18217357D01*
X9537071Y-18274500D01*
X9537071Y-18345929D01*
X9522786Y-18403072D01*
X9508500Y-18431643D01*
X9494214Y-18445929D01*
X9465643Y-18460214D01*
X9437071Y-18460214D01*
X9408500Y-18445929D01*
X9394214Y-18431643D01*
X9379928Y-18403072D01*
X9365643Y-18345929D01*
X9365643Y-18274500D01*
X9379928Y-18217357D01*
X9394214Y-18188786D01*
X9408500Y-18174500D01*
X9437071Y-18160214D01*
X9808500Y-18160214D02*
X9665643Y-18160214D01*
X9651357Y-18303072D01*
X9665643Y-18288786D01*
X9694214Y-18274500D01*
X9765643Y-18274500D01*
X9794214Y-18288786D01*
X9808500Y-18303072D01*
X9822786Y-18331643D01*
X9822786Y-18403072D01*
X9808500Y-18431643D01*
X9794214Y-18445929D01*
X9765643Y-18460214D01*
X9694214Y-18460214D01*
X9665643Y-18445929D01*
X9651357Y-18431643D01*
X10108500Y-18460214D02*
X9937071Y-18460214D01*
X10022786Y-18460214D02*
X10022786Y-18160214D01*
X9994214Y-18203072D01*
X9965643Y-18231643D01*
X9937071Y-18245929D01*
X10222786Y-18160214D02*
X10222786Y-18217357D01*
X10337071Y-18160214D02*
X10337071Y-18217357D01*
X10779928Y-18574500D02*
X10765643Y-18560214D01*
X10737071Y-18517357D01*
X10722786Y-18488786D01*
X10708500Y-18445929D01*
X10694214Y-18374500D01*
X10694214Y-18317357D01*
X10708500Y-18245929D01*
X10722786Y-18203072D01*
X10737071Y-18174500D01*
X10765643Y-18131643D01*
X10779928Y-18117357D01*
X11051357Y-18460214D02*
X10879928Y-18460214D01*
X10965643Y-18460214D02*
X10965643Y-18160214D01*
X10937071Y-18203072D01*
X10908500Y-18231643D01*
X10879928Y-18245929D01*
X11308500Y-18160214D02*
X11251357Y-18160214D01*
X11222786Y-18174500D01*
X11208500Y-18188786D01*
X11179928Y-18231643D01*
X11165643Y-18288786D01*
X11165643Y-18403072D01*
X11179928Y-18431643D01*
X11194214Y-18445929D01*
X11222786Y-18460214D01*
X11279928Y-18460214D01*
X11308500Y-18445929D01*
X11322786Y-18431643D01*
X11337071Y-18403072D01*
X11337071Y-18331643D01*
X11322786Y-18303072D01*
X11308500Y-18288786D01*
X11279928Y-18274500D01*
X11222786Y-18274500D01*
X11194214Y-18288786D01*
X11179928Y-18303072D01*
X11165643Y-18331643D01*
X11694214Y-18460214D02*
X11694214Y-18160214D01*
X11822786Y-18460214D02*
X11822786Y-18303072D01*
X11808500Y-18274500D01*
X11779928Y-18260214D01*
X11737071Y-18260214D01*
X11708500Y-18274500D01*
X11694214Y-18288786D01*
X12008500Y-18460214D02*
X11979928Y-18445929D01*
X11965643Y-18431643D01*
X11951357Y-18403072D01*
X11951357Y-18317357D01*
X11965643Y-18288786D01*
X11979928Y-18274500D01*
X12008500Y-18260214D01*
X12051357Y-18260214D01*
X12079928Y-18274500D01*
X12094214Y-18288786D01*
X12108500Y-18317357D01*
X12108500Y-18403072D01*
X12094214Y-18431643D01*
X12079928Y-18445929D01*
X12051357Y-18460214D01*
X12008500Y-18460214D01*
X12279928Y-18460214D02*
X12251357Y-18445929D01*
X12237071Y-18417357D01*
X12237071Y-18160214D01*
X12508500Y-18445929D02*
X12479928Y-18460214D01*
X12422786Y-18460214D01*
X12394214Y-18445929D01*
X12379928Y-18417357D01*
X12379928Y-18303072D01*
X12394214Y-18274500D01*
X12422786Y-18260214D01*
X12479928Y-18260214D01*
X12508500Y-18274500D01*
X12522786Y-18303072D01*
X12522786Y-18331643D01*
X12379928Y-18360214D01*
X12637071Y-18445929D02*
X12665643Y-18460214D01*
X12722786Y-18460214D01*
X12751357Y-18445929D01*
X12765643Y-18417357D01*
X12765643Y-18403072D01*
X12751357Y-18374500D01*
X12722786Y-18360214D01*
X12679928Y-18360214D01*
X12651357Y-18345929D01*
X12637071Y-18317357D01*
X12637071Y-18303072D01*
X12651357Y-18274500D01*
X12679928Y-18260214D01*
X12722786Y-18260214D01*
X12751357Y-18274500D01*
X12865643Y-18574500D02*
X12879928Y-18560214D01*
X12908500Y-18517357D01*
X12922786Y-18488786D01*
X12937071Y-18445929D01*
X12951357Y-18374500D01*
X12951357Y-18317357D01*
X12937071Y-18245929D01*
X12922786Y-18203072D01*
X12908500Y-18174500D01*
X12879928Y-18131643D01*
X12865643Y-18117357D01*
X5943500Y-18645500D02*
X6093500Y-18795500D01*
X6093500Y-18645500D02*
X5943500Y-18795500D01*
X6071533Y-18773534D02*
X6071533Y-18667467D01*
X5965466Y-18667467D01*
X5965466Y-18773534D01*
X6071533Y-18773534D01*
X6537071Y-18856214D02*
X6365643Y-18856214D01*
X6451357Y-18856214D02*
X6451357Y-18556214D01*
X6422786Y-18599072D01*
X6394214Y-18627643D01*
X6365643Y-18641929D01*
X6665643Y-18827643D02*
X6679928Y-18841929D01*
X6665643Y-18856214D01*
X6651357Y-18841929D01*
X6665643Y-18827643D01*
X6665643Y-18856214D01*
X6951357Y-18556214D02*
X6808500Y-18556214D01*
X6794214Y-18699072D01*
X6808500Y-18684786D01*
X6837071Y-18670500D01*
X6908500Y-18670500D01*
X6937071Y-18684786D01*
X6951357Y-18699072D01*
X6965643Y-18727643D01*
X6965643Y-18799072D01*
X6951357Y-18827643D01*
X6937071Y-18841929D01*
X6908500Y-18856214D01*
X6837071Y-18856214D01*
X6808500Y-18841929D01*
X6794214Y-18827643D01*
X7151357Y-18556214D02*
X7179928Y-18556214D01*
X7208500Y-18570500D01*
X7222786Y-18584786D01*
X7237071Y-18613357D01*
X7251357Y-18670500D01*
X7251357Y-18741929D01*
X7237071Y-18799072D01*
X7222786Y-18827643D01*
X7208500Y-18841929D01*
X7179928Y-18856214D01*
X7151357Y-18856214D01*
X7122786Y-18841929D01*
X7108500Y-18827643D01*
X7094214Y-18799072D01*
X7079928Y-18741929D01*
X7079928Y-18670500D01*
X7094214Y-18613357D01*
X7108500Y-18584786D01*
X7122786Y-18570500D01*
X7151357Y-18556214D01*
X7379928Y-18856214D02*
X7379928Y-18656214D01*
X7379928Y-18684786D02*
X7394214Y-18670500D01*
X7422786Y-18656214D01*
X7465643Y-18656214D01*
X7494214Y-18670500D01*
X7508500Y-18699072D01*
X7508500Y-18856214D01*
X7508500Y-18699072D02*
X7522786Y-18670500D01*
X7551357Y-18656214D01*
X7594214Y-18656214D01*
X7622786Y-18670500D01*
X7637071Y-18699072D01*
X7637071Y-18856214D01*
X7779928Y-18856214D02*
X7779928Y-18656214D01*
X7779928Y-18684786D02*
X7794214Y-18670500D01*
X7822786Y-18656214D01*
X7865643Y-18656214D01*
X7894214Y-18670500D01*
X7908500Y-18699072D01*
X7908500Y-18856214D01*
X7908500Y-18699072D02*
X7922786Y-18670500D01*
X7951357Y-18656214D01*
X7994214Y-18656214D01*
X8022786Y-18670500D01*
X8037071Y-18699072D01*
X8037071Y-18856214D01*
X8622786Y-18541929D02*
X8365643Y-18927643D01*
X9008500Y-18556214D02*
X9037071Y-18556214D01*
X9065643Y-18570500D01*
X9079928Y-18584786D01*
X9094214Y-18613357D01*
X9108500Y-18670500D01*
X9108500Y-18741929D01*
X9094214Y-18799072D01*
X9079928Y-18827643D01*
X9065643Y-18841929D01*
X9037071Y-18856214D01*
X9008500Y-18856214D01*
X8979928Y-18841929D01*
X8965643Y-18827643D01*
X8951357Y-18799072D01*
X8937071Y-18741929D01*
X8937071Y-18670500D01*
X8951357Y-18613357D01*
X8965643Y-18584786D01*
X8979928Y-18570500D01*
X9008500Y-18556214D01*
X9237071Y-18827643D02*
X9251357Y-18841929D01*
X9237071Y-18856214D01*
X9222786Y-18841929D01*
X9237071Y-18827643D01*
X9237071Y-18856214D01*
X9437071Y-18556214D02*
X9465643Y-18556214D01*
X9494214Y-18570500D01*
X9508500Y-18584786D01*
X9522786Y-18613357D01*
X9537071Y-18670500D01*
X9537071Y-18741929D01*
X9522786Y-18799072D01*
X9508500Y-18827643D01*
X9494214Y-18841929D01*
X9465643Y-18856214D01*
X9437071Y-18856214D01*
X9408500Y-18841929D01*
X9394214Y-18827643D01*
X9379928Y-18799072D01*
X9365643Y-18741929D01*
X9365643Y-18670500D01*
X9379928Y-18613357D01*
X9394214Y-18584786D01*
X9408500Y-18570500D01*
X9437071Y-18556214D01*
X9808500Y-18556214D02*
X9665643Y-18556214D01*
X9651357Y-18699072D01*
X9665643Y-18684786D01*
X9694214Y-18670500D01*
X9765643Y-18670500D01*
X9794214Y-18684786D01*
X9808500Y-18699072D01*
X9822786Y-18727643D01*
X9822786Y-18799072D01*
X9808500Y-18827643D01*
X9794214Y-18841929D01*
X9765643Y-18856214D01*
X9694214Y-18856214D01*
X9665643Y-18841929D01*
X9651357Y-18827643D01*
X9965643Y-18856214D02*
X10022786Y-18856214D01*
X10051357Y-18841929D01*
X10065643Y-18827643D01*
X10094214Y-18784786D01*
X10108500Y-18727643D01*
X10108500Y-18613357D01*
X10094214Y-18584786D01*
X10079928Y-18570500D01*
X10051357Y-18556214D01*
X9994214Y-18556214D01*
X9965643Y-18570500D01*
X9951357Y-18584786D01*
X9937071Y-18613357D01*
X9937071Y-18684786D01*
X9951357Y-18713357D01*
X9965643Y-18727643D01*
X9994214Y-18741929D01*
X10051357Y-18741929D01*
X10079928Y-18727643D01*
X10094214Y-18713357D01*
X10108500Y-18684786D01*
X10222786Y-18556214D02*
X10222786Y-18613357D01*
X10337071Y-18556214D02*
X10337071Y-18613357D01*
X10779928Y-18970500D02*
X10765643Y-18956214D01*
X10737071Y-18913357D01*
X10722786Y-18884786D01*
X10708500Y-18841929D01*
X10694214Y-18770500D01*
X10694214Y-18713357D01*
X10708500Y-18641929D01*
X10722786Y-18599072D01*
X10737071Y-18570500D01*
X10765643Y-18527643D01*
X10779928Y-18513357D01*
X10865643Y-18556214D02*
X11051357Y-18556214D01*
X10951357Y-18670500D01*
X10994214Y-18670500D01*
X11022786Y-18684786D01*
X11037071Y-18699072D01*
X11051357Y-18727643D01*
X11051357Y-18799072D01*
X11037071Y-18827643D01*
X11022786Y-18841929D01*
X10994214Y-18856214D01*
X10908500Y-18856214D01*
X10879928Y-18841929D01*
X10865643Y-18827643D01*
X11237071Y-18556214D02*
X11265643Y-18556214D01*
X11294214Y-18570500D01*
X11308500Y-18584786D01*
X11322786Y-18613357D01*
X11337071Y-18670500D01*
X11337071Y-18741929D01*
X11322786Y-18799072D01*
X11308500Y-18827643D01*
X11294214Y-18841929D01*
X11265643Y-18856214D01*
X11237071Y-18856214D01*
X11208500Y-18841929D01*
X11194214Y-18827643D01*
X11179928Y-18799072D01*
X11165643Y-18741929D01*
X11165643Y-18670500D01*
X11179928Y-18613357D01*
X11194214Y-18584786D01*
X11208500Y-18570500D01*
X11237071Y-18556214D01*
X11694214Y-18856214D02*
X11694214Y-18556214D01*
X11822786Y-18856214D02*
X11822786Y-18699072D01*
X11808500Y-18670500D01*
X11779928Y-18656214D01*
X11737071Y-18656214D01*
X11708500Y-18670500D01*
X11694214Y-18684786D01*
X12008500Y-18856214D02*
X11979928Y-18841929D01*
X11965643Y-18827643D01*
X11951357Y-18799072D01*
X11951357Y-18713357D01*
X11965643Y-18684786D01*
X11979928Y-18670500D01*
X12008500Y-18656214D01*
X12051357Y-18656214D01*
X12079928Y-18670500D01*
X12094214Y-18684786D01*
X12108500Y-18713357D01*
X12108500Y-18799072D01*
X12094214Y-18827643D01*
X12079928Y-18841929D01*
X12051357Y-18856214D01*
X12008500Y-18856214D01*
X12279928Y-18856214D02*
X12251357Y-18841929D01*
X12237071Y-18813357D01*
X12237071Y-18556214D01*
X12508500Y-18841929D02*
X12479928Y-18856214D01*
X12422786Y-18856214D01*
X12394214Y-18841929D01*
X12379928Y-18813357D01*
X12379928Y-18699072D01*
X12394214Y-18670500D01*
X12422786Y-18656214D01*
X12479928Y-18656214D01*
X12508500Y-18670500D01*
X12522786Y-18699072D01*
X12522786Y-18727643D01*
X12379928Y-18756214D01*
X12637071Y-18841929D02*
X12665643Y-18856214D01*
X12722786Y-18856214D01*
X12751357Y-18841929D01*
X12765643Y-18813357D01*
X12765643Y-18799072D01*
X12751357Y-18770500D01*
X12722786Y-18756214D01*
X12679928Y-18756214D01*
X12651357Y-18741929D01*
X12637071Y-18713357D01*
X12637071Y-18699072D01*
X12651357Y-18670500D01*
X12679928Y-18656214D01*
X12722786Y-18656214D01*
X12751357Y-18670500D01*
X12865643Y-18970500D02*
X12879928Y-18956214D01*
X12908500Y-18913357D01*
X12922786Y-18884786D01*
X12937071Y-18841929D01*
X12951357Y-18770500D01*
X12951357Y-18713357D01*
X12937071Y-18641929D01*
X12922786Y-18599072D01*
X12908500Y-18570500D01*
X12879928Y-18527643D01*
X12865643Y-18513357D01*
M02*
