M48
; DRILL file {KiCad 5.1.5-1.fc31} date Tue 28 Apr 2020 13:02:52 BST
; FORMAT={-:-/ absolute / inch / decimal}
; #@! TF.CreationDate,2020-04-28T13:02:52+01:00
; #@! TF.GenerationSoftware,Kicad,Pcbnew,5.1.5-1.fc31
; #@! TF.FileFunction,Plated,1,2,PTH
FMAT,2
INCH
T1C0.0157
T2C0.0217
T3C0.0295
T4C0.0315
T5C0.0394
T6C0.0433
T7C0.0472
T8C0.0512
T9C0.0591
%
G90
G05
T1
X3.3337Y-4.3374
X3.4137Y-2.7474
X3.4197Y-3.7874
X3.4337Y-4.6974
X3.4337Y-5.0374
X3.4337Y-5.2474
X3.4537Y-3.9974
X3.5237Y-4.8774
X3.5237Y-5.4274
X3.7437Y-4.5174
X3.7937Y-3.9474
X4.0617Y-4.1614
X4.1587Y-5.0514
X4.1737Y-4.0674
X4.4677Y-4.9034
X4.4737Y-4.2174
X4.7307Y-1.7741
X4.8937Y-3.0564
X4.8937Y-4.2274
X5.1137Y-2.5474
X5.1937Y-4.2674
X5.2337Y-2.8874
X6.2937Y-3.0564
X6.4312Y-3.8684
X6.5537Y-4.2474
X6.6942Y-3.1459
X6.8213Y-1.7741
X6.8792Y-2.5554
X7.0147Y-5.3319
X7.1283Y-1.7741
X7.4202Y-5.0884
X7.7031Y-4.0477
X7.7037Y-4.3174
X8.2762Y-3.5394
X8.3182Y-4.6964
X8.4592Y-4.5294
X8.4592Y-4.6964
X8.8572Y-4.3424
T2
X4.2577Y-3.7914
X4.3077Y-3.7914
X4.3577Y-3.7914
X7.5377Y-3.7984
X7.5877Y-3.7984
X7.6377Y-3.7984
X3.5387Y-2.3434
X3.5887Y-2.3434
X3.6387Y-2.3434
X8.2577Y-2.3434
X8.3077Y-2.3434
X8.3577Y-2.3434
X6.5107Y-2.3484
X6.5607Y-2.3484
X6.6107Y-2.3484
X4.6437Y-5.3274
X4.6937Y-5.3274
X4.7437Y-5.3274
X5.2937Y-2.3474
X5.3437Y-2.3474
X5.3937Y-2.3474
X7.1567Y-5.3304
X7.2067Y-5.3304
X7.2567Y-5.3304
T3
X4.2537Y-4.7874
X4.3037Y-4.7874
X4.3537Y-4.7874
X7.5337Y-5.3314
X7.5837Y-5.3314
X7.6337Y-5.3314
X8.3017Y-3.1944
X8.3517Y-3.1944
X8.4017Y-3.1944
X6.7717Y-5.3304
X6.8217Y-5.3304
X6.8717Y-5.3304
X5.0262Y-5.3324
X5.0762Y-5.3324
X5.1262Y-5.3324
X6.3797Y-5.3314
X6.4297Y-5.3314
X6.4797Y-5.3314
X7.4693Y-1.7387
X7.5193Y-1.7387
X7.5693Y-1.7387
X7.5387Y-4.7894
X7.5887Y-4.7894
X7.6387Y-4.7894
X3.4837Y-3.1974
X3.5337Y-3.1974
X3.5837Y-3.1974
X4.3157Y-1.7387
X4.3657Y-1.7387
X4.4157Y-1.7387
X4.2537Y-4.2474
X4.3037Y-4.2474
X4.3537Y-4.2474
X4.2637Y-5.3274
X4.3137Y-5.3274
X4.3637Y-5.3274
X7.5397Y-4.2554
X7.5897Y-4.2554
X7.6397Y-4.2554
X5.4087Y-5.3349
X5.4587Y-5.3349
X5.5087Y-5.3349
T4
X6.7837Y-4.4264
X7.2837Y-4.4264
X2.9387Y-4.9499
X2.9387Y-5.1468
X7.2063Y-3.9294
X7.3047Y-3.9294
X4.1237Y-2.4884
X4.1237Y-2.9884
X8.4637Y-4.9556
X8.4637Y-5.1524
X3.5812Y-5.3249
X4.0812Y-5.3249
X6.0537Y-3.2374
X6.5537Y-3.2374
X3.5812Y-5.1499
X4.0812Y-5.1499
X3.4047Y-2.4884
X3.4047Y-2.9884
X3.4387Y-4.9474
X3.4387Y-5.1443
X6.5607Y-2.5554
X6.5607Y-3.0554
X6.3569Y-5.0874
X6.5537Y-5.0874
X7.9427Y-2.4914
X7.9427Y-2.9914
X3.5812Y-4.9674
X4.0812Y-4.9674
X7.8197Y-4.0814
X8.3197Y-4.0814
X2.9387Y-4.2474
X3.4387Y-4.2474
X3.9457Y-2.4884
X3.9457Y-2.9884
X2.9387Y-4.4274
X3.4387Y-4.4274
X8.4597Y-4.7884
X8.9597Y-4.7884
X6.0537Y-3.5874
X6.5537Y-3.5874
X5.3337Y-5.0874
X5.5306Y-5.0874
X6.0537Y-4.1274
X6.5537Y-4.1274
X5.3853Y-4.5174
X5.4837Y-4.5174
X4.6107Y-4.4184
X5.1107Y-4.4184
X8.4597Y-4.0774
X8.9597Y-4.0774
X7.8177Y-4.7854
X8.3177Y-4.7854
X6.7837Y-4.7874
X7.2837Y-4.7874
X2.9387Y-4.6074
X3.4387Y-4.6074
X6.8837Y-4.2294
X7.1837Y-4.2294
X8.7127Y-4.9546
X8.7127Y-5.1514
X7.8207Y-3.1934
X8.1207Y-3.1934
X7.8197Y-4.4334
X8.3197Y-4.4334
X3.7637Y-3.1974
X4.0637Y-3.1974
X8.4597Y-4.6054
X8.9597Y-4.6054
X5.3437Y-2.5574
X5.3437Y-3.0574
X6.1037Y-4.4174
X6.1037Y-4.5174
X6.1037Y-4.6174
X4.5912Y-3.9299
X4.6896Y-3.9299
X6.0537Y-3.9474
X6.5537Y-3.9474
X3.7647Y-2.4884
X3.7647Y-2.9884
X3.1837Y-4.9499
X3.1837Y-5.1468
X5.3337Y-3.4174
X5.8337Y-3.4174
X6.4237Y-4.5174
X6.5221Y-4.5174
X7.7617Y-2.4914
X7.7617Y-2.9914
X3.5812Y-4.7899
X4.0812Y-4.7899
X5.3369Y-4.8874
X5.5337Y-4.8874
X6.3537Y-4.8874
X6.5506Y-4.8874
X2.9387Y-4.7874
X3.4387Y-4.7874
X2.9362Y-3.8774
X3.4362Y-3.8774
X3.5847Y-2.4884
X3.5847Y-2.9884
X3.5812Y-4.6124
X4.0812Y-4.6124
X6.8083Y-3.9294
X6.9067Y-3.9294
X8.4797Y-2.4914
X8.4797Y-2.9914
X5.3337Y-3.2374
X5.8337Y-3.2374
X5.3337Y-3.7674
X5.8337Y-3.7674
X5.7912Y-4.4174
X5.7912Y-4.5174
X5.7912Y-4.6174
X6.7837Y-4.6024
X7.2837Y-4.6024
X8.4617Y-4.2514
X8.9617Y-4.2514
X6.0537Y-3.4104
X6.5537Y-3.4104
X8.4587Y-3.8844
X8.9587Y-3.8844
X4.9897Y-3.9294
X5.0881Y-3.9294
X2.9387Y-4.0774
X3.4387Y-4.0774
X4.7237Y-4.2274
X5.0237Y-4.2274
X3.5787Y-4.2524
X4.0787Y-4.2524
X6.0537Y-3.7674
X6.5537Y-3.7674
X4.6127Y-4.9684
X5.1127Y-4.9684
X7.8197Y-5.3344
X8.3197Y-5.3344
X5.3337Y-4.1224
X5.8337Y-4.1224
X3.5812Y-4.4324
X4.0812Y-4.4324
X3.5787Y-4.0724
X4.0787Y-4.0724
X8.1207Y-2.4924
X8.1207Y-2.9924
X8.9587Y-4.9564
X8.9587Y-5.1533
X7.8197Y-5.1474
X8.3197Y-5.1474
X5.3337Y-3.9474
X5.8337Y-3.9474
X7.8197Y-4.2504
X8.3197Y-4.2504
X4.6137Y-4.7874
X5.1137Y-4.7874
X8.4597Y-4.4344
X8.9597Y-4.4344
X7.8187Y-4.9684
X8.3187Y-4.9684
X7.8187Y-4.6074
X8.3187Y-4.6074
X5.3337Y-3.5874
X5.8337Y-3.5874
X6.7837Y-4.9654
X7.2837Y-4.9654
X4.6127Y-4.6024
X5.1127Y-4.6024
X8.2957Y-2.4914
X8.2957Y-2.9914
T5
X3.0237Y-3.2111
X3.2206Y-3.2111
X8.6618Y-3.2131
X8.8587Y-3.2131
X5.5637Y-2.7374
X5.7606Y-2.7374
X8.6729Y-2.7404
X8.8697Y-2.7404
X3.0117Y-2.7374
X3.2086Y-2.7374
X6.1269Y-2.7374
X6.3237Y-2.7374
X3.7622Y-3.5162
X3.7622Y-3.7131
X8.1205Y-3.5143
X8.1205Y-3.7111
T6
X6.8322Y-3.2369
X7.2322Y-3.2369
X8.5557Y-3.5524
X8.9557Y-3.5524
X2.9412Y-3.7124
X3.3412Y-3.7124
X4.6737Y-3.5874
X5.0737Y-3.5874
X2.9412Y-3.5524
X3.3412Y-3.5524
X4.6732Y-3.4179
X5.0732Y-3.4179
X4.6732Y-3.2389
X5.0732Y-3.2389
X8.5557Y-3.7144
X8.9557Y-3.7144
X6.8287Y-3.4114
X7.2287Y-3.4114
X4.3757Y-2.3464
X4.3757Y-3.1464
X7.5137Y-2.3484
X7.5137Y-3.1484
X6.8277Y-3.5844
X7.2277Y-3.5844
T7
X6.2477Y-2.0584
X7.2477Y-2.0584
X5.0287Y-2.3524
X5.0287Y-2.943
X7.7667Y-2.0534
X8.7667Y-2.0534
X7.1937Y-2.3504
X7.1937Y-2.941
X5.7421Y-4.902
X5.8421Y-4.902
X5.9421Y-4.902
X6.0421Y-4.902
X6.1421Y-4.902
X6.8607Y-2.3514
X6.8607Y-2.942
X4.6937Y-2.3574
X4.6937Y-2.948
X3.1157Y-2.0654
X4.1157Y-2.0654
X4.6357Y-2.0674
X5.6357Y-2.0674
T8
X8.6729Y-2.3434
X8.8697Y-2.3434
X7.4043Y-2.0584
X7.6011Y-2.0584
X7.5237Y-3.3024
X7.5237Y-3.4993
X6.1437Y-2.3514
X6.3406Y-2.3514
X5.5453Y-2.3514
X5.7421Y-2.3514
X4.2753Y-2.0674
X4.4721Y-2.0674
X3.0117Y-2.3434
X3.2086Y-2.3434
X4.3737Y-3.295
X4.3737Y-3.4918
T9
X6.4945Y-1.7741
X6.71Y-1.7741
X6.9256Y-1.7741
X8.0693Y-1.7741
X3.3843Y-1.7763
X3.5998Y-1.7763
X3.8154Y-1.7763
X4.9197Y-1.7741
X5.1352Y-1.7741
X5.3508Y-1.7741
X8.2848Y-1.7741
X8.5004Y-1.7741
T0
M30
